STARTFONT 2.1
COMMENT
COMMENT Converted from OpenType font "Q:\font stuff\winfont\EUROCAPS.TTF" by "otf2bdf 3.0".
COMMENT
FONT -FreeType-Euro Caps-Medium-R-Normal--72-720-72-72-P-314-ISO10646-1
SIZE 72 72 72
FONTBOUNDINGBOX 98 78 -8 -18
STARTPROPERTIES 19
FOUNDRY "FreeType"
FAMILY_NAME "Euro Caps"
WEIGHT_NAME "Medium"
SLANT "R"
SETWIDTH_NAME "Normal"
ADD_STYLE_NAME ""
PIXEL_SIZE 72
POINT_SIZE 720
RESOLUTION_X 72
RESOLUTION_Y 72
SPACING "P"
AVERAGE_WIDTH 314
CHARSET_REGISTRY "ISO10646"
CHARSET_ENCODING "1"
FONT_ASCENT 64
FONT_DESCENT 22
COPYRIGHT "©2010"
_OTF_FONTFILE "Q:\font stuff\winfont\EUROCAPS.TTF"
_OTF_PSNAME "EuroCaps"
ENDPROPERTIES
CHARS 259
STARTCHAR 0020
ENCODING 32
SWIDTH 305 0
DWIDTH 22 0
BBX 0 0 0 0
BITMAP
ENDCHAR
STARTCHAR 0021
ENCODING 33
SWIDTH 263 0
DWIDTH 19 0
BBX 7 48 6 0
BITMAP
FE
FE
FE
FE
FE
FE
FE
FE
FE
FE
FE
FE
FE
FE
FE
FE
FE
FE
FE
FE
FE
FE
FE
FE
FE
FC
FC
FC
FC
7C
7C
7C
7C
7C
00
00
00
00
00
00
00
FE
FE
FE
FE
FE
FE
FE
ENDCHAR
STARTCHAR 0022
ENCODING 34
SWIDTH 319 0
DWIDTH 23 0
BBX 16 19 4 29
BITMAP
F81F
F01F
F01F
F01E
F01E
F01E
F01E
F01E
F01E
F01E
F01E
F01E
F01E
F01E
F01E
F01E
F01E
F01E
F01E
ENDCHAR
STARTCHAR 0023
ENCODING 35
SWIDTH 513 0
DWIDTH 37 0
BBX 32 41 2 0
BITMAP
001F00F0
001E01F0
001E01F0
001E01E0
001E01E0
001E01E0
003E01E0
003E01E0
003C03E0
003C03E0
003C03C0
003C03C0
003C03C0
1FFFFFFF
1FFFFFFF
1FFFFFFF
3FFFFFFF
00780780
00780780
00F80780
00F00780
00F00F80
00F00F00
00F00F00
00F00F00
7FFFFFFE
7FFFFFFC
7FFFFFFC
FFFFFFFC
01E01E00
01E01E00
01E01E00
03E01E00
03C03E00
03C03E00
03C03C00
03C03C00
03C03C00
07C03C00
07807C00
07807C00
ENDCHAR
STARTCHAR 0024
ENCODING 36
SWIDTH 583 0
DWIDTH 42 0
BBX 35 51 4 -5
BITMAP
0001F00000
0001F00000
0001F00000
0001F00000
00FFFFF000
07FFFFFC00
1FFFFFFE00
3FFFFFFF00
7FFFFFFF80
7F81F03F80
7C01F00FC0
FC01F00FC0
F801F007C0
F801F007C0
F801F007C0
F801F007C0
F801F007C0
F801F00000
F801F00000
FC01F00000
FC01F00000
7E01F00000
7FFFF80000
3FFFFFF800
1FFFFFFE00
0FFFFFFF00
01FFFFFF80
0001F03FC0
0001F00FC0
0001F007C0
0001F003E0
0001F003E0
F801F003E0
F801F003E0
F801F003E0
F801F003E0
F801F003E0
F801F007E0
FC01F007E0
FC01F00FC0
FE01F03FC0
7FFFFFFFC0
7FFFFFFF80
3FFFFFFF00
0FFFFFFE00
03FFFFF000
0001F00000
0001F00000
0001F00000
0001F00000
0001F00000
ENDCHAR
STARTCHAR 0025
ENCODING 37
SWIDTH 888 0
DWIDTH 64 0
BBX 59 42 2 0
BITMAP
03FFF00001E00000
1FFFFE0003E00000
3FFFFF0003C00000
7FFFFF8007C00000
7E001F800F800000
FC000FC00F800000
F80007C01F000000
F80007C01F000000
F80007C03E000000
F80007C03C000000
F80007C07C000000
F80007C078000000
F80007C0F8000000
F80007C0F0000000
F80007C1F0000000
F80007C3E0000000
F80007C3E0000000
F80007C7C1FFFC00
F80007C7C7FFFF00
F80007CF8FFFFF80
FC000FCF1FFFFFC0
7E001F9F3F800FC0
7FFFFF9E3F0007E0
3FFFFF3E3E0003E0
1FFFFE3C3E0003E0
03FFF07C3E0003E0
000000F83E0003E0
000000F83E0003E0
000001F03E0003E0
000001F03E0003E0
000003E03E0003E0
000003C03E0003E0
000007C03E0003E0
000007803E0003E0
00000F803E0003E0
00000F003E0003E0
00001F003F0007E0
00001E001F800FE0
00003E001FFFFFC0
00007C000FFFFF80
00007C0007FFFF00
0000F80001FFFC00
ENDCHAR
STARTCHAR 0026
ENCODING 38
SWIDTH 638 0
DWIDTH 46 0
BBX 40 41 4 -1
BITMAP
000FFF0000
007FFFC000
01FFFFF000
03FFFFF000
03FFFFF800
03F803F800
07F000FC00
07E000FC00
07E000FC00
07E000FC00
07E000FC00
07E000FC00
07F000FC00
07F0000000
03F8000000
01FE000000
00FF000000
07FF800000
1FFFC00000
3FFFE00000
7FEFF80000
7F03FC0000
7E01FE0FC0
FC00FF0FC0
FC007F8FC0
FC003FEFC0
FC000FFFC0
FC0007FFC0
FC0003FFC0
FC0001FFC0
FC0000FFC0
FC00003FC0
FC00001FE0
FE00001FF0
7E00003FF8
7F8000FFFE
3FFFFFFFFF
3FFFFFFE7F
1FFFFFFC3F
07FFFFF01E
00FFFF800C
ENDCHAR
STARTCHAR 0027
ENCODING 39
SWIDTH 166 0
DWIDTH 12 0
BBX 5 19 4 29
BITMAP
F8
F0
F0
F0
F0
F0
F0
F0
F0
F0
F0
F0
F0
F0
F0
F0
F0
F0
F0
ENDCHAR
STARTCHAR 0028
ENCODING 40
SWIDTH 333 0
DWIDTH 24 0
BBX 15 66 5 -12
BITMAP
007E
03FE
0FFE
1FFE
1FFE
3FE0
3F00
7F00
7E00
7E00
FC00
FC00
FC00
FC00
FC00
FC00
FC00
FC00
FC00
FC00
FC00
FC00
FC00
FC00
FC00
FC00
FC00
FC00
FC00
FC00
FC00
FC00
FC00
FC00
FC00
FC00
FC00
FC00
FC00
FC00
FC00
FC00
FC00
FC00
FC00
FC00
FC00
FC00
FC00
FC00
FC00
FC00
FC00
FC00
FC00
FE00
7E00
7E00
7F00
3F80
3FF0
1FFE
1FFE
0FFE
03FE
007E
ENDCHAR
STARTCHAR 0029
ENCODING 41
SWIDTH 333 0
DWIDTH 24 0
BBX 14 66 4 -12
BITMAP
FC00
FF80
FFC0
FFE0
FFF0
0FF0
03F8
01F8
01F8
01F8
00FC
00FC
00FC
00FC
00FC
00FC
00FC
00FC
00FC
00FC
00FC
00FC
00FC
00FC
00FC
00FC
00FC
00FC
00FC
00FC
00FC
00FC
00FC
00FC
00FC
00FC
00FC
00FC
00FC
00FC
00FC
00FC
00FC
00FC
00FC
00FC
00FC
00FC
00FC
00FC
00FC
00FC
00FC
00FC
00FC
01FC
01F8
01F8
03F8
03F8
3FF0
FFF0
FFE0
FFC0
FF80
FC00
ENDCHAR
STARTCHAR 002A
ENCODING 42
SWIDTH 486 0
DWIDTH 35 0
BBX 30 28 3 20
BITMAP
00078000
00078000
00078000
00078000
00078000
00078000
00078000
00078000
70078030
7C0781F8
7F8787F8
FFF7BFFC
3FFFFFF0
07FFFF80
01FFFC00
003FF000
001FE000
003FE000
003FF000
007CF800
00F87800
01F87C00
01F03E00
03E01F00
07C01F00
07C00F80
03800700
01000000
ENDCHAR
STARTCHAR 002B
ENCODING 43
SWIDTH 527 0
DWIDTH 38 0
BBX 34 33 2 4
BITMAP
0003E00000
0003E00000
0003E00000
0003E00000
0003E00000
0003E00000
0003E00000
0003E00000
0003E00000
0003E00000
0003E00000
0003E00000
0003E00000
0003E00000
0003E00000
FFFFFFFFC0
FFFFFFFFC0
FFFFFFFFC0
FFFFFFFFC0
FFFFFFFFC0
0003E00000
0003E00000
0003E00000
0003E00000
0003E00000
0003E00000
0003E00000
0003E00000
0003E00000
0003E00000
0003E00000
0003E00000
0003E00000
ENDCHAR
STARTCHAR 002C
ENCODING 44
SWIDTH 222 0
DWIDTH 16 0
BBX 8 15 4 -9
BITMAP
7F
7F
7F
7F
7F
7F
7F
0F
0F
0F
0F
3F
FE
FC
F8
ENDCHAR
STARTCHAR 002D
ENCODING 45
SWIDTH 250 0
DWIDTH 18 0
BBX 16 5 1 17
BITMAP
FFFF
FFFF
FFFF
FFFF
FFFF
ENDCHAR
STARTCHAR 002E
ENCODING 46
SWIDTH 208 0
DWIDTH 15 0
BBX 7 7 4 0
BITMAP
FE
FE
FE
FE
FE
FE
FE
ENDCHAR
STARTCHAR 002F
ENCODING 47
SWIDTH 597 0
DWIDTH 43 0
BBX 41 55 1 -7
BITMAP
000000000F80
000000000F00
000000001E00
000000003E00
000000003C00
000000007800
00000000F800
00000001F000
00000001E000
00000003E000
00000007C000
000000078000
0000000F8000
0000001F0000
0000001E0000
0000003E0000
0000007C0000
000000780000
000000F80000
000001F00000
000001E00000
000003E00000
000007C00000
000007800000
00000F800000
00001F000000
00001E000000
00003E000000
00007C000000
000078000000
0000F8000000
0001F0000000
0001E0000000
0003E0000000
0007C0000000
000780000000
000F80000000
001F00000000
001E00000000
003E00000000
007C00000000
007800000000
00F800000000
01F000000000
01E000000000
03E000000000
07C000000000
078000000000
0F0000000000
1F0000000000
1E0000000000
3C0000000000
7C0000000000
780000000000
F00000000000
ENDCHAR
STARTCHAR 0030
ENCODING 48
SWIDTH 569 0
DWIDTH 41 0
BBX 33 42 4 0
BITMAP
00FFFF8000
07FFFFF000
0FFFFFF800
1FFFFFFC00
3FFFFFFE00
7FC000FF00
7E00003F00
7C00001F00
FC00001F80
FC00001F80
F800000F80
F800000F80
F800000F80
F800000F80
F800000F80
F800000F80
F800000F80
F800000F80
F800000F80
F800000F80
F800000F80
F800000F80
F800000F80
F800000F80
F800000F80
F800000F80
F800000F80
F800000F80
F800000F80
F800000F80
F800000F80
F800000F80
F800001F80
FC00001F80
7C00001F00
7E00003F00
7FC001FF00
3FFFFFFE00
1FFFFFFC00
0FFFFFF800
07FFFFF000
00FFFF8000
ENDCHAR
STARTCHAR 0031
ENCODING 49
SWIDTH 555 0
DWIDTH 40 0
BBX 20 42 10 0
BITMAP
000FF0
001FF0
003FF0
007FF0
00FFF0
01FFF0
03FFF0
07FBF0
0FF3F0
1FE3F0
3FC3F0
7F83F0
FF03F0
7E03F0
3C03F0
1803F0
0003F0
0003F0
0003F0
0003F0
0003F0
0003F0
0003F0
0003F0
0003F0
0003F0
0003F0
0003F0
0003F0
0003F0
0003F0
0003F0
0003F0
0003F0
0003F0
0003F0
0003F0
0003F0
0003F0
0003F0
0003F0
0003F0
ENDCHAR
STARTCHAR 0032
ENCODING 50
SWIDTH 527 0
DWIDTH 38 0
BBX 30 42 4 0
BITMAP
007FFC00
07FFFF80
1FFFFFE0
3FFFFFF0
7FFFFFF0
7FC007F8
7E0000F8
FE0000FC
FC00007C
FC00007C
FC00007C
FC00007C
FC00007C
FC00007C
FC00007C
0000007C
0000007C
0000007C
000000FC
000000F8
000003F8
00003FF8
003FFFF0
03FFFFE0
0FFFFFC0
3FFFFE00
3FFFC000
7FC00000
7F000000
FE000000
FC000000
FC000000
FC000000
FC000000
FC000000
FC000000
FC000000
FFFFFFFC
FFFFFFFC
FFFFFFFC
FFFFFFFC
FFFFFFFC
ENDCHAR
STARTCHAR 0033
ENCODING 51
SWIDTH 541 0
DWIDTH 39 0
BBX 32 42 3 0
BITMAP
00FFFE00
07FFFFE0
0FFFFFF0
1FFFFFF8
3FFFFFFC
3F8003FC
3E0000FE
7C0000FE
7C00007E
7C00007E
7C00007E
7C00007E
7C00007E
7C00007E
0000007E
0000007E
000000FC
000001FC
000FFFF8
000FFFF0
000FFFC0
000FFFF8
000FFFFC
000001FE
0000007E
0000007F
0000003F
0000003F
F800003F
F800003F
F800003F
F800003F
F800003F
F800003F
F800007F
FC00007E
7F0001FE
7FFFFFFE
3FFFFFFC
1FFFFFF8
07FFFFE0
00FFFF00
ENDCHAR
STARTCHAR 0034
ENCODING 52
SWIDTH 541 0
DWIDTH 39 0
BBX 35 42 2 0
BITMAP
00000FF800
00000FF800
00001FF800
00003FF800
00007FF800
0000FFF800
0000FDF800
0001F9F800
0003F1F800
0007E1F800
0007E1F800
000FC1F800
001F81F800
003F01F800
007F01F800
007E01F800
00FC01F800
01F801F800
03F801F800
03F001F800
07E001F800
0FC001F800
1FC001F800
1F8001F800
3F0001F800
7E0001F800
FC0001F800
FC0001F800
FFFFFFFFE0
FFFFFFFFE0
FFFFFFFFE0
FFFFFFFFE0
FFFFFFFFE0
000001F800
000001F800
000001F800
000001F800
000001F800
000001F800
000001F800
000001F800
000001F800
ENDCHAR
STARTCHAR 0035
ENCODING 53
SWIDTH 541 0
DWIDTH 39 0
BBX 31 42 4 0
BITMAP
7FFFFFF8
7FFFFFF8
7FFFFFF8
7FFFFFF8
7FFFFFF8
7C000000
7C000000
7C000000
7C000000
7C000000
7C000000
7C000000
7C000000
7C3FFC00
7CFFFFC0
7FFFFFE0
7FFFFFF0
7FFFFFF8
7F8007FC
7E0001FC
7C0000FC
7C0000FE
0000007E
0000007E
0000007E
0000007E
0000007E
0000007E
0000007E
F800007E
F800007E
F800007E
F800007E
F800007E
FC0000FC
FC0000FC
7F0007FC
7FFFFFF8
3FFFFFF8
1FFFFFF0
07FFFFC0
00FFFC00
ENDCHAR
STARTCHAR 0036
ENCODING 54
SWIDTH 541 0
DWIDTH 39 0
BBX 31 42 4 0
BITMAP
00FFFC00
07FFFFC0
1FFFFFE0
3FFFFFF0
3FFFFFF8
7FC003F8
7F0000FC
7E00007C
FC00007C
FC00007C
FC00007C
FC00007C
FC000000
FC000000
FC000000
FC000000
FC1FFE00
FCFFFFE0
FDFFFFF0
FFFFFFF8
FFFFFFFC
FFC003FC
FE00007C
FE00007E
FC00003E
FC00003E
FC00003E
FC00003E
FC00003E
FC00003E
FC00003E
FC00003E
FC00003E
FE00003E
7E00007C
7F00007C
7FC001FC
3FFFFFF8
1FFFFFF8
0FFFFFF0
07FFFFE0
00FFFF00
ENDCHAR
STARTCHAR 0037
ENCODING 55
SWIDTH 527 0
DWIDTH 38 0
BBX 31 42 3 0
BITMAP
FFFFFFFE
FFFFFFFE
FFFFFFFE
FFFFFFFE
FFFFFFFE
0000003E
0000007E
000000FE
000000FC
000001F8
000001F8
000003F0
000007F0
000007E0
00000FE0
00000FC0
00001F80
00003F80
00003F00
00007F00
00007E00
0000FE00
0000FC00
0001F800
0003F800
0003F000
0007F000
0007E000
000FE000
001FC000
001F8000
003F8000
003F0000
007F0000
007E0000
00FE0000
01FC0000
01F80000
03F80000
03F00000
07F00000
0FE00000
ENDCHAR
STARTCHAR 0038
ENCODING 56
SWIDTH 541 0
DWIDTH 39 0
BBX 31 42 4 0
BITMAP
01FFFF00
0FFFFFE0
1FFFFFF0
3FFFFFF8
7FFFFFFC
7F0001FC
FC00007E
F800003E
F800003E
F800003E
F800003E
F800003E
F800003E
F800003E
F800003E
F800007E
7C00007C
7F0001FC
3FFFFFF8
1FFFFFF0
07FFFFC0
1FFFFFF0
3FFFFFF8
7F0001FC
7C00007C
FC00007E
F800003E
F800003E
F800003E
F800003E
F800003E
F800003E
F800003E
F800003E
F800007E
FC00007E
7F0003FC
7FFFFFFC
3FFFFFF8
1FFFFFF0
0FFFFFE0
00FFFE00
ENDCHAR
STARTCHAR 0039
ENCODING 57
SWIDTH 541 0
DWIDTH 39 0
BBX 31 42 4 0
BITMAP
00FFFC00
07FFFFC0
1FFFFFE0
3FFFFFF0
3FFFFFF8
7F0007FC
7C0001FC
FC0000FC
F800007C
F800007E
F800007E
F800007E
F800007E
F800007E
F800007E
F800007E
F800007E
F800007E
FC0000FE
7C0000FE
7F0003FE
7FFFFFFE
3FFFFFFE
1FFFFFFE
0FFFFF7E
01FFF87E
0000007E
0000007E
0000007E
0000007E
0000007E
F800007E
F800007E
F800007E
F80000FC
FC0000FC
FE0003FC
7FFFFFF8
7FFFFFF8
3FFFFFF0
0FFFFFC0
01FFFE00
ENDCHAR
STARTCHAR 003A
ENCODING 58
SWIDTH 208 0
DWIDTH 15 0
BBX 7 38 4 0
BITMAP
FE
FE
FE
FE
FE
FE
FE
00
00
00
00
00
00
00
00
00
00
00
00
00
00
00
00
00
00
00
00
00
00
00
00
FE
FE
FE
FE
FE
FE
FE
ENDCHAR
STARTCHAR 003B
ENCODING 59
SWIDTH 222 0
DWIDTH 16 0
BBX 8 46 4 -9
BITMAP
7F
7F
7F
7F
7F
7F
7F
00
00
00
00
00
00
00
00
00
00
00
00
00
00
00
00
00
00
00
00
00
00
00
00
7F
7F
7F
7F
7F
7F
7F
0F
0F
0F
0F
3F
FE
FC
F8
ENDCHAR
STARTCHAR 003C
ENCODING 60
SWIDTH 500 0
DWIDTH 36 0
BBX 32 34 2 3
BITMAP
00000003
0000000F
0000003F
000000FF
000007FF
00001FFF
00007FF8
0001FFE0
0007FF80
001FFE00
00FFF000
03FFC000
0FFF0000
3FFC0000
FFF00000
FF800000
FE000000
FF000000
FFC00000
FFF00000
1FFC0000
07FF8000
01FFE000
007FF800
001FFE00
0007FFC0
0000FFF0
00003FFC
00000FFF
000003FF
000000FF
0000003F
00000007
00000001
ENDCHAR
STARTCHAR 003D
ENCODING 61
SWIDTH 527 0
DWIDTH 38 0
BBX 34 16 2 12
BITMAP
FFFFFFFFC0
FFFFFFFFC0
FFFFFFFFC0
FFFFFFFFC0
FFFFFFFFC0
0000000000
0000000000
0000000000
0000000000
0000000000
0000000000
FFFFFFFFC0
FFFFFFFFC0
FFFFFFFFC0
FFFFFFFFC0
FFFFFFFFC0
ENDCHAR
STARTCHAR 003E
ENCODING 62
SWIDTH 500 0
DWIDTH 36 0
BBX 32 34 2 3
BITMAP
C0000000
F0000000
FC000000
FF000000
FFE00000
FFF80000
1FFE0000
07FF8000
01FFE000
007FF800
000FFF00
0003FFC0
0000FFF0
00003FFC
00000FFF
000001FF
0000007F
000000FF
000003FF
00000FFF
00003FF8
0001FFE0
0007FF80
001FFE00
007FF800
03FFE000
0FFF0000
3FFC0000
FFF00000
FFC00000
FF000000
FC000000
E0000000
80000000
ENDCHAR
STARTCHAR 003F
ENCODING 63
SWIDTH 472 0
DWIDTH 34 0
BBX 26 48 4 0
BITMAP
01FFE000
0FFFFC00
3FFFFF00
7FFFFF80
7FFFFF80
FF001FC0
FE000FC0
FC0007C0
FC0007C0
FC0007C0
FC0007C0
FC0007C0
000007C0
000007C0
000007C0
000007C0
000007C0
00000FC0
00001FC0
0000FF80
0007FF80
001FFF00
003FFC00
003FE000
007F8000
007E0000
007E0000
007E0000
007E0000
007E0000
007E0000
007E0000
007E0000
007E0000
00000000
00000000
00000000
00000000
00000000
00000000
00000000
00FE0000
00FE0000
00FE0000
00FE0000
00FE0000
00FE0000
00FE0000
ENDCHAR
STARTCHAR 0040
ENCODING 64
SWIDTH 736 0
DWIDTH 53 0
BBX 46 48 3 0
BITMAP
0003FFFFC000
007FFFFFFE00
03FFFFFFFF80
07F800003FC0
0F80000003E0
1E00000001F0
3C00000000F0
3C0000000078
3C0000000078
780000000078
78007FC1E078
7801FFF9E03C
7803FFFDE03C
7007E01FE03C
F00F8007E03C
F00F0003E03C
F00F0003E03C
F01E0001E03C
F01E0001E03C
F01E0001E03C
F01E0001E03C
F01E0001E03C
F01E0001E03C
F01E0001E03C
F01E0001E03C
F01E0001E03C
F01E0001E03C
F01E0001E03C
F01E0001E03C
F01E0001E038
F01F0003E078
F00F0003E078
F00F0003E078
F00F8007E078
7807E01EF0F0
7803FFFC7FF0
7801FFF87FE0
78007FC01F80
780000000000
3C0000000000
3C0000000000
1E0000000000
1F0000000200
0FC000000700
07FE00003F00
01FFFFFFFE00
003FFFFFFC00
0001FFFFE000
ENDCHAR
STARTCHAR 0041
ENCODING 65
SWIDTH 555 0
DWIDTH 40 0
BBX 38 41 1 0
BITMAP
0001FE0000
0001FE0000
0003FE0000
0003FF0000
0003FF0000
0007FF8000
0007FF8000
000FCF8000
000FCFC000
000FCFC000
001F87C000
001F87E000
001F87E000
003F03F000
003F03F000
007E01F000
007E01F800
007E01F800
00FC00FC00
00FC00FC00
01FC00FC00
01F8007E00
01F8007E00
03F0003F00
03F0003F00
03F0003F00
07E0001F80
07E0001F80
0FFFFFFF80
0FFFFFFFC0
0FFFFFFFC0
1FFFFFFFE0
1FFFFFFFE0
1F800007E0
3F000003F0
3F000003F0
7E000001F8
7E000001F8
7E000001F8
FC000000FC
FC000000FC
ENDCHAR
STARTCHAR 0042
ENCODING 66
SWIDTH 569 0
DWIDTH 41 0
BBX 33 41 5 0
BITMAP
FFFFFFE000
FFFFFFF800
FFFFFFFC00
FFFFFFFE00
FFFFFFFE00
FC0000FE00
FC00007F00
FC00003F00
FC00003F00
FC00003F00
FC00003F00
FC00003F00
FC00003F00
FC00003F00
FC00007F00
FC00007E00
FC0001FE00
FFFFFFFC00
FFFFFFF000
FFFFFFF800
FFFFFFFE00
FFFFFFFE00
FC00007F00
FC00003F00
FC00003F80
FC00001F80
FC00001F80
FC00001F80
FC00001F80
FC00001F80
FC00001F80
FC00001F80
FC00001F80
FC00001F80
FC00003F00
FC0000FF00
FFFFFFFF00
FFFFFFFE00
FFFFFFFC00
FFFFFFF800
FFFFFFC000
ENDCHAR
STARTCHAR 0043
ENCODING 67
SWIDTH 569 0
DWIDTH 41 0
BBX 35 43 3 -1
BITMAP
003FFFF000
01FFFFFC00
07FFFFFF00
1FFFFFFF80
3FFFFFFF80
7F80003FC0
7F00000FC0
FE00000FE0
FE000007E0
FC000007E0
FC000007E0
FC000007E0
FC000007E0
FC000007E0
FC00000000
FC00000000
FC00000000
FC00000000
FC00000000
FC00000000
FC00000000
FC00000000
FC00000000
FC00000000
FC00000000
FC00000000
FC00000000
FC00000000
FC000007E0
FC000007E0
FC000007E0
FC000007E0
FE000007E0
FE000007E0
7E000007E0
7E00000FE0
7F00000FC0
3FC0007FC0
3FFFFFFFC0
1FFFFFFF80
0FFFFFFF00
03FFFFFE00
007FFFF000
ENDCHAR
STARTCHAR 0044
ENCODING 68
SWIDTH 611 0
DWIDTH 44 0
BBX 36 41 5 0
BITMAP
FFFFFFC000
FFFFFFF800
FFFFFFFE00
FFFFFFFF00
FFFFFFFF80
FC00007FC0
FC00001FC0
FC00000FE0
FC000007E0
FC000003E0
FC000003E0
FC000003F0
FC000003F0
FC000003F0
FC000003F0
FC000003F0
FC000003F0
FC000003F0
FC000003F0
FC000003F0
FC000003F0
FC000003F0
FC000003F0
FC000003F0
FC000003F0
FC000003F0
FC000003F0
FC000003F0
FC000003F0
FC000003F0
FC000007F0
FC000007F0
FC000007E0
FC00000FE0
FC00001FE0
FC00007FC0
FFFFFFFF80
FFFFFFFF80
FFFFFFFE00
FFFFFFFC00
FFFFFFE000
ENDCHAR
STARTCHAR 0045
ENCODING 69
SWIDTH 500 0
DWIDTH 36 0
BBX 28 41 5 0
BITMAP
FFFFFFF0
FFFFFFF0
FFFFFFF0
FFFFFFF0
FFFFFFF0
FC000000
FC000000
FC000000
FC000000
FC000000
FC000000
FC000000
FC000000
FC000000
FC000000
FC000000
FC000000
FFFFFFE0
FFFFFFE0
FFFFFFE0
FFFFFFE0
FFFFFFE0
FC000000
FC000000
FC000000
FC000000
FC000000
FC000000
FC000000
FC000000
FC000000
FC000000
FC000000
FC000000
FC000000
FC000000
FFFFFFF0
FFFFFFF0
FFFFFFF0
FFFFFFF0
FFFFFFF0
ENDCHAR
STARTCHAR 0046
ENCODING 70
SWIDTH 472 0
DWIDTH 34 0
BBX 27 41 5 0
BITMAP
FFFFFFE0
FFFFFFE0
FFFFFFE0
FFFFFFE0
FFFFFFE0
FC000000
FC000000
FC000000
FC000000
FC000000
FC000000
FC000000
FC000000
FC000000
FC000000
FC000000
FC000000
FC000000
FFFFFFE0
FFFFFFE0
FFFFFFE0
FFFFFFE0
FFFFFFE0
FC000000
FC000000
FC000000
FC000000
FC000000
FC000000
FC000000
FC000000
FC000000
FC000000
FC000000
FC000000
FC000000
FC000000
FC000000
FC000000
FC000000
FC000000
ENDCHAR
STARTCHAR 0047
ENCODING 71
SWIDTH 569 0
DWIDTH 41 0
BBX 35 43 3 -1
BITMAP
007FFFF800
03FFFFFE00
0FFFFFFF80
1FFFFFFF80
1FFFFFFFC0
3FC0001FC0
3F000007E0
7E000007E0
7C000003E0
7C000003E0
FC000003E0
FC000003E0
FC000003E0
FC00000000
FC00000000
FC00000000
FC00000000
FC00000000
FC00000000
FC00000000
FC00000000
FC007FFFE0
FC007FFFE0
FC007FFFE0
FC007FFFE0
FC007FFFE0
FC000003E0
FC000003E0
FC000003E0
FC000003E0
FC000003E0
FC000003E0
FC000003E0
FC000003E0
FE000007E0
7E000007E0
7F00000FC0
3FE0003FC0
3FFFFFFFC0
1FFFFFFF80
0FFFFFFF00
03FFFFFE00
003FFFE000
ENDCHAR
STARTCHAR 0048
ENCODING 72
SWIDTH 625 0
DWIDTH 45 0
BBX 35 41 5 0
BITMAP
FC000007E0
FC000007E0
FC000007E0
FC000007E0
FC000007E0
FC000007E0
FC000007E0
FC000007E0
FC000007E0
FC000007E0
FC000007E0
FC000007E0
FC000007E0
FC000007E0
FC000007E0
FC000007E0
FC000007E0
FFFFFFFFE0
FFFFFFFFE0
FFFFFFFFE0
FFFFFFFFE0
FFFFFFFFE0
FC000007E0
FC000007E0
FC000007E0
FC000007E0
FC000007E0
FC000007E0
FC000007E0
FC000007E0
FC000007E0
FC000007E0
FC000007E0
FC000007E0
FC000007E0
FC000007E0
FC000007E0
FC000007E0
FC000007E0
FC000007E0
FC000007E0
ENDCHAR
STARTCHAR 0049
ENCODING 73
SWIDTH 222 0
DWIDTH 16 0
BBX 6 41 5 0
BITMAP
FC
FC
FC
FC
FC
FC
FC
FC
FC
FC
FC
FC
FC
FC
FC
FC
FC
FC
FC
FC
FC
FC
FC
FC
FC
FC
FC
FC
FC
FC
FC
FC
FC
FC
FC
FC
FC
FC
FC
FC
FC
ENDCHAR
STARTCHAR 004A
ENCODING 74
SWIDTH 472 0
DWIDTH 34 0
BBX 27 42 2 -1
BITMAP
000007E0
000007E0
000007E0
000007E0
000007E0
000007E0
000007E0
000007E0
000007E0
000007E0
000007E0
000007E0
000007E0
000007E0
000007E0
000007E0
000007E0
000007E0
000007E0
000007E0
000007E0
000007E0
000007E0
000007E0
000007E0
000007E0
FC0007E0
FC0007E0
FC0007E0
FC0007E0
FC0007E0
FC0007E0
FC0007E0
FC0007E0
FC000FE0
7C000FC0
7F003FC0
3FFFFFC0
3FFFFF80
1FFFFF00
07FFFE00
00FFF000
ENDCHAR
STARTCHAR 004B
ENCODING 75
SWIDTH 569 0
DWIDTH 41 0
BBX 36 41 5 0
BITMAP
FC00003FC0
FC00007F80
FC0000FF00
FC0001FE00
FC0003FC00
FC0007F800
FC000FF000
FC001FE000
FC003FC000
FC007F8000
FC00FF0000
FC00FE0000
FC01FC0000
FC03F80000
FC07F00000
FC0FE00000
FC1FC00000
FC3F800000
FFFF000000
FFFE000000
FFFE000000
FFFF000000
FC3F800000
FC1FC00000
FC0FE00000
FC07F00000
FC03F80000
FC01FC0000
FC00FE0000
FC007F8000
FC003FC000
FC001FE000
FC000FF000
FC0007F800
FC0003FC00
FC0001FE00
FC0000FF00
FC00007F80
FC00003FC0
FC00001FE0
FC00000FF0
ENDCHAR
STARTCHAR 004C
ENCODING 76
SWIDTH 472 0
DWIDTH 34 0
BBX 28 41 5 0
BITMAP
FC000000
FC000000
FC000000
FC000000
FC000000
FC000000
FC000000
FC000000
FC000000
FC000000
FC000000
FC000000
FC000000
FC000000
FC000000
FC000000
FC000000
FC000000
FC000000
FC000000
FC000000
FC000000
FC000000
FC000000
FC000000
FC000000
FC000000
FC000000
FC000000
FC000000
FC000000
FC000000
FC000000
FC000000
FC000000
FC000000
FFFFFFF0
FFFFFFF0
FFFFFFF0
FFFFFFF0
FFFFFFF0
ENDCHAR
STARTCHAR 004D
ENCODING 77
SWIDTH 791 0
DWIDTH 57 0
BBX 47 41 5 0
BITMAP
FF80000003FE
FFC0000007FE
FFC0000007FE
FFC0000007FE
FFE000000FFE
FFE000000FFE
FDF000001F7E
FDF000001F7E
FDF000003F7E
FCF800003E7E
FCF800003E7E
FC7C00007C7E
FC7C00007C7E
FC7E0000FC7E
FC3E0000F87E
FC3E0000F87E
FC1F0001F07E
FC1F0001F07E
FC0F8003E07E
FC0F8003E07E
FC0F8007E07E
FC07C007C07E
FC07C007C07E
FC03E00F807E
FC03E00F807E
FC03F01F807E
FC01F01F007E
FC01F01F007E
FC00F83E007E
FC00F83E007E
FC007C7E007E
FC007C7C007E
FC007CFC007E
FC003EF8007E
FC003EF8007E
FC001FF0007E
FC001FF0007E
FC001FF0007E
FC000FE0007E
FC000FE0007E
FC0007C0007E
ENDCHAR
STARTCHAR 004E
ENCODING 78
SWIDTH 652 0
DWIDTH 47 0
BBX 37 41 5 0
BITMAP
FF800001F8
FF800001F8
FFC00001F8
FFC00001F8
FFE00001F8
FFF00001F8
FDF00001F8
FDF80001F8
FCFC0001F8
FC7C0001F8
FC7E0001F8
FC3F0001F8
FC1F0001F8
FC1F8001F8
FC0F8001F8
FC07C001F8
FC07E001F8
FC03E001F8
FC03F001F8
FC01F801F8
FC00F801F8
FC00FC01F8
FC007E01F8
FC003E01F8
FC003F01F8
FC001F01F8
FC000F81F8
FC000FC1F8
FC0007C1F8
FC0007E1F8
FC0003F1F8
FC0001F1F8
FC0001F9F8
FC0000FDF8
FC00007DF8
FC00007FF8
FC00003FF8
FC00003FF8
FC00001FF8
FC00000FF8
FC00000FF8
ENDCHAR
STARTCHAR 004F
ENCODING 79
SWIDTH 597 0
DWIDTH 43 0
BBX 37 42 3 0
BITMAP
007FFFE000
03FFFFFE00
0FFFFFFF80
1FFFFFFFC0
3FFFFFFFE0
3FE0001FE0
7F800007F0
7F000003F0
7E000003F0
FE000001F8
FE000001F8
FC000001F8
FC000001F8
FC000001F8
FC000001F8
FC000001F8
FC000001F8
FC000001F8
FC000001F8
FC000001F8
FC000001F8
FC000001F8
FC000001F8
FC000001F8
FC000001F8
FC000001F8
FC000001F8
FC000001F8
FC000001F8
FC000001F8
FC000001F8
FC000001F8
7C000001F8
7E000001F8
7E000003F0
7F000007F0
3FC0001FE0
3FFFFFFFE0
1FFFFFFFC0
0FFFFFFF80
03FFFFFE00
007FFFF000
ENDCHAR
STARTCHAR 0050
ENCODING 80
SWIDTH 555 0
DWIDTH 40 0
BBX 33 41 5 0
BITMAP
FFFFFFC000
FFFFFFF000
FFFFFFF800
FFFFFFFC00
FFFFFFFE00
FC00007F00
FC00003F00
FC00003F00
FC00001F80
FC00001F80
FC00001F80
FC00001F80
FC00001F80
FC00001F80
FC00001F80
FC00001F80
FC00001F80
FC00001F80
FC00003F00
FC0000FF00
FFFFFFFF00
FFFFFFFE00
FFFFFFFC00
FFFFFFF800
FFFFFFC000
FC00000000
FC00000000
FC00000000
FC00000000
FC00000000
FC00000000
FC00000000
FC00000000
FC00000000
FC00000000
FC00000000
FC00000000
FC00000000
FC00000000
FC00000000
FC00000000
ENDCHAR
STARTCHAR 0051
ENCODING 81
SWIDTH 597 0
DWIDTH 43 0
BBX 40 43 3 -1
BITMAP
007FFFE000
03FFFFFE00
0FFFFFFF00
1FFFFFFFC0
3FFFFFFFC0
3FE0001FE0
7F800007F0
7F000003F0
7E000003F0
FE000001F8
FE000001F8
FC000001F8
FC000001F8
FC000001F8
FC000001F8
FC000001F8
FC000001F8
FC000001F8
FC000001F8
FC000001F8
FC000001F8
FC000001F8
FC000001F8
FC000001F8
FC000C01F8
FC001E01F8
FC003F81F8
FC003FC1F8
FC001FF1F8
FC000FF9F8
FC0003FFF8
FC0001FFF8
FC00007FF8
7C00003FF8
7E00000FF8
7E000007FE
7F000007FF
3FC0001FFF
1FFFFFFFFF
1FFFFFFFCE
0FFFFFFF82
03FFFFFE00
007FFFF000
ENDCHAR
STARTCHAR 0052
ENCODING 82
SWIDTH 569 0
DWIDTH 41 0
BBX 33 41 5 0
BITMAP
FFFFFF8000
FFFFFFF000
FFFFFFF800
FFFFFFFC00
FFFFFFFE00
FC0000FF00
FC00003F00
FC00003F00
FC00001F00
FC00001F00
FC00001F00
FC00001F80
FC00001F80
FC00001F00
FC00001F00
FC00001F00
FC00001F00
FC00003F00
FC00007F00
FC0001FE00
FFFFFFFE00
FFFFFFF800
FFFFFFC000
FFFFFFF800
FFFFFFFC00
FC0001FE00
FC00007E00
FC00003F00
FC00003F00
FC00003F00
FC00001F00
FC00001F00
FC00001F00
FC00001F00
FC00001F00
FC00001F00
FC00001F00
FC00001F00
FC00001F00
FC00001F00
FC00001F00
ENDCHAR
STARTCHAR 0053
ENCODING 83
SWIDTH 541 0
DWIDTH 39 0
BBX 33 43 3 -1
BITMAP
01FFFF0000
0FFFFFE000
1FFFFFF000
3FFFFFF800
7FFFFFFC00
7F8001FC00
7E0000FE00
FC00007E00
FC00007E00
FC00003E00
FC00003E00
FC00003E00
FC00003E00
FC00000000
FC00000000
FC00000000
FE00000000
7E00000000
7F80000000
7FFFFF0000
3FFFFFF000
1FFFFFFC00
0FFFFFFE00
01FFFFFF00
0000007F00
0000003F00
0000001F80
0000001F80
0000001F80
FC00001F80
FC00001F80
FC00001F80
FC00001F80
FC00001F80
FC00001F80
FE00003F80
FE00003F00
7F0000FF00
7FFFFFFF00
3FFFFFFE00
1FFFFFFC00
0FFFFFF800
01FFFFE000
ENDCHAR
STARTCHAR 0054
ENCODING 84
SWIDTH 486 0
DWIDTH 35 0
BBX 34 41 1 0
BITMAP
FFFFFFFFC0
FFFFFFFFC0
FFFFFFFFC0
FFFFFFFFC0
FFFFFFFFC0
0003F00000
0003F00000
0003F00000
0003F00000
0003F00000
0003F00000
0003F00000
0003F00000
0003F00000
0003F00000
0003F00000
0003F00000
0003F00000
0003F00000
0003F00000
0003F00000
0003F00000
0003F00000
0003F00000
0003F00000
0003F00000
0003F00000
0003F00000
0003F00000
0003F00000
0003F00000
0003F00000
0003F00000
0003F00000
0003F00000
0003F00000
0003F00000
0003F00000
0003F00000
0003F00000
0003F00000
ENDCHAR
STARTCHAR 0055
ENCODING 85
SWIDTH 611 0
DWIDTH 44 0
BBX 34 42 5 -1
BITMAP
FC00000FC0
FC00000FC0
FC00000FC0
FC00000FC0
FC00000FC0
FC00000FC0
FC00000FC0
FC00000FC0
FC00000FC0
FC00000FC0
FC00000FC0
FC00000FC0
FC00000FC0
FC00000FC0
FC00000FC0
FC00000FC0
FC00000FC0
FC00000FC0
FC00000FC0
FC00000FC0
FC00000FC0
FC00000FC0
FC00000FC0
FC00000FC0
FC00000FC0
FC00000FC0
FC00000FC0
FC00000FC0
FC00000FC0
FC00000FC0
FC00000FC0
FC00000FC0
FC00000FC0
FC00000FC0
FE00000FC0
7F00001F80
7FC0007F80
3FFFFFFF00
3FFFFFFF00
0FFFFFFE00
07FFFFF800
00FFFFC000
ENDCHAR
STARTCHAR 0056
ENCODING 86
SWIDTH 541 0
DWIDTH 39 0
BBX 37 41 1 0
BITMAP
FC000001F8
FC000003F8
FC000003F0
7E000003F0
7E000007E0
3E000007E0
3F000007E0
3F00000FC0
1F80000FC0
1F80000FC0
1F80001F80
0FC0001F80
0FC0001F00
07C0003F00
07E0003F00
07E0007E00
03F0007E00
03F0007E00
03F000FC00
01F800FC00
01F800FC00
01F801F800
00FC01F800
00FC01F000
007C03F000
007E03F000
007E07E000
003F07E000
003F07E000
003F0FC000
001F8FC000
001F8FC000
000F9F8000
000FDF8000
000FDF0000
0007FF0000
0007FF0000
0007FE0000
0003FE0000
0003FE0000
0001FC0000
ENDCHAR
STARTCHAR 0057
ENCODING 87
SWIDTH 875 0
DWIDTH 63 0
BBX 62 41 1 0
BITMAP
F800001FC00000FC
FC00003FE00001F8
FC00003FE00001F8
7C00003FE00001F8
7E00007FF00001F0
7E00007FF00003F0
3E00007DF00003F0
3F00007DF80003E0
3F0000FDF80007E0
3F0000F8F80007E0
1F8000F8F80007C0
1F8001F8FC000FC0
1F8001F07C000FC0
0F8001F07C000FC0
0FC003F07E001F80
0FC003F07E001F80
07C003E03E001F80
07E003E03F001F00
07E007E03F003F00
03E007C01F003F00
03F007C01F003E00
03F00FC01F807E00
01F00F800F807E00
01F00F800F807C00
01F81F800FC0FC00
00F81F800FC0FC00
00F81F0007C0F800
00FC1F0007E1F800
00FC3F0007E1F800
007C3E0003E1F000
007E3E0003E3F000
007E7E0003F3F000
003E7E0003F3E000
003F7C0001F3E000
003FFC0001FFE000
001FFC0001FFC000
001FF80000FFC000
001FF80000FFC000
000FF80000FF8000
000FF000007F8000
000FF000007F8000
ENDCHAR
STARTCHAR 0058
ENCODING 88
SWIDTH 541 0
DWIDTH 39 0
BBX 38 41 0 0
BITMAP
7F000001F8
3F800003F8
1FC00007F0
0FC00007E0
0FE0000FE0
07F0001FC0
03F8001F80
01F8003F80
01FC007F00
00FE00FE00
007E00FC00
007F01FC00
003F83F800
001FC3F000
001FC7F000
000FEFE000
0007FFC000
0003FFC000
0003FF8000
0001FF0000
0001FF0000
0003FF8000
0007FFC000
0007EFE000
000FEFE000
001FC7F000
003F83F800
003F81F800
007F01FC00
00FE00FE00
00FC007E00
01FC007F00
03F8003F80
07F0001F80
07F0001FC0
0FE0000FE0
1FC00007F0
1F800003F0
3F800003F8
7F000001FC
FE000000FC
ENDCHAR
STARTCHAR 0059
ENCODING 89
SWIDTH 527 0
DWIDTH 38 0
BBX 37 41 1 0
BITMAP
FC000003F8
FE000007F0
7F000007E0
3F00000FE0
3F80001FC0
1FC0001F80
0FC0003F80
0FE0007F00
07F0007E00
03F000FE00
03F801FC00
01FC01F800
01FC03F800
00FE07F000
007F07E000
007F0FE000
003F9FC000
001FDF8000
001FFF8000
000FFF0000
0007FE0000
0007FE0000
0003FC0000
0001F80000
0001F80000
0001F80000
0001F80000
0001F80000
0001F80000
0001F80000
0001F80000
0001F80000
0001F80000
0001F80000
0001F80000
0001F80000
0001F80000
0001F80000
0001F80000
0001F80000
0001F80000
ENDCHAR
STARTCHAR 005A
ENCODING 90
SWIDTH 527 0
DWIDTH 38 0
BBX 34 41 2 0
BITMAP
7FFFFFFF80
7FFFFFFF80
7FFFFFFF80
7FFFFFFF80
7FFFFFFF80
0000003F00
0000007F00
000000FE00
000001FC00
000003F800
000007F000
000007E000
00000FE000
00001FC000
00003F8000
00007F0000
0000FE0000
0000FE0000
0001FC0000
0003F80000
0007F00000
000FE00000
000FC00000
001FC00000
003F800000
007F000000
00FE000000
01FC000000
01F8000000
03F8000000
07F0000000
0FE0000000
1FC0000000
3F80000000
3F80000000
7F00000000
FFFFFFFFC0
FFFFFFFFC0
FFFFFFFFC0
FFFFFFFFC0
FFFFFFFFC0
ENDCHAR
STARTCHAR 005B
ENCODING 91
SWIDTH 333 0
DWIDTH 24 0
BBX 14 65 6 -12
BITMAP
FFFC
FFFC
FFFC
FFFC
FFFC
FC00
FC00
FC00
FC00
FC00
FC00
FC00
FC00
FC00
FC00
FC00
FC00
FC00
FC00
FC00
FC00
FC00
FC00
FC00
FC00
FC00
FC00
FC00
FC00
FC00
FC00
FC00
FC00
FC00
FC00
FC00
FC00
FC00
FC00
FC00
FC00
FC00
FC00
FC00
FC00
FC00
FC00
FC00
FC00
FC00
FC00
FC00
FC00
FC00
FC00
FC00
FC00
FC00
FC00
FC00
FFFC
FFFC
FFFC
FFFC
FFFC
ENDCHAR
STARTCHAR 005C
ENCODING 92
SWIDTH 597 0
DWIDTH 43 0
BBX 41 55 1 -7
BITMAP
F00000000000
780000000000
7C0000000000
3C0000000000
1E0000000000
1F0000000000
0F0000000000
078000000000
07C000000000
03E000000000
01E000000000
01F000000000
00F800000000
007800000000
007C00000000
003E00000000
001E00000000
001F00000000
000F80000000
000780000000
0007C0000000
0003E0000000
0001E0000000
0001F0000000
0000F8000000
000078000000
00007C000000
00003E000000
00001E000000
00001F000000
00000F800000
000007800000
000007C00000
000003E00000
000001E00000
000001F00000
000000F80000
000000780000
0000007C0000
0000003E0000
0000001E0000
0000001F0000
0000000F8000
000000078000
00000007C000
00000003E000
00000001E000
00000001F000
00000000F800
000000007800
000000007C00
000000003E00
000000001E00
000000001F00
000000000F80
ENDCHAR
STARTCHAR 005D
ENCODING 93
SWIDTH 333 0
DWIDTH 24 0
BBX 14 65 4 -12
BITMAP
FFFC
FFFC
FFFC
FFFC
FFFC
00FC
00FC
00FC
00FC
00FC
00FC
00FC
00FC
00FC
00FC
00FC
00FC
00FC
00FC
00FC
00FC
00FC
00FC
00FC
00FC
00FC
00FC
00FC
00FC
00FC
00FC
00FC
00FC
00FC
00FC
00FC
00FC
00FC
00FC
00FC
00FC
00FC
00FC
00FC
00FC
00FC
00FC
00FC
00FC
00FC
00FC
00FC
00FC
00FC
00FC
00FC
00FC
00FC
00FC
00FC
FFFC
FFFC
FFFC
FFFC
FFFC
ENDCHAR
STARTCHAR 005E
ENCODING 94
SWIDTH 500 0
DWIDTH 36 0
BBX 30 21 3 27
BITMAP
001FE000
001FE000
003FF000
003FF000
007FF800
00FCFC00
00F87C00
01F87E00
01F03E00
03F03F00
07E01F80
07C00F80
0FC00FC0
0F8007C0
1F8007E0
1F0003F0
3E0001F0
7E0001F8
7C0000F8
FC0000FC
F800007C
ENDCHAR
STARTCHAR 005F
ENCODING 95
SWIDTH 500 0
DWIDTH 36 0
BBX 36 4 0 -9
BITMAP
FFFFFFFFF0
FFFFFFFFF0
FFFFFFFFF0
FFFFFFFFF0
ENDCHAR
STARTCHAR 0060
ENCODING 96
SWIDTH 500 0
DWIDTH 36 0
BBX 13 11 9 47
BITMAP
3000
7800
7E00
FF00
7F80
1FC0
07F0
03F8
00F8
0078
0010
ENDCHAR
STARTCHAR 0061
ENCODING 97
SWIDTH 555 0
DWIDTH 40 0
BBX 38 41 1 0
BITMAP
0001FE0000
0001FE0000
0003FE0000
0003FF0000
0003FF0000
0007FF8000
0007FF8000
000FCF8000
000FCFC000
000FCFC000
001F87C000
001F87E000
001F03E000
003F03F000
003F03F000
007E01F000
007E01F800
007C00F800
00FC00FC00
00FC00FC00
01F8007C00
01F8007E00
01F0003E00
03F0003F00
03F0003F00
03E0001F00
07E0001F80
07FFFFFF80
0FFFFFFF80
0FFFFFFFC0
0FFFFFFFC0
1FFFFFFFE0
1F800007E0
1F000003E0
3F000003F0
3F000003F0
7E000001F8
7E000001F8
7E000000F8
FC000000FC
FC000000FC
ENDCHAR
STARTCHAR 0062
ENCODING 98
SWIDTH 569 0
DWIDTH 41 0
BBX 33 41 5 0
BITMAP
FFFFFFC000
FFFFFFF000
FFFFFFFC00
FFFFFFFE00
FFFFFFFE00
FC0000FE00
FC00007F00
FC00003F00
FC00003F00
FC00003F00
FC00003F00
FC00003F00
FC00003F00
FC00003F00
FC00003F00
FC00007E00
FC0001FE00
FFFFFFFC00
FFFFFFF000
FFFFFFF800
FFFFFFFE00
FFFFFFFE00
FC0000FF00
FC00003F00
FC00003F80
FC00001F80
FC00001F80
FC00001F80
FC00001F80
FC00001F80
FC00001F80
FC00001F80
FC00001F80
FC00001F80
FC00003F00
FC0000FF00
FFFFFFFF00
FFFFFFFE00
FFFFFFFC00
FFFFFFF800
FFFFFFC000
ENDCHAR
STARTCHAR 0063
ENCODING 99
SWIDTH 555 0
DWIDTH 40 0
BBX 35 41 3 0
BITMAP
003FFFF000
03FFFFFE00
07FFFFFF00
1FFFFFFF80
3FFFFFFFC0
3FC0003FC0
7F00000FC0
7E00000FE0
7E000007E0
FC000007E0
FC000007E0
FC000007E0
FC000007E0
FC00000000
FC00000000
FC00000000
FC00000000
FC00000000
FC00000000
FC00000000
FC00000000
FC00000000
FC00000000
FC00000000
FC00000000
FC00000000
FC00000000
FC000007E0
FC000007E0
FC000007E0
FE000007E0
7E000007E0
7E000007E0
7E00000FE0
7F00000FC0
3FC0003FC0
1FFFFFFFC0
1FFFFFFF80
0FFFFFFF00
03FFFFFE00
007FFFF000
ENDCHAR
STARTCHAR 0064
ENCODING 100
SWIDTH 611 0
DWIDTH 44 0
BBX 36 41 5 0
BITMAP
FFFFFFC000
FFFFFFF800
FFFFFFFE00
FFFFFFFF00
FFFFFFFF80
FC00007FC0
FC00001FC0
FC00000FE0
FC000007E0
FC000007E0
FC000007E0
FC000003F0
FC000003F0
FC000003F0
FC000003F0
FC000003F0
FC000003F0
FC000003F0
FC000003F0
FC000003F0
FC000003F0
FC000003F0
FC000003F0
FC000003F0
FC000003F0
FC000003F0
FC000003F0
FC000003F0
FC000003F0
FC000003F0
FC000007E0
FC000007E0
FC000007E0
FC00000FE0
FC00001FC0
FC0000FFC0
FFFFFFFF80
FFFFFFFF00
FFFFFFFE00
FFFFFFF800
FFFFFFC000
ENDCHAR
STARTCHAR 0065
ENCODING 101
SWIDTH 500 0
DWIDTH 36 0
BBX 28 41 5 0
BITMAP
FFFFFFF0
FFFFFFF0
FFFFFFF0
FFFFFFF0
FFFFFFF0
FC000000
FC000000
FC000000
FC000000
FC000000
FC000000
FC000000
FC000000
FC000000
FC000000
FC000000
FC000000
FFFFFFE0
FFFFFFE0
FFFFFFE0
FFFFFFE0
FFFFFFE0
FC000000
FC000000
FC000000
FC000000
FC000000
FC000000
FC000000
FC000000
FC000000
FC000000
FC000000
FC000000
FC000000
FC000000
FFFFFFF0
FFFFFFF0
FFFFFFF0
FFFFFFF0
FFFFFFF0
ENDCHAR
STARTCHAR 0066
ENCODING 102
SWIDTH 472 0
DWIDTH 34 0
BBX 27 41 5 0
BITMAP
FFFFFFE0
FFFFFFE0
FFFFFFE0
FFFFFFE0
FFFFFFE0
FC000000
FC000000
FC000000
FC000000
FC000000
FC000000
FC000000
FC000000
FC000000
FC000000
FC000000
FC000000
FC000000
FFFFFFC0
FFFFFFC0
FFFFFFC0
FFFFFFC0
FFFFFFC0
FC000000
FC000000
FC000000
FC000000
FC000000
FC000000
FC000000
FC000000
FC000000
FC000000
FC000000
FC000000
FC000000
FC000000
FC000000
FC000000
FC000000
FC000000
ENDCHAR
STARTCHAR 0067
ENCODING 103
SWIDTH 583 0
DWIDTH 42 0
BBX 35 41 3 0
BITMAP
007FFFF000
03FFFFFE00
0FFFFFFF00
1FFFFFFF80
3FFFFFFFC0
3FC0001FC0
7F000007E0
7E000007E0
7E000007E0
7E000003E0
FC000003E0
FC000003E0
FC000003E0
FC00000000
FC00000000
FC00000000
FC00000000
FC00000000
FC00000000
FC00000000
FC007FFFE0
FC007FFFE0
FC007FFFE0
FC007FFFE0
FC007FFFE0
FC000007E0
FC000007E0
FC000007E0
FC000007E0
FC000007E0
FC000007E0
FC000007E0
7E000007E0
7E00000FC0
7F00000FC0
3FE0003FC0
3FFFFFFF80
1FFFFFFF80
0FFFFFFF00
03FFFFFC00
007FFFE000
ENDCHAR
STARTCHAR 0068
ENCODING 104
SWIDTH 625 0
DWIDTH 45 0
BBX 35 41 5 0
BITMAP
FC000007E0
FC000007E0
FC000007E0
FC000007E0
FC000007E0
FC000007E0
FC000007E0
FC000007E0
FC000007E0
FC000007E0
FC000007E0
FC000007E0
FC000007E0
FC000007E0
FC000007E0
FC000007E0
FC000007E0
FC000007E0
FFFFFFFFE0
FFFFFFFFE0
FFFFFFFFE0
FFFFFFFFE0
FFFFFFFFE0
FC000007E0
FC000007E0
FC000007E0
FC000007E0
FC000007E0
FC000007E0
FC000007E0
FC000007E0
FC000007E0
FC000007E0
FC000007E0
FC000007E0
FC000007E0
FC000007E0
FC000007E0
FC000007E0
FC000007E0
FC000007E0
ENDCHAR
STARTCHAR 0069
ENCODING 105
SWIDTH 222 0
DWIDTH 16 0
BBX 6 41 5 0
BITMAP
FC
FC
FC
FC
FC
FC
FC
FC
FC
FC
FC
FC
FC
FC
FC
FC
FC
FC
FC
FC
FC
FC
FC
FC
FC
FC
FC
FC
FC
FC
FC
FC
FC
FC
FC
FC
FC
FC
FC
FC
FC
ENDCHAR
STARTCHAR 006A
ENCODING 106
SWIDTH 472 0
DWIDTH 34 0
BBX 27 41 2 0
BITMAP
000007E0
000007E0
000007E0
000007E0
000007E0
000007E0
000007E0
000007E0
000007E0
000007E0
000007E0
000007E0
000007E0
000007E0
000007E0
000007E0
000007E0
000007E0
000007E0
000007E0
000007E0
000007E0
000007E0
000007E0
000007E0
F80007E0
FC0007E0
FC0007E0
FC0007E0
FC0007E0
FC0007E0
FC0007E0
FC0007E0
FC000FE0
FE000FC0
7F003FC0
7FFFFFC0
3FFFFF80
1FFFFF00
0FFFFE00
01FFF000
ENDCHAR
STARTCHAR 006B
ENCODING 107
SWIDTH 569 0
DWIDTH 41 0
BBX 36 41 5 0
BITMAP
FC00003FC0
FC00007F80
FC0000FF00
FC0001FE00
FC0003FC00
FC0007F800
FC000FF000
FC001FE000
FC003FC000
FC007F8000
FC00FF0000
FC01FE0000
FC03FC0000
FC07F80000
FC0FF00000
FC1FE00000
FC3FC00000
FFFF800000
FFFF000000
FFFE000000
FFFF000000
FFFF800000
FC3FC00000
FC1FE00000
FC0FF00000
FC07F80000
FC03FC0000
FC01FE0000
FC00FF0000
FC007F8000
FC003FC000
FC001FE000
FC000FF000
FC0007F800
FC0003FC00
FC0001FE00
FC0000FF00
FC00007F80
FC00003FC0
FC00001FE0
FC00000FF0
ENDCHAR
STARTCHAR 006C
ENCODING 108
SWIDTH 472 0
DWIDTH 34 0
BBX 27 41 5 0
BITMAP
FC000000
FC000000
FC000000
FC000000
FC000000
FC000000
FC000000
FC000000
FC000000
FC000000
FC000000
FC000000
FC000000
FC000000
FC000000
FC000000
FC000000
FC000000
FC000000
FC000000
FC000000
FC000000
FC000000
FC000000
FC000000
FC000000
FC000000
FC000000
FC000000
FC000000
FC000000
FC000000
FC000000
FC000000
FC000000
FC000000
FFFFFFE0
FFFFFFE0
FFFFFFE0
FFFFFFE0
FFFFFFE0
ENDCHAR
STARTCHAR 006D
ENCODING 109
SWIDTH 777 0
DWIDTH 56 0
BBX 46 41 5 0
BITMAP
FF80000007FC
FFC000000FFC
FFC000000FFC
FFC000001FFC
FFE000001FFC
FFE000001FFC
FDF000003EFC
FDF000003EFC
FDF000007EFC
FCF800007CFC
FCF800007CFC
FC7C0000F8FC
FC7C0000F8FC
FC7C0001F8FC
FC3E0001F0FC
FC3E0001F0FC
FC1F0003E0FC
FC1F0003E0FC
FC1F0007E0FC
FC0F8007C0FC
FC0F8007C0FC
FC07C00F80FC
FC07C00F80FC
FC07C00F80FC
FC03E01F00FC
FC03E01F00FC
FC01F03E00FC
FC01F03E00FC
FC01F03E00FC
FC00F87C00FC
FC00F87C00FC
FC007CF800FC
FC007CF800FC
FC007CF800FC
FC003FF000FC
FC003FF000FC
FC001FE000FC
FC001FE000FC
FC001FE000FC
FC000FC000FC
FC000FC000FC
ENDCHAR
STARTCHAR 006E
ENCODING 110
SWIDTH 638 0
DWIDTH 46 0
BBX 36 41 5 0
BITMAP
FF800003F0
FF800003F0
FFC00003F0
FFE00003F0
FFE00003F0
FFF00003F0
FDF00003F0
FDF80003F0
FCFC0003F0
FC7C0003F0
FC7E0003F0
FC3E0003F0
FC3F0003F0
FC1F8003F0
FC0F8003F0
FC0FC003F0
FC07C003F0
FC07E003F0
FC03F003F0
FC01F003F0
FC01F803F0
FC00F803F0
FC00FC03F0
FC007E03F0
FC003E03F0
FC003F03F0
FC001F03F0
FC001F83F0
FC000FC3F0
FC0007C3F0
FC0007E3F0
FC0003E3F0
FC0003F3F0
FC0001FBF0
FC0000FBF0
FC0000FFF0
FC00007FF0
FC00007FF0
FC00003FF0
FC00001FF0
FC00001FF0
ENDCHAR
STARTCHAR 006F
ENCODING 111
SWIDTH 597 0
DWIDTH 43 0
BBX 37 41 3 0
BITMAP
003FFFE000
03FFFFFE00
07FFFFFF00
1FFFFFFFC0
1FFFFFFFC0
3FC0001FE0
7F000007E0
7E000003F0
7E000003F0
7C000001F0
FC000001F8
FC000001F8
FC000001F8
FC000001F8
FC000001F8
FC000001F8
FC000001F8
FC000001F8
FC000001F8
FC000001F8
FC000001F8
FC000001F8
FC000001F8
FC000001F8
FC000001F8
FC000001F8
FC000001F8
FC000001F8
FC000001F8
FC000001F8
FC000001F8
7C000001F0
7E000003F0
7E000003F0
7F000007F0
3FC0001FE0
3FFFFFFFE0
1FFFFFFFC0
0FFFFFFF80
03FFFFFE00
007FFFF000
ENDCHAR
STARTCHAR 0070
ENCODING 112
SWIDTH 541 0
DWIDTH 39 0
BBX 33 41 5 0
BITMAP
FFFFFFC000
FFFFFFF800
FFFFFFFC00
FFFFFFFE00
FFFFFFFE00
FC00007F00
FC00003F00
FC00003F00
FC00001F80
FC00001F80
FC00001F80
FC00001F80
FC00001F80
FC00001F80
FC00001F80
FC00001F80
FC00001F80
FC00003F80
FC00003F00
FC0001FF00
FFFFFFFE00
FFFFFFFE00
FFFFFFFC00
FFFFFFF800
FFFFFFC000
FC00000000
FC00000000
FC00000000
FC00000000
FC00000000
FC00000000
FC00000000
FC00000000
FC00000000
FC00000000
FC00000000
FC00000000
FC00000000
FC00000000
FC00000000
FC00000000
ENDCHAR
STARTCHAR 0071
ENCODING 113
SWIDTH 597 0
DWIDTH 43 0
BBX 40 41 3 0
BITMAP
003FFFE000
03FFFFFE00
07FFFFFF00
1FFFFFFF80
1FFFFFFFC0
3FC0001FE0
7F000007E0
7E000003F0
7E000003F0
7C000003F0
FC000001F8
FC000001F8
FC000001F8
FC000001F8
FC000001F8
FC000001F8
FC000001F8
FC000001F8
FC000001F8
FC000001F8
FC000001F8
FC000001F8
FC000001F8
FC001C01F8
FC001F01F8
FC003F81F8
FC003FE1F8
FC001FF1F8
FC0007FDF8
FC0003FFF8
FC0000FFF8
FC00003FF0
7E00001FF0
7E000007F8
7F000007FE
3FC0001FFF
3FFFFFFFFE
1FFFFFFFDE
0FFFFFFF0C
03FFFFFE00
007FFFF000
ENDCHAR
STARTCHAR 0072
ENCODING 114
SWIDTH 583 0
DWIDTH 42 0
BBX 33 41 5 0
BITMAP
FFFFFF8000
FFFFFFF000
FFFFFFFC00
FFFFFFFE00
FFFFFFFE00
FC0000FF00
FC00003F00
FC00003F80
FC00001F80
FC00001F80
FC00001F80
FC00001F80
FC00001F80
FC00001F80
FC00001F80
FC00001F80
FC00001F80
FC00003F00
FC00007F00
FC0001FF00
FFFFFFFE00
FFFFFFF800
FFFFFFC000
FFFFFFF800
FFFFFFFC00
FC0001FE00
FC00007E00
FC00007F00
FC00003F00
FC00003F00
FC00003F00
FC00003F00
FC00003F00
FC00003F00
FC00003F00
FC00003F00
FC00003F00
FC00003F00
FC00003F00
FC00003F00
FC00003F00
ENDCHAR
STARTCHAR 0073
ENCODING 115
SWIDTH 541 0
DWIDTH 39 0
BBX 32 41 3 0
BITMAP
00FFFF00
07FFFFE0
1FFFFFF8
3FFFFFFC
7FFFFFFC
7F8001FE
7E00007E
FE00003F
FC00003F
FC00003F
FC00003F
FC00003F
FC000000
FC000000
FC000000
FE000000
7F000000
7FF80000
3FFFFFC0
3FFFFFF0
0FFFFFF8
03FFFFFC
0007FFFE
000000FE
0000007F
0000003F
0000003F
0000003F
FC00003F
FC00003F
FC00003F
FC00003F
FC00003F
FC00007F
7E00007E
7F0001FE
7FFFFFFE
3FFFFFFC
1FFFFFF8
0FFFFFF0
01FFFF80
ENDCHAR
STARTCHAR 0074
ENCODING 116
SWIDTH 486 0
DWIDTH 35 0
BBX 33 41 1 0
BITMAP
FFFFFFFF80
FFFFFFFF80
FFFFFFFF80
FFFFFFFF80
FFFFFFFF80
0003F00000
0003F00000
0003F00000
0003F00000
0003F00000
0003F00000
0003F00000
0003F00000
0003F00000
0003F00000
0003F00000
0003F00000
0003F00000
0003F00000
0003F00000
0003F00000
0003F00000
0003F00000
0003F00000
0003F00000
0003F00000
0003F00000
0003F00000
0003F00000
0003F00000
0003F00000
0003F00000
0003F00000
0003F00000
0003F00000
0003F00000
0003F00000
0003F00000
0003F00000
0003F00000
0003F00000
ENDCHAR
STARTCHAR 0075
ENCODING 117
SWIDTH 611 0
DWIDTH 44 0
BBX 34 41 5 0
BITMAP
FC00000FC0
FC00000FC0
FC00000FC0
FC00000FC0
FC00000FC0
FC00000FC0
FC00000FC0
FC00000FC0
FC00000FC0
FC00000FC0
FC00000FC0
FC00000FC0
FC00000FC0
FC00000FC0
FC00000FC0
FC00000FC0
FC00000FC0
FC00000FC0
FC00000FC0
FC00000FC0
FC00000FC0
FC00000FC0
FC00000FC0
FC00000FC0
FC00000FC0
FC00000FC0
FC00000FC0
FC00000FC0
FC00000FC0
FC00000FC0
FC00000FC0
FC00000FC0
FC00000FC0
FE00001FC0
7E00001F80
7F8000FF80
3FFFFFFF00
3FFFFFFF00
1FFFFFFE00
07FFFFF800
00FFFFC000
ENDCHAR
STARTCHAR 0076
ENCODING 118
SWIDTH 541 0
DWIDTH 39 0
BBX 37 41 1 0
BITMAP
FC000001F8
FC000003F8
FC000003F0
7E000003F0
7E000007E0
3E000007E0
3F000007E0
3F00000FC0
1F80000FC0
1F80000FC0
1F80001F80
0FC0001F80
0FC0001F00
07C0003F00
07E0003F00
07E0007E00
03F0007E00
03F0007E00
03F000FC00
01F800FC00
01F800FC00
01F801F800
00FC01F800
00FC01F000
007C03F000
007E03F000
007E07E000
003F07E000
003F07E000
003F0FC000
001F8FC000
001F8FC000
000F9F8000
000FDF8000
000FDF0000
0007FF0000
0007FF0000
0007FE0000
0003FE0000
0003FE0000
0001FC0000
ENDCHAR
STARTCHAR 0077
ENCODING 119
SWIDTH 875 0
DWIDTH 63 0
BBX 62 41 1 0
BITMAP
F800001FC00000FC
FC00003FE00001F8
FC00003FE00001F8
7C00003FE00001F8
7E00007FF00001F0
7E00007FF00003F0
3E00007DF00003F0
3F00007DF80003E0
3F0000FDF80007E0
3F0000F8F80007E0
1F8000F8F80007C0
1F8001F8FC000FC0
1F8001F07C000FC0
0F8001F07C000FC0
0FC003F07E001F80
0FC003F07E001F80
07C003E03E001F80
07E003E03F001F00
07E007E03F003F00
03E007C01F003F00
03F007C01F003E00
03F00FC01F807E00
01F00F800F807E00
01F00F800F807C00
01F81F800FC0FC00
00F81F800FC0FC00
00F81F0007C0F800
00FC1F0007E1F800
00FC3F0007E1F800
007C3E0003E1F000
007E3E0003E3F000
007E7E0003F3F000
003E7E0003F3E000
003F7C0001F3E000
003FFC0001FFE000
001FFC0001FFC000
001FF80000FFC000
001FF80000FFC000
000FF80000FF8000
000FF000007F8000
000FF000007F8000
ENDCHAR
STARTCHAR 0078
ENCODING 120
SWIDTH 541 0
DWIDTH 39 0
BBX 38 41 0 0
BITMAP
7F000001F8
3F800003F8
1FC00007F0
0FC00007E0
0FE0000FE0
07F0001FC0
03F8001F80
01F8003F80
01FC007F00
00FE00FE00
007E00FC00
007F01FC00
003F83F800
001FC3F000
001FC7F000
000FEFE000
0007FFC000
0003FFC000
0003FF8000
0001FF0000
0001FF0000
0003FF8000
0007FFC000
0007EFE000
000FEFE000
001FC7F000
003F83F800
003F81F800
007F01FC00
00FE00FE00
00FC007E00
01FC007F00
03F8003F80
07F0001F80
07F0001FC0
0FE0000FE0
1FC00007F0
1F800003F0
3F800003F8
7F000001FC
FE000000FC
ENDCHAR
STARTCHAR 0079
ENCODING 121
SWIDTH 527 0
DWIDTH 38 0
BBX 37 41 1 0
BITMAP
FC000003F8
FE000007F0
7F000007E0
3F00000FE0
3F80001FC0
1FC0001F80
0FC0003F80
0FE0007F00
07F0007E00
03F000FE00
03F801FC00
01FC01F800
01FC03F800
00FE07F000
007F07E000
007F0FE000
003F9FC000
001FDF8000
001FFF8000
000FFF0000
0007FE0000
0007FE0000
0003FC0000
0001F80000
0001F80000
0001F80000
0001F80000
0001F80000
0001F80000
0001F80000
0001F80000
0001F80000
0001F80000
0001F80000
0001F80000
0001F80000
0001F80000
0001F80000
0001F80000
0001F80000
0001F80000
ENDCHAR
STARTCHAR 007A
ENCODING 122
SWIDTH 527 0
DWIDTH 38 0
BBX 34 41 2 0
BITMAP
7FFFFFFF80
7FFFFFFF80
7FFFFFFF80
7FFFFFFF80
7FFFFFFF80
0000007F00
0000007E00
000000FE00
000001FC00
000003F800
000007F000
00000FE000
00000FE000
00001FC000
00003F8000
00007F0000
0000FE0000
0000FC0000
0001FC0000
0003F80000
0007F00000
000FE00000
001FC00000
001FC00000
003F800000
007F000000
00FE000000
01FC000000
03F8000000
03F8000000
07F0000000
0FE0000000
1FC0000000
3F80000000
7F80000000
7F00000000
FFFFFFFFC0
FFFFFFFFC0
FFFFFFFFC0
FFFFFFFFC0
FFFFFFFFC0
ENDCHAR
STARTCHAR 007B
ENCODING 123
SWIDTH 333 0
DWIDTH 24 0
BBX 17 65 2 -12
BITMAP
003F80
00FF80
03FF80
03FF80
07FF80
07F000
0FC000
0FC000
0F8000
0F8000
0F8000
0F8000
0F8000
0F8000
0F8000
0F8000
0F8000
0F8000
0F8000
0F8000
0F8000
0F8000
0F8000
0F8000
0F8000
0F8000
0F8000
1F8000
1F0000
3F0000
FE0000
FC0000
F00000
FC0000
FE0000
7F0000
1F0000
1F0000
0F8000
0F8000
0F8000
0F8000
0F8000
0F8000
0F8000
0F8000
0F8000
0F8000
0F8000
0F8000
0F8000
0F8000
0F8000
0F8000
0F8000
0F8000
0F8000
0FC000
0FE000
07F800
07FF80
03FF80
03FF80
00FF80
003F80
ENDCHAR
STARTCHAR 007C
ENCODING 124
SWIDTH 291 0
DWIDTH 21 0
BBX 6 60 7 -12
BITMAP
FC
FC
FC
FC
FC
FC
FC
FC
FC
FC
FC
FC
FC
FC
FC
FC
FC
FC
FC
FC
FC
FC
FC
FC
FC
FC
FC
FC
FC
FC
FC
FC
FC
FC
FC
FC
FC
FC
FC
FC
FC
FC
FC
FC
FC
FC
FC
FC
FC
FC
FC
FC
FC
FC
FC
FC
FC
FC
FC
FC
ENDCHAR
STARTCHAR 007D
ENCODING 125
SWIDTH 319 0
DWIDTH 23 0
BBX 18 65 4 -12
BITMAP
FC0000
FF8000
FFC000
FFC000
FFE000
0FE000
07E000
03F000
01F000
01F000
01F000
01F000
01F000
01F000
01F000
01F000
01F000
01F000
01F000
01F000
01F000
01F000
01F000
01F000
01F000
01F000
01F800
01F800
00FC00
00FF00
007FC0
003FC0
000FC0
003FC0
007FC0
00FF00
00FC00
01F800
01F800
01F000
01F000
01F000
01F000
01F000
01F000
01F000
01F000
01F000
01F000
01F000
01F000
01F000
01F000
01F000
01F000
01F000
01F000
03F000
03F000
07E000
FFE000
FFE000
FFC000
FF8000
FE0000
ENDCHAR
STARTCHAR 007E
ENCODING 126
SWIDTH 666 0
DWIDTH 48 0
BBX 34 10 7 42
BITMAP
01F0000100
07FE0003C0
1FFF8007C0
1FFFE00F80
3FFFFC1F80
7E0FFFFF00
FC01FFFE00
F8007FFC00
70001FF800
200003E000
ENDCHAR
STARTCHAR 00A0
ENCODING 160
SWIDTH 305 0
DWIDTH 22 0
BBX 0 0 0 0
BITMAP
ENDCHAR
STARTCHAR 00A1
ENCODING 161
SWIDTH 263 0
DWIDTH 19 0
BBX 7 48 6 -7
BITMAP
FE
FE
FE
FE
FE
FE
FE
00
00
00
00
00
00
00
7C
7C
7C
7C
7C
7E
7E
7E
7E
FE
FE
FE
FE
FE
FE
FE
FE
FE
FE
FE
FE
FE
FE
FE
FE
FE
FE
FE
FE
FE
FE
FE
FE
FE
ENDCHAR
STARTCHAR 00A2
ENCODING 162
SWIDTH 486 0
DWIDTH 35 0
BBX 27 38 4 0
BITMAP
001F0000
001F0000
001F0000
001F0000
01FFF000
0FFFFE00
1FFFFF00
3FFFFF80
3F1F1F80
7E1F0FC0
7C1F07C0
7C1F07C0
F81F07C0
F81F07C0
F81F0000
F81F0000
F81F0000
F81F0000
F81F0000
F81F0000
F81F0000
F81F0000
F81F07E0
F81F07E0
F81F07E0
FC1F07C0
7C1F07C0
7E1F07C0
7F1F0FC0
3FFFFF80
1FFFFF80
0FFFFF00
07FFFC00
003F8000
001F0000
001F0000
001F0000
001F0000
ENDCHAR
STARTCHAR 00A3
ENCODING 163
SWIDTH 527 0
DWIDTH 38 0
BBX 33 42 2 0
BITMAP
000FFFC000
007FFFF800
00FFFFFC00
01FFFFFE00
03FFFFFF00
03FC007F00
03F0001F80
07E0000F80
07E0000F80
07E0000F80
07E0000F80
07E0000F80
07E0000F80
07E0000000
07E0000000
07E0000000
07E0000000
07E0000000
07E0000000
07E0000000
07E0000000
FFFFFC0000
FFFFFC0000
FFFFFC0000
FFFFFC0000
FFFFFC0000
07E0000000
07E0000000
07E0000000
07E0000000
07E0000000
07E0000000
07E0000000
07E0000000
0FC0000000
0FC0000000
1F80000000
7FFFFFFF80
7FFFFFFF80
7FFFFFFF80
7FFFFFFF80
7FFFFFFF80
ENDCHAR
STARTCHAR 00A4
ENCODING 164
SWIDTH 652 0
DWIDTH 47 0
BBX 39 40 4 0
BITMAP
2000000008
700000001C
F80000003E
FC00FE007E
7E07FFC0FC
3F1FFFF1F8
1FBFFFFBF0
0FFF01FFE0
07FC007FC0
03F8003F80
03F0001F80
07E0000FC0
07C00007C0
0FC00007E0
0F800003E0
0F800003E0
1F000001F0
1F000001F0
1F000001F0
1F000001F0
1F000001F0
1F000001F0
1F000001F0
1F000001F0
0F800003E0
0F800003E0
0F800007E0
07C00007C0
07E0000FC0
03F0001F80
03F8003F80
07FC007FC0
0FFF01FFE0
1FBFFFF9F0
3F1FFFF0F8
7E07FFC07C
FC00FE003E
F80000001E
700000000C
2000000000
ENDCHAR
STARTCHAR 00A5
ENCODING 165
SWIDTH 513 0
DWIDTH 37 0
BBX 34 42 1 0
BITMAP
FE00000FC0
7E00001FC0
3F00001F80
3F00003F80
1F80003F00
1FC0007E00
0FC000FE00
07E000FC00
07E001FC00
03F001F800
03F003F000
01F807F000
01FC07E000
1FFC0FFF00
1FFE0FFF00
1FFE1FFF00
1FFF1FFF00
1FFF3FFF00
001FFF0000
001FFE0000
000FFE0000
000FFC0000
0007F80000
1FFFFFFF00
1FFFFFFF00
1FFFFFFF00
1FFFFFFF00
1FFFFFFF00
0003F00000
0003F00000
0003F00000
0003F00000
0003F00000
0003F00000
0003F00000
0003F00000
0003F00000
0003F00000
0003F00000
0003F00000
0003F00000
0003F00000
ENDCHAR
STARTCHAR 00A6
ENCODING 166
SWIDTH 291 0
DWIDTH 21 0
BBX 6 60 7 -12
BITMAP
FC
FC
FC
FC
FC
FC
FC
FC
FC
FC
FC
FC
FC
FC
FC
FC
FC
FC
FC
FC
FC
FC
FC
FC
00
00
00
00
00
00
00
00
00
00
00
00
00
FC
FC
FC
FC
FC
FC
FC
FC
FC
FC
FC
FC
FC
FC
FC
FC
FC
FC
FC
FC
FC
FC
FC
ENDCHAR
STARTCHAR 00A7
ENCODING 167
SWIDTH 569 0
DWIDTH 41 0
BBX 35 62 3 -14
BITMAP
003FFFC000
01FFFFF800
07FFFFFE00
07FFFFFF00
0FFFFFFF00
0FE000FF00
1F80001F80
1F00001F80
1F00000F80
1F00000F80
1F00000F80
1F00000F80
1F00000000
1F00000000
1F00000000
1F80000000
0FC0000000
0FF8000000
07FF800000
03FFF00000
0FFFFF0000
3FFFFFE000
7E0FFFFC00
7C00FFFF00
7C000FFF80
F80001FFC0
F800003FC0
F800000FE0
F8000007E0
F8000003E0
F8000003E0
F8000003E0
FC000003E0
7E000003E0
7FE00003E0
7FFE0007C0
3FFFC007C0
1FFFFC0F80
07FFFFFF00
00FFFFFE00
000FFFFC00
0000FFFF00
00000FFF80
000001FF80
0000003F80
0000000FC0
0000000FC0
00000007C0
00000007C0
7C000007C0
7C000007C0
7C000007C0
7E000007C0
7E00000FC0
7E00000FC0
3F00001F80
3FE0003F80
1FFFFFFF00
1FFFFFFF00
0FFFFFFE00
03FFFFFC00
007FFFC000
ENDCHAR
STARTCHAR 00A8
ENCODING 168
SWIDTH 500 0
DWIDTH 36 0
BBX 22 5 7 48
BITMAP
FE01FC
FE01FC
FE01FC
FE01FC
FE01FC
ENDCHAR
STARTCHAR 00A9
ENCODING 169
SWIDTH 750 0
DWIDTH 54 0
BBX 49 48 2 0
BITMAP
00000FFC000000
0000FFFF800000
0003FFFFE00000
000FFFFFF80000
003FF007FE0000
007F8000FF0000
00FE00003F8000
01F800000FC000
03F0000007E000
07C0000001F000
0F801FFF00F800
0F00FFFFC07800
1F01FFFFE07C00
3E03E003E03E00
3C03C001F01E00
3C078000F01E00
78078000F01F00
78078000F00F00
78078000F00F00
F8078000000F80
F0078000000780
F0078000000780
F0078000000780
F0078000000780
F0078000000780
F0078000000780
F0078000000780
F0078000000780
F0078000F00F80
78078000F00F00
78078000F00F00
78078000F00F00
3C03C000F01E00
3C03C001F01E00
3E03E003F03E00
1F01FFFFE07C00
0F00FFFFC07800
0F803FFF00F800
07C0000001F000
03F0000007E000
01F800000FC000
00FC00001F8000
007F8000FF0000
003FF007FE0000
000FFFFFF80000
0003FFFFE00000
0000FFFF800000
00000FF8000000
ENDCHAR
STARTCHAR 00AA
ENCODING 170
SWIDTH 375 0
DWIDTH 27 0
BBX 22 25 2 17
BITMAP
03FF80
1FFFE0
3FFFF0
3F01F8
3C00F8
7C007C
7C007C
7C007C
00007C
00007C
07FE7C
3FFFFC
7FFFFC
7FFFFC
FC01FC
F8007C
F8007C
F8007C
F8007C
F8007C
FC01FC
7FFFFC
7FFFFC
3FFFFC
07FE7C
ENDCHAR
STARTCHAR 00AB
ENCODING 171
SWIDTH 472 0
DWIDTH 34 0
BBX 26 33 4 3
BITMAP
01000400
01C00600
01F00F80
03F00F80
03E01F80
07E01F00
07C03F00
0FC03E00
0F807E00
1F807C00
1F00FC00
3F00F800
3E01F800
7E01F000
7C03F000
FC03E000
F807E000
FC03E000
7C03F000
7E01F000
3E01F800
3F00F800
1F00FC00
1F807C00
0F807E00
0FC03E00
07C03F00
07E01F00
03E01F80
01F00F80
01F007C0
00F00780
00C00300
ENDCHAR
STARTCHAR 00AC
ENCODING 172
SWIDTH 500 0
DWIDTH 36 0
BBX 32 20 2 0
BITMAP
FFFFFFFF
FFFFFFFF
FFFFFFFF
FFFFFFFF
FFFFFFFF
0000003F
0000003F
0000003F
0000003F
0000003F
0000003F
0000003F
0000003F
0000003F
0000003F
0000003F
0000003F
0000003F
0000003F
0000003F
ENDCHAR
STARTCHAR 00AD
ENCODING 173
SWIDTH 250 0
DWIDTH 18 0
BBX 16 5 1 17
BITMAP
FFFF
FFFF
FFFF
FFFF
FFFF
ENDCHAR
STARTCHAR 00AE
ENCODING 174
SWIDTH 750 0
DWIDTH 54 0
BBX 49 48 2 0
BITMAP
00000FFC000000
0000FFFF800000
0003FFFFE00000
000FFFFFF80000
003FF007FE0000
007F8000FF0000
00FE00003F8000
01F800000FC000
03F0000007E000
07C0000001F000
0F83FFFE00F800
0F03FFFF807800
1F03FFFFC07C00
3E03FFFFC03E00
3C03C007E01E00
3C03C001E01E00
7803C001E01F00
7803C001E00F00
7803C001E00F00
F803C001E00F80
F003C001E00780
F003C003E00780
F003C007C00780
F003FFFFC00780
F003FFFF800780
F003FFFF000780
F003FFFFC00780
F003C007C00780
F003C003E00F80
7803C001E00F00
7803C001E00F00
7803C001E00F00
3C03C001E01E00
3C03C001E01E00
3E03C001E03E00
1F03C001E07C00
0F03C001E07800
0F80000000F800
07C0000001F000
03F0000007E000
01F800000FC000
00FC00001F8000
007F8000FF0000
003FF007FE0000
000FFFFFF80000
0003FFFFE00000
0000FFFF800000
00000FF8000000
ENDCHAR
STARTCHAR 00AF
ENCODING 175
SWIDTH 500 0
DWIDTH 36 0
BBX 36 4 0 53
BITMAP
FFFFFFFFF0
FFFFFFFFF0
FFFFFFFFF0
FFFFFFFFF0
ENDCHAR
STARTCHAR 00B0
ENCODING 176
SWIDTH 375 0
DWIDTH 27 0
BBX 19 19 4 29
BITMAP
01F800
0FFE00
1FFF00
3E0F80
7C07C0
7803C0
F803E0
F001E0
F001E0
F001E0
F001E0
F001E0
F803E0
7803C0
7C07C0
3E0F80
1FFF00
0FFE00
03F800
ENDCHAR
STARTCHAR 00B1
ENCODING 177
SWIDTH 527 0
DWIDTH 38 0
BBX 34 40 2 0
BITMAP
0003E00000
0003E00000
0003E00000
0003E00000
0003E00000
0003E00000
0003E00000
0003E00000
0003E00000
0003E00000
0003E00000
0003E00000
FFFFFFFFC0
FFFFFFFFC0
FFFFFFFFC0
FFFFFFFFC0
FFFFFFFFC0
0003E00000
0003E00000
0003E00000
0003E00000
0003E00000
0003E00000
0003E00000
0003E00000
0003E00000
0003E00000
0003E00000
0003E00000
0003E00000
0000000000
0000000000
0000000000
0000000000
0000000000
FFFFFFFFC0
FFFFFFFFC0
FFFFFFFFC0
FFFFFFFFC0
FFFFFFFFC0
ENDCHAR
STARTCHAR 00B2
ENCODING 178
SWIDTH 416 0
DWIDTH 30 0
BBX 23 30 3 12
BITMAP
03FF80
1FFFF0
3FFFF8
7FFFFC
7E00FC
F8007E
F8003E
F8003E
F8003E
F8003E
F8003E
00003E
00003E
00007E
0001FC
007FFC
0FFFF8
3FFFF0
7FFFC0
7FF800
FC0000
F80000
F80000
F80000
F80000
F80000
FFFFFE
FFFFFE
FFFFFE
FFFFFE
ENDCHAR
STARTCHAR 00B3
ENCODING 179
SWIDTH 416 0
DWIDTH 30 0
BBX 24 30 2 12
BITMAP
03FFE0
1FFFF8
3FFFFE
7FFFFE
7E003F
7C001F
7C001F
7C001F
7C001F
7C001F
00001F
00003E
007FFE
007FFC
007FF8
007FFE
007FFE
00003F
00001F
F8001F
F8001F
F8001F
F8001F
F8001F
F8001F
7C007E
7FFFFE
3FFFFC
1FFFF8
03FFE0
ENDCHAR
STARTCHAR 00B4
ENCODING 180
SWIDTH 500 0
DWIDTH 36 0
BBX 13 11 14 47
BITMAP
0060
00F0
03F0
07F8
0FF0
3FC0
7F00
FE00
F800
F000
4000
ENDCHAR
STARTCHAR 00B5
ENCODING 181
SWIDTH 597 0
DWIDTH 43 0
BBX 33 46 5 -10
BITMAP
FC00001F80
FC00001F80
FC00001F80
FC00001F80
FC00001F80
FC00001F80
FC00001F80
FC00001F80
FC00001F80
FC00001F80
FC00001F80
FC00001F80
FC00001F80
FC00001F80
FC00001F80
FC00001F80
FC00001F80
FC00001F80
FC00001F80
FC00001F80
FC00001F80
FC00001F80
FC00001F80
FC00001F80
FC00001F80
FC00001F80
FC00001F80
FC00001F80
FE00003F80
FE00003F00
FF8001FF00
FFFFFFFF00
FFFFFFFE00
FFFFFFFC00
F7FFFFF000
F0FFFF8000
F000000000
F000000000
F000000000
F000000000
F000000000
F800000000
F800000000
F800000000
F800000000
F800000000
ENDCHAR
STARTCHAR 00B6
ENCODING 182
SWIDTH 611 0
DWIDTH 44 0
BBX 36 55 3 -7
BITMAP
007FFFFFF0
03FFFFFFF0
07FFFFFFF0
0FFFFFFFF0
1FFFFFFFF0
3FFFFF03F0
3FFFFF03F0
7FFFFF03F0
7FFFFF03F0
7FFFFF03F0
FFFFFF03F0
FFFFFF03F0
FFFFFF03F0
FFFFFF03F0
FFFFFF03F0
FFFFFF03F0
FFFFFF03F0
FFFFFF03F0
FFFFFF03F0
FFFFFF03F0
FFFFFF03F0
FFFFFF03F0
FFFFFF03F0
7FFFFF03F0
7FFFFF03F0
7FFFFF03F0
3FFFFF03F0
3FFFFF03F0
1FFFFF03F0
0FFFFF03F0
07FFFF03F0
01FFFF03F0
003FFF03F0
00003F03F0
00003F03F0
00003F03F0
00003F03F0
00003F03F0
00003F03F0
00003F03F0
00003F03F0
00003F03F0
00003F03F0
00003F03F0
00003F03F0
00003F03F0
00003F03F0
00003F03F0
00003F03F0
00003F03F0
00003F03F0
00003F03F0
00003F03F0
00003F03F0
00003F03F0
ENDCHAR
STARTCHAR 00B7
ENCODING 183
SWIDTH 208 0
DWIDTH 15 0
BBX 7 7 4 17
BITMAP
FE
FE
FE
FE
FE
FE
FE
ENDCHAR
STARTCHAR 00B8
ENCODING 184
SWIDTH 500 0
DWIDTH 36 0
BBX 11 13 13 -14
BITMAP
01E0
01E0
01E0
01E0
01E0
03E0
03E0
0FC0
FFC0
FF80
FF80
FE00
F800
ENDCHAR
STARTCHAR 00B9
ENCODING 185
SWIDTH 416 0
DWIDTH 30 0
BBX 15 30 8 12
BITMAP
00FE
01FE
03FE
07FE
0FFE
1FBE
3F3E
7E3E
FC3E
F83E
703E
203E
003E
003E
003E
003E
003E
003E
003E
003E
003E
003E
003E
003E
003E
003E
003E
003E
003E
003E
ENDCHAR
STARTCHAR 00BA
ENCODING 186
SWIDTH 388 0
DWIDTH 28 0
BBX 22 25 3 17
BITMAP
07FF00
1FFFE0
3FFFF0
7FFFF8
7E01F8
7C00F8
F8007C
F8007C
F8007C
F8007C
F8007C
F8007C
F8007C
F8007C
F8007C
F8007C
F8007C
F8007C
F800FC
7C00F8
7E01F8
7FFFF8
3FFFF0
1FFFE0
03FF80
ENDCHAR
STARTCHAR 00BB
ENCODING 187
SWIDTH 472 0
DWIDTH 34 0
BBX 26 33 5 3
BITMAP
00004000
3800C000
F803E000
FC03E000
7C03F000
7E01F000
3E01F800
3F00F800
1F00FC00
1F807C00
0F807E00
0FC03E00
07C03F00
07E01F00
03E01F80
03F00F80
01F00FC0
03F00F80
03E01F80
07E01F00
07C03F00
0FC03E00
0F807E00
1F807C00
1F00FC00
3F00F800
3E01F800
7E01F000
7C03F000
F803E000
F807C000
F003C000
30018000
ENDCHAR
STARTCHAR 00BC
ENCODING 188
SWIDTH 958 0
DWIDTH 69 0
BBX 63 42 3 0
BITMAP
00FE000001F00000
01FE000003E00000
03FE000003C00000
07FE000007C00000
0FFE000007800000
1FBE00000F800000
3F3E00001F000000
7E3E00001F000000
FC3E00003E000000
F83E00003E000000
703E00007C000000
203E000078000000
003E0000F8001FC0
003E0000F0003FC0
003E0001F0007FC0
003E0003E000FFC0
003E0003E000FFC0
003E0007C001FFC0
003E0007C003F7C0
003E000F8007E7C0
003E000F000FC7C0
003E001F001F87C0
003E001E001F07C0
003E003E003F07C0
003E007C007E07C0
003E007C00FC07C0
003E00F801F807C0
003E00F803F007C0
003E01F003E007C0
003E01E007C007C0
000003E00FC007C0
000003C00FFFFFFE
000007C00FFFFFFE
00000F800FFFFFFE
00000F800FFFFFFE
00001F00000007C0
00001F00000007C0
00003E00000007C0
00003C00000007C0
00007C00000007C0
00007800000007C0
0000F800000007C0
ENDCHAR
STARTCHAR 00BD
ENCODING 189
SWIDTH 944 0
DWIDTH 68 0
BBX 62 42 3 0
BITMAP
00FE000007C00000
01FE00000F800000
03FE00000F800000
07FE00001F000000
0FFE00001E000000
1FBE00003E000000
3F3E00007C000000
7E3E00007C000000
FC3E0000F8000000
F83E0000F8000000
703E0001F0000000
203E0001F0000000
003E0003E007FF00
003E0003C03FFFE0
003E0007C07FFFF0
003E000F80FFFFF8
003E000F81FC01F8
003E001F01F000FC
003E001F01F0007C
003E003E01F0007C
003E003C01F0007C
003E007C01F0007C
003E00F801F0007C
003E00F80000007C
003E01F00000007C
003E01F0000000FC
003E03E0000003F8
003E03E00001FFF8
003E07C0001FFFF0
003E0780007FFFE0
00000F8000FFFF80
00001F0000FFF000
00001F0001FC0000
00003E0001F80000
00003E0001F00000
00007C0001F00000
0000780001F00000
0000F80001F00000
0000F00001FFFFFC
0001F00001FFFFFC
0003E00001FFFFFC
0003E00001FFFFFC
ENDCHAR
STARTCHAR 00BE
ENCODING 190
SWIDTH 944 0
DWIDTH 68 0
BBX 64 42 2 0
BITMAP
03FFE000007C0000
1FFFF80000F80000
3FFFFE0000F80000
7FFFFE0001F00000
7E003F0001E00000
7C001F0003E00000
7C001F0003C00000
7C001F0007C00000
7C001F0007800000
7C001F000F800000
00001F001F000000
00003F001F000000
007FFE003E0007F0
007FFC003E000FF0
007FF8007C001FF0
007FFE0078001FF0
007FFE00F8003FF0
00003F00F0007DF0
00001F01F000F9F0
F8001F03E001F9F0
F8001F03E003F1F0
F8001F07C007E1F0
F8001F07C007C1F0
F8001F0F800F81F0
F8001F0F001F01F0
7C007E1F003F01F0
7FFFFE1E007E01F0
3FFFFC3E00FC01F0
1FFFF83C00F801F0
03FFE07C01F001F0
000000F803F001F0
000000F803FFFFFF
000001F003FFFFFF
000001F003FFFFFF
000003E003FFFFFF
000003C0000001F0
000007C0000001F0
00000780000001F0
00000F80000001F0
00000F00000001F0
00001F00000001F0
00003E00000001F0
ENDCHAR
STARTCHAR 00BF
ENCODING 191
SWIDTH 472 0
DWIDTH 34 0
BBX 25 49 5 -7
BITMAP
001FC000
001FC000
001FC000
001FC000
001FC000
001FC000
001FC000
00000000
00000000
00000000
00000000
00000000
00000000
00000000
001F8000
001F8000
001F8000
001F8000
001F8000
001F8000
001F8000
001F8000
001F8000
007F8000
01FF0000
07FF0000
1FFE0000
3FFC0000
7FE00000
7F000000
FC000000
FC000000
F8000000
F8000000
F8000000
F8000000
F8000F80
F8000F80
F8000F80
F8000F80
F8000F80
F8000F80
FC001F80
FE003F00
7FFFFF00
7FFFFE00
3FFFFE00
0FFFF800
03FFE000
ENDCHAR
STARTCHAR 00C0
ENCODING 192
SWIDTH 555 0
DWIDTH 40 0
BBX 38 57 1 1
BITMAP
000C000000
001E000000
001F800000
003FC00000
001FE00000
0007F00000
0001FC0000
0000FE0000
00003E0000
00001E0000
0000040000
0000000000
0000000000
0000000000
0000000000
0000000000
0001FE0000
0001FE0000
0003FE0000
0003FF0000
0003FF0000
0007FF8000
0007FF8000
000FCF8000
000FCFC000
000FCFC000
001F87C000
001F87E000
001F03E000
003F03F000
003F03F000
007E01F000
007E01F800
007C00F800
00FC00FC00
00FC00FC00
01F8007C00
01F8007E00
01F0003E00
03F0003F00
03F0003F00
03E0001F00
07E0001F80
07FFFFFF80
0FFFFFFF80
0FFFFFFFC0
0FFFFFFFC0
1FFFFFFFE0
1F800007E0
1F000003E0
3F000003F0
3F000003F0
7E000001F8
7E000001F8
7E000000F8
FC000000FC
FC000000FC
ENDCHAR
STARTCHAR 00C1
ENCODING 193
SWIDTH 555 0
DWIDTH 40 0
BBX 38 57 1 1
BITMAP
000000C000
000001E000
000007E000
00000FF000
00001FE000
00007F8000
0000FE0000
0001FC0000
0001F00000
0001E00000
0000800000
0000000000
0000000000
0000000000
0000000000
0000000000
0001FE0000
0001FE0000
0003FE0000
0003FF0000
0003FF0000
0007FF8000
0007FF8000
000FCF8000
000FCFC000
000FCFC000
001F87C000
001F87E000
001F03E000
003F03F000
003F03F000
007E01F000
007E01F800
007C00F800
00FC00FC00
00FC00FC00
01F8007C00
01F8007E00
01F0003E00
03F0003F00
03F0003F00
03E0001F00
07E0001F80
07FFFFFF80
0FFFFFFF80
0FFFFFFFC0
0FFFFFFFC0
1FFFFFFFE0
1F800007E0
1F000003E0
3F000003F0
3F000003F0
7E000001F8
7E000001F8
7E000000F8
FC000000FC
FC000000FC
ENDCHAR
STARTCHAR 00C2
ENCODING 194
SWIDTH 555 0
DWIDTH 40 0
BBX 38 57 1 0
BITMAP
0000300000
0000780000
0000FC0000
0001FE0000
0007FF8000
000FCFC000
001F87E000
007F01F800
007C00F800
0078007800
0020001000
0000000000
0000000000
0000000000
0000000000
0000000000
0001FE0000
0001FE0000
0003FE0000
0003FF0000
0003FF0000
0007FF8000
0007FF8000
000FCF8000
000FCFC000
000FCFC000
001F87C000
001F87E000
001F03E000
003F03F000
003F03F000
007E01F000
007E01F800
007C00F800
00FC00FC00
00FC00FC00
01F8007C00
01F8007E00
01F0003E00
03F0003F00
03F0003F00
03E0001F00
07E0001F80
07FFFFFF80
0FFFFFFF80
0FFFFFFFC0
0FFFFFFFC0
1FFFFFFFE0
1F800007E0
1F000003E0
3F000003F0
3F000003F0
7E000001F8
7E000001F8
7E000000F8
FC000000FC
FC000000FC
ENDCHAR
STARTCHAR 00C3
ENCODING 195
SWIDTH 555 0
DWIDTH 40 0
BBX 38 54 1 1
BITMAP
000F801000
003FE03C00
007FFC7C00
007FFFF800
00F8FFF000
00701FE000
000007C000
0000000000
0000000000
0000000000
0000000000
0000000000
0000000000
0001FE0000
0001FE0000
0003FE0000
0003FF0000
0003FF0000
0007FF8000
0007FF8000
000FCF8000
000FCFC000
000FCFC000
001F87C000
001F87E000
001F03E000
003F03F000
003F03F000
007E01F000
007E01F800
007C00F800
00FC00FC00
00FC00FC00
01F8007C00
01F8007E00
01F0003E00
03F0003F00
03F0003F00
03E0001F00
07E0001F80
07FFFFFF80
0FFFFFFF80
0FFFFFFFC0
0FFFFFFFC0
1FFFFFFFE0
1F800007E0
1F000003E0
3F000003F0
3F000003F0
7E000001F8
7E000001F8
7E000000F8
FC000000FC
FC000000FC
ENDCHAR
STARTCHAR 00C4
ENCODING 196
SWIDTH 555 0
DWIDTH 40 0
BBX 38 53 1 0
BITMAP
00FE01FC00
00FE01FC00
00FE01FC00
00FE01FC00
00FE01FC00
0000000000
0000000000
0000000000
0000000000
0000000000
0000000000
0000000000
0001FE0000
0001FE0000
0003FE0000
0003FF0000
0003FF0000
0007FF8000
0007FF8000
000FCF8000
000FCFC000
000FCFC000
001F87C000
001F87E000
001F03E000
003F03F000
003F03F000
007E01F000
007E01F800
007C00F800
00FC00FC00
00FC00FC00
01F8007C00
01F8007E00
01F0003E00
03F0003F00
03F0003F00
03E0001F00
07E0001F80
07FFFFFF80
0FFFFFFF80
0FFFFFFFC0
0FFFFFFFC0
1FFFFFFFE0
1F800007E0
1F000003E0
3F000003F0
3F000003F0
7E000001F8
7E000001F8
7E000000F8
FC000000FC
FC000000FC
ENDCHAR
STARTCHAR 00C5
ENCODING 197
SWIDTH 555 0
DWIDTH 40 0
BBX 38 58 1 0
BITMAP
0000780000
0001FE0000
0003FF0000
0003870000
0007878000
0007038000
0007038000
0007038000
0007878000
0003870000
0003FF0000
0001FE0000
0000780000
0000000000
0000000000
0000000000
0000000000
0001FE0000
0001FE0000
0003FE0000
0003FF0000
0003FF0000
0007FF8000
0007FF8000
000FCF8000
000FCFC000
000FCFC000
001F87C000
001F87E000
001F03E000
003F03F000
003F03F000
007E01F000
007E01F800
007C00F800
00FC00FC00
00FC00FC00
01F8007C00
01F8007E00
01F0003E00
03F0003F00
03F0003F00
03E0001F00
07E0001F80
07FFFFFF80
0FFFFFFF80
0FFFFFFFC0
0FFFFFFFC0
1FFFFFFFE0
1F800007E0
1F000003E0
3F000003F0
3F000003F0
7E000001F8
7E000001F8
7E000000F8
FC000000FC
FC000000FC
ENDCHAR
STARTCHAR 00C6
ENCODING 198
SWIDTH 847 0
DWIDTH 61 0
BBX 56 41 1 0
BITMAP
000003FFFFFFFF
000003FFFFFFFF
000007FFFFFFFF
00000FFFFFFFFF
00000FFFFFFFFF
00001F87E00000
00001F87E00000
00003F07E00000
00003F07E00000
00007E07E00000
0000FE07E00000
0000FC07E00000
0001FC07E00000
0001F807E00000
0003F807E00000
0003F007E00000
0007F007E00000
0007E007FFFFFE
000FC007FFFFFE
001FC007FFFFFE
001F8007FFFFFE
003F8007FFFFFE
003F0007E00000
007F0007E00000
007E0007E00000
00FE0007E00000
00FC0007E00000
01FC0007E00000
03FFFFFFE00000
03FFFFFFE00000
07FFFFFFE00000
07FFFFFFE00000
0FFFFFFFE00000
0FC00007E00000
1FC00007E00000
1F800007E00000
3F800007FFFFFF
7F000007FFFFFF
7F000007FFFFFF
FE000007FFFFFF
FC000007FFFFFF
ENDCHAR
STARTCHAR 00C7
ENCODING 199
SWIDTH 569 0
DWIDTH 41 0
BBX 35 56 3 -14
BITMAP
007FFFF000
03FFFFFC00
0FFFFFFF00
1FFFFFFF80
3FFFFFFF80
7F80003FC0
7F00000FC0
FE00000FE0
FE000007E0
FC000007E0
FC000007E0
FC000007E0
FC000007E0
FC000007E0
FC00000000
FC00000000
FC00000000
FC00000000
FC00000000
FC00000000
FC00000000
FC00000000
FC00000000
FC00000000
FC00000000
FC00000000
FC00000000
FC00000000
FC000007E0
FC000007E0
FC000007E0
FC000007E0
FE000007E0
FE000007E0
7E000007E0
7E00000FE0
7F00000FC0
3FC0007FC0
3FFFFFFFC0
1FFFFFFF80
0FFFFFFF00
03FFFFFE00
00FFFFF000
00001E0000
00001E0000
00001E0000
00001E0000
00001E0000
00003E0000
00003E0000
0000FC0000
000FFC0000
000FFC0000
000FF80000
000FF00000
000F800000
ENDCHAR
STARTCHAR 00C8
ENCODING 200
SWIDTH 500 0
DWIDTH 36 0
BBX 28 57 5 1
BITMAP
01800000
03C00000
03F00000
07F80000
03FC0000
00FE0000
003F8000
001FC000
0007C000
0003C000
00008000
00000000
00000000
00000000
00000000
00000000
FFFFFFF0
FFFFFFF0
FFFFFFF0
FFFFFFF0
FFFFFFF0
FC000000
FC000000
FC000000
FC000000
FC000000
FC000000
FC000000
FC000000
FC000000
FC000000
FC000000
FC000000
FFFFFFE0
FFFFFFE0
FFFFFFE0
FFFFFFE0
FFFFFFE0
FC000000
FC000000
FC000000
FC000000
FC000000
FC000000
FC000000
FC000000
FC000000
FC000000
FC000000
FC000000
FC000000
FC000000
FFFFFFF0
FFFFFFF0
FFFFFFF0
FFFFFFF0
FFFFFFF0
ENDCHAR
STARTCHAR 00C9
ENCODING 201
SWIDTH 500 0
DWIDTH 36 0
BBX 28 57 5 1
BITMAP
00001800
00003C00
0000FC00
0001FE00
0003FC00
000FF000
001FC000
003F8000
003E0000
003C0000
00100000
00000000
00000000
00000000
00000000
00000000
FFFFFFF0
FFFFFFF0
FFFFFFF0
FFFFFFF0
FFFFFFF0
FC000000
FC000000
FC000000
FC000000
FC000000
FC000000
FC000000
FC000000
FC000000
FC000000
FC000000
FC000000
FFFFFFE0
FFFFFFE0
FFFFFFE0
FFFFFFE0
FFFFFFE0
FC000000
FC000000
FC000000
FC000000
FC000000
FC000000
FC000000
FC000000
FC000000
FC000000
FC000000
FC000000
FC000000
FC000000
FFFFFFF0
FFFFFFF0
FFFFFFF0
FFFFFFF0
FFFFFFF0
ENDCHAR
STARTCHAR 00CA
ENCODING 202
SWIDTH 500 0
DWIDTH 36 0
BBX 28 57 5 0
BITMAP
00060000
000F0000
001F8000
003FC000
00FFF000
01F9F800
03F0FC00
0FE03F00
0F801F00
0F000F00
04000200
00000000
00000000
00000000
00000000
00000000
FFFFFFF0
FFFFFFF0
FFFFFFF0
FFFFFFF0
FFFFFFF0
FC000000
FC000000
FC000000
FC000000
FC000000
FC000000
FC000000
FC000000
FC000000
FC000000
FC000000
FC000000
FFFFFFE0
FFFFFFE0
FFFFFFE0
FFFFFFE0
FFFFFFE0
FC000000
FC000000
FC000000
FC000000
FC000000
FC000000
FC000000
FC000000
FC000000
FC000000
FC000000
FC000000
FC000000
FC000000
FFFFFFF0
FFFFFFF0
FFFFFFF0
FFFFFFF0
FFFFFFF0
ENDCHAR
STARTCHAR 00CB
ENCODING 203
SWIDTH 500 0
DWIDTH 36 0
BBX 28 53 5 0
BITMAP
1FC03F80
1FC03F80
1FC03F80
1FC03F80
1FC03F80
00000000
00000000
00000000
00000000
00000000
00000000
00000000
FFFFFFF0
FFFFFFF0
FFFFFFF0
FFFFFFF0
FFFFFFF0
FC000000
FC000000
FC000000
FC000000
FC000000
FC000000
FC000000
FC000000
FC000000
FC000000
FC000000
FC000000
FFFFFFE0
FFFFFFE0
FFFFFFE0
FFFFFFE0
FFFFFFE0
FC000000
FC000000
FC000000
FC000000
FC000000
FC000000
FC000000
FC000000
FC000000
FC000000
FC000000
FC000000
FC000000
FC000000
FFFFFFF0
FFFFFFF0
FFFFFFF0
FFFFFFF0
FFFFFFF0
ENDCHAR
STARTCHAR 00CC
ENCODING 204
SWIDTH 222 0
DWIDTH 16 0
BBX 13 57 -1 1
BITMAP
3000
7800
7E00
FF00
7F80
1FC0
07F0
03F8
00F8
0078
0010
0000
0000
0000
0000
0000
03F0
03F0
03F0
03F0
03F0
03F0
03F0
03F0
03F0
03F0
03F0
03F0
03F0
03F0
03F0
03F0
03F0
03F0
03F0
03F0
03F0
03F0
03F0
03F0
03F0
03F0
03F0
03F0
03F0
03F0
03F0
03F0
03F0
03F0
03F0
03F0
03F0
03F0
03F0
03F0
03F0
ENDCHAR
STARTCHAR 00CD
ENCODING 205
SWIDTH 222 0
DWIDTH 16 0
BBX 13 57 4 1
BITMAP
0060
00F0
03F0
07F8
0FF0
3FC0
7F00
FE00
F800
F000
4000
0000
0000
0000
0000
0000
7E00
7E00
7E00
7E00
7E00
7E00
7E00
7E00
7E00
7E00
7E00
7E00
7E00
7E00
7E00
7E00
7E00
7E00
7E00
7E00
7E00
7E00
7E00
7E00
7E00
7E00
7E00
7E00
7E00
7E00
7E00
7E00
7E00
7E00
7E00
7E00
7E00
7E00
7E00
7E00
7E00
ENDCHAR
STARTCHAR 00CE
ENCODING 206
SWIDTH 222 0
DWIDTH 16 0
BBX 21 57 -3 0
BITMAP
002000
007800
00FC00
03FE00
07FF00
0FDFC0
1F87E0
7F03F0
FC01F8
780078
300030
000000
000000
000000
000000
000000
00FC00
00FC00
00FC00
00FC00
00FC00
00FC00
00FC00
00FC00
00FC00
00FC00
00FC00
00FC00
00FC00
00FC00
00FC00
00FC00
00FC00
00FC00
00FC00
00FC00
00FC00
00FC00
00FC00
00FC00
00FC00
00FC00
00FC00
00FC00
00FC00
00FC00
00FC00
00FC00
00FC00
00FC00
00FC00
00FC00
00FC00
00FC00
00FC00
00FC00
00FC00
ENDCHAR
STARTCHAR 00CF
ENCODING 207
SWIDTH 222 0
DWIDTH 16 0
BBX 16 53 0 0
BITMAP
FE7F
FE7F
FE7F
FE7F
FE7F
0000
0000
0000
0000
0000
0000
0000
07E0
07E0
07E0
07E0
07E0
07E0
07E0
07E0
07E0
07E0
07E0
07E0
07E0
07E0
07E0
07E0
07E0
07E0
07E0
07E0
07E0
07E0
07E0
07E0
07E0
07E0
07E0
07E0
07E0
07E0
07E0
07E0
07E0
07E0
07E0
07E0
07E0
07E0
07E0
07E0
07E0
ENDCHAR
STARTCHAR 00D0
ENCODING 208
SWIDTH 625 0
DWIDTH 45 0
BBX 40 41 2 0
BITMAP
0FFFFFFC00
0FFFFFFF80
0FFFFFFFE0
0FFFFFFFF0
0FFFFFFFF8
0FC00007FC
0FC00001FC
0FC00000FE
0FC000007E
0FC000007E
0FC000003E
0FC000003F
0FC000003F
0FC000003F
0FC000003F
0FC000003F
0FC000003F
0FC000003F
FFFFF8003F
FFFFF8003F
FFFFF8003F
FFFFF8003F
0FC000003F
0FC000003F
0FC000003F
0FC000003F
0FC000003F
0FC000003F
0FC000003F
0FC000003F
0FC000007F
0FC000007F
0FC000007E
0FC00000FE
0FC00001FE
0FC00007FC
0FFFFFFFF8
0FFFFFFFF8
0FFFFFFFE0
0FFFFFFFC0
0FFFFFFE00
ENDCHAR
STARTCHAR 00D1
ENCODING 209
SWIDTH 638 0
DWIDTH 46 0
BBX 36 54 5 1
BITMAP
001F002000
007FC07800
00FFF8F800
00FFFFF000
01F1FFE000
00E03FC000
00000F8000
0000000000
0000000000
0000000000
0000000000
0000000000
0000000000
FF800003F0
FF800003F0
FFC00003F0
FFE00003F0
FFE00003F0
FFF00003F0
FDF00003F0
FDF80003F0
FCFC0003F0
FC7C0003F0
FC7E0003F0
FC3E0003F0
FC3F0003F0
FC1F8003F0
FC0F8003F0
FC0FC003F0
FC07C003F0
FC07E003F0
FC03F003F0
FC01F003F0
FC01F803F0
FC00F803F0
FC00FC03F0
FC007E03F0
FC003E03F0
FC003F03F0
FC001F03F0
FC001F83F0
FC000FC3F0
FC0007C3F0
FC0007E3F0
FC0003E3F0
FC0003F3F0
FC0001FBF0
FC0000FBF0
FC0000FFF0
FC00007FF0
FC00007FF0
FC00003FF0
FC00001FF0
FC00001FF0
ENDCHAR
STARTCHAR 00D2
ENCODING 210
SWIDTH 597 0
DWIDTH 43 0
BBX 37 57 3 1
BITMAP
0018000000
003C000000
003F000000
007F800000
003FC00000
000FE00000
0003F80000
0001FC0000
00007C0000
00003C0000
0000080000
0000000000
0000000000
0000000000
0000000000
0000000000
003FFFE000
03FFFFFE00
07FFFFFF00
1FFFFFFFC0
1FFFFFFFC0
3FC0001FE0
7F000007E0
7E000003F0
7E000003F0
7C000001F0
FC000001F8
FC000001F8
FC000001F8
FC000001F8
FC000001F8
FC000001F8
FC000001F8
FC000001F8
FC000001F8
FC000001F8
FC000001F8
FC000001F8
FC000001F8
FC000001F8
FC000001F8
FC000001F8
FC000001F8
FC000001F8
FC000001F8
FC000001F8
FC000001F8
7C000001F0
7E000003F0
7E000003F0
7F000007F0
3FC0001FE0
3FFFFFFFE0
1FFFFFFFC0
0FFFFFFF80
03FFFFFE00
007FFFF000
ENDCHAR
STARTCHAR 00D3
ENCODING 211
SWIDTH 597 0
DWIDTH 43 0
BBX 37 57 3 1
BITMAP
0000018000
000003C000
00000FC000
00001FE000
00003FC000
0000FF0000
0001FC0000
0003F80000
0003E00000
0003C00000
0001000000
0000000000
0000000000
0000000000
0000000000
0000000000
003FFFE000
03FFFFFE00
07FFFFFF00
1FFFFFFFC0
1FFFFFFFC0
3FC0001FE0
7F000007E0
7E000003F0
7E000003F0
7C000001F0
FC000001F8
FC000001F8
FC000001F8
FC000001F8
FC000001F8
FC000001F8
FC000001F8
FC000001F8
FC000001F8
FC000001F8
FC000001F8
FC000001F8
FC000001F8
FC000001F8
FC000001F8
FC000001F8
FC000001F8
FC000001F8
FC000001F8
FC000001F8
FC000001F8
7C000001F0
7E000003F0
7E000003F0
7F000007F0
3FC0001FE0
3FFFFFFFE0
1FFFFFFFC0
0FFFFFFF80
03FFFFFE00
007FFFF000
ENDCHAR
STARTCHAR 00D4
ENCODING 212
SWIDTH 597 0
DWIDTH 43 0
BBX 37 57 3 0
BITMAP
0000600000
0000F00000
0001F80000
0003FC0000
000FFF0000
001F9F8000
003F0FC000
00FE03F000
00F801F000
00F000F000
0040002000
0000000000
0000000000
0000000000
0000000000
0000000000
003FFFE000
03FFFFFE00
07FFFFFF00
1FFFFFFFC0
1FFFFFFFC0
3FC0001FE0
7F000007E0
7E000003F0
7E000003F0
7C000001F0
FC000001F8
FC000001F8
FC000001F8
FC000001F8
FC000001F8
FC000001F8
FC000001F8
FC000001F8
FC000001F8
FC000001F8
FC000001F8
FC000001F8
FC000001F8
FC000001F8
FC000001F8
FC000001F8
FC000001F8
FC000001F8
FC000001F8
FC000001F8
FC000001F8
7C000001F0
7E000003F0
7E000003F0
7F000007F0
3FC0001FE0
3FFFFFFFE0
1FFFFFFFC0
0FFFFFFF80
03FFFFFE00
007FFFF000
ENDCHAR
STARTCHAR 00D5
ENCODING 213
SWIDTH 597 0
DWIDTH 43 0
BBX 37 54 3 1
BITMAP
001F002000
007FC07800
00FFF8F800
00FFFFF000
01F1FFE000
00E03FC000
00000F8000
0000000000
0000000000
0000000000
0000000000
0000000000
0000000000
003FFFE000
03FFFFFE00
07FFFFFF00
1FFFFFFFC0
1FFFFFFFC0
3FC0001FE0
7F000007E0
7E000003F0
7E000003F0
7C000001F0
FC000001F8
FC000001F8
FC000001F8
FC000001F8
FC000001F8
FC000001F8
FC000001F8
FC000001F8
FC000001F8
FC000001F8
FC000001F8
FC000001F8
FC000001F8
FC000001F8
FC000001F8
FC000001F8
FC000001F8
FC000001F8
FC000001F8
FC000001F8
FC000001F8
7C000001F0
7E000003F0
7E000003F0
7F000007F0
3FC0001FE0
3FFFFFFFE0
1FFFFFFFC0
0FFFFFFF80
03FFFFFE00
007FFFF000
ENDCHAR
STARTCHAR 00D6
ENCODING 214
SWIDTH 597 0
DWIDTH 43 0
BBX 37 53 3 0
BITMAP
01FC03F800
01FC03F800
01FC03F800
01FC03F800
01FC03F800
0000000000
0000000000
0000000000
0000000000
0000000000
0000000000
0000000000
003FFFE000
03FFFFFE00
07FFFFFF00
1FFFFFFFC0
1FFFFFFFC0
3FC0001FE0
7F000007E0
7E000003F0
7E000003F0
7C000001F0
FC000001F8
FC000001F8
FC000001F8
FC000001F8
FC000001F8
FC000001F8
FC000001F8
FC000001F8
FC000001F8
FC000001F8
FC000001F8
FC000001F8
FC000001F8
FC000001F8
FC000001F8
FC000001F8
FC000001F8
FC000001F8
FC000001F8
FC000001F8
FC000001F8
7C000001F0
7E000003F0
7E000003F0
7F000007F0
3FC0001FE0
3FFFFFFFE0
1FFFFFFFC0
0FFFFFFF80
03FFFFFE00
007FFFF000
ENDCHAR
STARTCHAR 00D7
ENCODING 215
SWIDTH 527 0
DWIDTH 38 0
BBX 30 30 4 5
BITMAP
30000030
78000078
FC0000FC
FE0001FC
7F0003F8
3F8007F0
1FC00FE0
0FE01FC0
07F03F80
03F87F00
01FCFE00
00FFFC00
007FF800
003FF000
001FE000
001FE000
003FF000
007FF800
00FFFC00
01FCFE00
03F87F00
07F03F80
0FE01FC0
1FC00FE0
3F8007F0
7F0003F8
FE0001FC
FC0000F8
78000070
30000020
ENDCHAR
STARTCHAR 00D8
ENCODING 216
SWIDTH 555 0
DWIDTH 40 0
BBX 36 44 2 -2
BITMAP
0000000010
00FFFFC030
03FFFFFC70
0FFFFFFEF0
1FFFFFFFF0
3FFFFFFFF0
3FC0001FE0
7F00000FE0
7E00000FE0
7C00001FE0
FC00003FE0
FC00007FF0
FC0000FFF0
FC0000FBF0
FC0001F3F0
FC0003E3F0
FC0007C3F0
FC000F83F0
FC001F03F0
FC003E03F0
FC007C03F0
FC00F803F0
FC01F003F0
FC03E003F0
FC07C003F0
FC078003F0
FC0F8003F0
FC1F0003F0
FC3E0003F0
FC7C0003F0
FCF80003F0
FDF00003F0
FFE00003F0
FFC00003F0
7F800003F0
7F000007E0
7F00000FE0
7F80003FC0
FFFFFFFFC0
FFFFFFFF80
F7FFFFFF00
E3FFFFFC00
C07FFFE000
8000000000
ENDCHAR
STARTCHAR 00D9
ENCODING 217
SWIDTH 611 0
DWIDTH 44 0
BBX 34 57 5 1
BITMAP
0030000000
0078000000
007E000000
00FF000000
007F800000
001FC00000
0007F00000
0003F80000
0000F80000
0000780000
0000100000
0000000000
0000000000
0000000000
0000000000
0000000000
FC00000FC0
FC00000FC0
FC00000FC0
FC00000FC0
FC00000FC0
FC00000FC0
FC00000FC0
FC00000FC0
FC00000FC0
FC00000FC0
FC00000FC0
FC00000FC0
FC00000FC0
FC00000FC0
FC00000FC0
FC00000FC0
FC00000FC0
FC00000FC0
FC00000FC0
FC00000FC0
FC00000FC0
FC00000FC0
FC00000FC0
FC00000FC0
FC00000FC0
FC00000FC0
FC00000FC0
FC00000FC0
FC00000FC0
FC00000FC0
FC00000FC0
FC00000FC0
FC00000FC0
FE00001FC0
7E00001F80
7F8000FF80
3FFFFFFF00
3FFFFFFF00
1FFFFFFE00
07FFFFF800
00FFFFC000
ENDCHAR
STARTCHAR 00DA
ENCODING 218
SWIDTH 611 0
DWIDTH 44 0
BBX 34 57 5 1
BITMAP
0000030000
0000078000
00001F8000
00003FC000
00007F8000
0001FE0000
0003F80000
0007F00000
0007C00000
0007800000
0002000000
0000000000
0000000000
0000000000
0000000000
0000000000
FC00000FC0
FC00000FC0
FC00000FC0
FC00000FC0
FC00000FC0
FC00000FC0
FC00000FC0
FC00000FC0
FC00000FC0
FC00000FC0
FC00000FC0
FC00000FC0
FC00000FC0
FC00000FC0
FC00000FC0
FC00000FC0
FC00000FC0
FC00000FC0
FC00000FC0
FC00000FC0
FC00000FC0
FC00000FC0
FC00000FC0
FC00000FC0
FC00000FC0
FC00000FC0
FC00000FC0
FC00000FC0
FC00000FC0
FC00000FC0
FC00000FC0
FC00000FC0
FC00000FC0
FE00001FC0
7E00001F80
7F8000FF80
3FFFFFFF00
3FFFFFFF00
1FFFFFFE00
07FFFFF800
00FFFFC000
ENDCHAR
STARTCHAR 00DB
ENCODING 219
SWIDTH 611 0
DWIDTH 44 0
BBX 34 57 5 0
BITMAP
0000C00000
0001E00000
0003F00000
0007F80000
001FFE0000
003F3F0000
007E1F8000
01FC07E000
01F003E000
01E001E000
0080004000
0000000000
0000000000
0000000000
0000000000
0000000000
FC00000FC0
FC00000FC0
FC00000FC0
FC00000FC0
FC00000FC0
FC00000FC0
FC00000FC0
FC00000FC0
FC00000FC0
FC00000FC0
FC00000FC0
FC00000FC0
FC00000FC0
FC00000FC0
FC00000FC0
FC00000FC0
FC00000FC0
FC00000FC0
FC00000FC0
FC00000FC0
FC00000FC0
FC00000FC0
FC00000FC0
FC00000FC0
FC00000FC0
FC00000FC0
FC00000FC0
FC00000FC0
FC00000FC0
FC00000FC0
FC00000FC0
FC00000FC0
FC00000FC0
FE00001FC0
7E00001F80
7F8000FF80
3FFFFFFF00
3FFFFFFF00
1FFFFFFE00
07FFFFF800
00FFFFC000
ENDCHAR
STARTCHAR 00DC
ENCODING 220
SWIDTH 611 0
DWIDTH 44 0
BBX 34 53 5 0
BITMAP
03F807F000
03F807F000
03F807F000
03F807F000
03F807F000
0000000000
0000000000
0000000000
0000000000
0000000000
0000000000
0000000000
FC00000FC0
FC00000FC0
FC00000FC0
FC00000FC0
FC00000FC0
FC00000FC0
FC00000FC0
FC00000FC0
FC00000FC0
FC00000FC0
FC00000FC0
FC00000FC0
FC00000FC0
FC00000FC0
FC00000FC0
FC00000FC0
FC00000FC0
FC00000FC0
FC00000FC0
FC00000FC0
FC00000FC0
FC00000FC0
FC00000FC0
FC00000FC0
FC00000FC0
FC00000FC0
FC00000FC0
FC00000FC0
FC00000FC0
FC00000FC0
FC00000FC0
FC00000FC0
FC00000FC0
FE00001FC0
7E00001F80
7F8000FF80
3FFFFFFF00
3FFFFFFF00
1FFFFFFE00
07FFFFF800
00FFFFC000
ENDCHAR
STARTCHAR 00DD
ENCODING 221
SWIDTH 527 0
DWIDTH 38 0
BBX 37 57 1 1
BITMAP
0000018000
000003C000
00000FC000
00001FE000
00003FC000
0000FF0000
0001FC0000
0003F80000
0003E00000
0003C00000
0001000000
0000000000
0000000000
0000000000
0000000000
0000000000
FC000003F8
FE000007F0
7F000007E0
3F00000FE0
3F80001FC0
1FC0001F80
0FC0003F80
0FE0007F00
07F0007E00
03F000FE00
03F801FC00
01FC01F800
01FC03F800
00FE07F000
007F07E000
007F0FE000
003F9FC000
001FDF8000
001FFF8000
000FFF0000
0007FE0000
0007FE0000
0003FC0000
0001F80000
0001F80000
0001F80000
0001F80000
0001F80000
0001F80000
0001F80000
0001F80000
0001F80000
0001F80000
0001F80000
0001F80000
0001F80000
0001F80000
0001F80000
0001F80000
0001F80000
0001F80000
ENDCHAR
STARTCHAR 00DE
ENCODING 222
SWIDTH 555 0
DWIDTH 40 0
BBX 33 41 5 0
BITMAP
FC00000000
FC00000000
FC00000000
FC00000000
FC00000000
FC00000000
FC00000000
FC00000000
FFFFFFC000
FFFFFFF000
FFFFFFFC00
FFFFFFFC00
FFFFFFFE00
FC00007F00
FC00003F00
FC00003F00
FC00001F80
FC00001F80
FC00001F80
FC00001F80
FC00001F80
FC00001F80
FC00001F80
FC00001F80
FC00001F80
FC00001F80
FC00003F00
FC0000FF00
FFFFFFFF00
FFFFFFFE00
FFFFFFFC00
FFFFFFF800
FFFFFFC000
FC00000000
FC00000000
FC00000000
FC00000000
FC00000000
FC00000000
FC00000000
FC00000000
ENDCHAR
STARTCHAR 00DF
ENCODING 223
SWIDTH 541 0
DWIDTH 39 0
BBX 31 45 4 -3
BITMAP
03FFFE00
0FFFFFC0
1FFFFFE0
3FFFFFF0
7FFFFFF8
7F0003F8
7C0001FC
F80000FC
F80000FC
F80000FC
F80000FC
F80000FC
F80000FC
F80000FC
F80000FC
F80000FC
F80001F8
F80003F8
F81FFFF0
F81FFFE0
F81FFF80
F81FFFF0
F81FFFF8
F80001FC
F80000FC
F80000FE
F800007E
F800007E
F800007E
F800007E
F800007E
F800007E
F800007E
F800007E
F80000FC
F80000FC
F80003FC
F81FFFF8
F81FFFF0
F81FFFE0
F81FFF80
F81FF800
F8000000
F8000000
F8000000
ENDCHAR
STARTCHAR 00E0
ENCODING 224
SWIDTH 555 0
DWIDTH 40 0
BBX 38 57 1 1
BITMAP
000C000000
001E000000
001F800000
003FC00000
001FE00000
0007F00000
0001FC0000
0000FE0000
00003E0000
00001E0000
0000040000
0000000000
0000000000
0000000000
0000000000
0000000000
0001FE0000
0001FE0000
0003FE0000
0003FF0000
0003FF0000
0007FF8000
0007FF8000
000FCF8000
000FCFC000
000FCFC000
001F87C000
001F87E000
001F03E000
003F03F000
003F03F000
007E01F000
007E01F800
007C00F800
00FC00FC00
00FC00FC00
01F8007C00
01F8007E00
01F0003E00
03F0003F00
03F0003F00
03E0001F00
07E0001F80
07FFFFFF80
0FFFFFFF80
0FFFFFFFC0
0FFFFFFFC0
1FFFFFFFE0
1F800007E0
1F000003E0
3F000003F0
3F000003F0
7E000001F8
7E000001F8
7E000000F8
FC000000FC
FC000000FC
ENDCHAR
STARTCHAR 00E1
ENCODING 225
SWIDTH 555 0
DWIDTH 40 0
BBX 38 57 1 1
BITMAP
000000C000
000001E000
000007E000
00000FF000
00001FE000
00007F8000
0000FE0000
0001FC0000
0001F00000
0001E00000
0000800000
0000000000
0000000000
0000000000
0000000000
0000000000
0001FE0000
0001FE0000
0003FE0000
0003FF0000
0003FF0000
0007FF8000
0007FF8000
000FCF8000
000FCFC000
000FCFC000
001F87C000
001F87E000
001F03E000
003F03F000
003F03F000
007E01F000
007E01F800
007C00F800
00FC00FC00
00FC00FC00
01F8007C00
01F8007E00
01F0003E00
03F0003F00
03F0003F00
03E0001F00
07E0001F80
07FFFFFF80
0FFFFFFF80
0FFFFFFFC0
0FFFFFFFC0
1FFFFFFFE0
1F800007E0
1F000003E0
3F000003F0
3F000003F0
7E000001F8
7E000001F8
7E000000F8
FC000000FC
FC000000FC
ENDCHAR
STARTCHAR 00E2
ENCODING 226
SWIDTH 555 0
DWIDTH 40 0
BBX 38 57 1 0
BITMAP
0000300000
0000780000
0000FC0000
0001FE0000
0007FF8000
000FCFC000
001F87E000
007F01F800
007C00F800
0078007800
0020001000
0000000000
0000000000
0000000000
0000000000
0000000000
0001FE0000
0001FE0000
0003FE0000
0003FF0000
0003FF0000
0007FF8000
0007FF8000
000FCF8000
000FCFC000
000FCFC000
001F87C000
001F87E000
001F03E000
003F03F000
003F03F000
007E01F000
007E01F800
007C00F800
00FC00FC00
00FC00FC00
01F8007C00
01F8007E00
01F0003E00
03F0003F00
03F0003F00
03E0001F00
07E0001F80
07FFFFFF80
0FFFFFFF80
0FFFFFFFC0
0FFFFFFFC0
1FFFFFFFE0
1F800007E0
1F000003E0
3F000003F0
3F000003F0
7E000001F8
7E000001F8
7E000000F8
FC000000FC
FC000000FC
ENDCHAR
STARTCHAR 00E3
ENCODING 227
SWIDTH 555 0
DWIDTH 40 0
BBX 38 54 1 1
BITMAP
000F801000
003FE03C00
007FFC7C00
007FFFF800
00F8FFF000
00701FE000
000007C000
0000000000
0000000000
0000000000
0000000000
0000000000
0000000000
0001FE0000
0001FE0000
0003FE0000
0003FF0000
0003FF0000
0007FF8000
0007FF8000
000FCF8000
000FCFC000
000FCFC000
001F87C000
001F87E000
001F03E000
003F03F000
003F03F000
007E01F000
007E01F800
007C00F800
00FC00FC00
00FC00FC00
01F8007C00
01F8007E00
01F0003E00
03F0003F00
03F0003F00
03E0001F00
07E0001F80
07FFFFFF80
0FFFFFFF80
0FFFFFFFC0
0FFFFFFFC0
1FFFFFFFE0
1F800007E0
1F000003E0
3F000003F0
3F000003F0
7E000001F8
7E000001F8
7E000000F8
FC000000FC
FC000000FC
ENDCHAR
STARTCHAR 00E4
ENCODING 228
SWIDTH 555 0
DWIDTH 40 0
BBX 38 53 1 0
BITMAP
00FE01FC00
00FE01FC00
00FE01FC00
00FE01FC00
00FE01FC00
0000000000
0000000000
0000000000
0000000000
0000000000
0000000000
0000000000
0001FE0000
0001FE0000
0003FE0000
0003FF0000
0003FF0000
0007FF8000
0007FF8000
000FCF8000
000FCFC000
000FCFC000
001F87C000
001F87E000
001F03E000
003F03F000
003F03F000
007E01F000
007E01F800
007C00F800
00FC00FC00
00FC00FC00
01F8007C00
01F8007E00
01F0003E00
03F0003F00
03F0003F00
03E0001F00
07E0001F80
07FFFFFF80
0FFFFFFF80
0FFFFFFFC0
0FFFFFFFC0
1FFFFFFFE0
1F800007E0
1F000003E0
3F000003F0
3F000003F0
7E000001F8
7E000001F8
7E000000F8
FC000000FC
FC000000FC
ENDCHAR
STARTCHAR 00E5
ENCODING 229
SWIDTH 555 0
DWIDTH 40 0
BBX 38 58 1 0
BITMAP
0000780000
0001FE0000
0003FF0000
0003870000
0007878000
0007038000
0007038000
0007038000
0007878000
0003870000
0003FF0000
0001FE0000
0000780000
0000000000
0000000000
0000000000
0000000000
0001FE0000
0001FE0000
0003FE0000
0003FF0000
0003FF0000
0007FF8000
0007FF8000
000FCF8000
000FCFC000
000FCFC000
001F87C000
001F87E000
001F03E000
003F03F000
003F03F000
007E01F000
007E01F800
007C00F800
00FC00FC00
00FC00FC00
01F8007C00
01F8007E00
01F0003E00
03F0003F00
03F0003F00
03E0001F00
07E0001F80
07FFFFFF80
0FFFFFFF80
0FFFFFFFC0
0FFFFFFFC0
1FFFFFFFE0
1F800007E0
1F000003E0
3F000003F0
3F000003F0
7E000001F8
7E000001F8
7E000000F8
FC000000FC
FC000000FC
ENDCHAR
STARTCHAR 00E6
ENCODING 230
SWIDTH 847 0
DWIDTH 61 0
BBX 56 41 1 0
BITMAP
000003FFFFFFFF
000003FFFFFFFF
000007FFFFFFFF
00000FFFFFFFFF
00000FFFFFFFFF
00001F87E00000
00001F87E00000
00003F07E00000
00003F07E00000
00007E07E00000
0000FE07E00000
0000FC07E00000
0001FC07E00000
0001F807E00000
0003F807E00000
0003F007E00000
0007F007E00000
0007E007FFFFFE
000FC007FFFFFE
001FC007FFFFFE
001F8007FFFFFE
003F8007FFFFFE
003F0007E00000
007F0007E00000
007E0007E00000
00FE0007E00000
00FC0007E00000
01FC0007E00000
03FFFFFFE00000
03FFFFFFE00000
07FFFFFFE00000
07FFFFFFE00000
0FFFFFFFE00000
0FC00007E00000
1FC00007E00000
1F800007E00000
3F800007FFFFFF
7F000007FFFFFF
7F000007FFFFFF
FE000007FFFFFF
FC000007FFFFFF
ENDCHAR
STARTCHAR 00E7
ENCODING 231
SWIDTH 569 0
DWIDTH 41 0
BBX 35 56 3 -14
BITMAP
007FFFF000
03FFFFFC00
0FFFFFFF00
1FFFFFFF80
3FFFFFFF80
7F80003FC0
7F00000FC0
FE00000FE0
FE000007E0
FC000007E0
FC000007E0
FC000007E0
FC000007E0
FC000007E0
FC00000000
FC00000000
FC00000000
FC00000000
FC00000000
FC00000000
FC00000000
FC00000000
FC00000000
FC00000000
FC00000000
FC00000000
FC00000000
FC00000000
FC000007E0
FC000007E0
FC000007E0
FC000007E0
FE000007E0
FE000007E0
7E000007E0
7E00000FE0
7F00000FC0
3FC0007FC0
3FFFFFFFC0
1FFFFFFF80
0FFFFFFF00
03FFFFFE00
00FFFFF000
00001E0000
00001E0000
00001E0000
00001E0000
00001E0000
00003E0000
00003E0000
0000FC0000
000FFC0000
000FFC0000
000FF80000
000FF00000
000F800000
ENDCHAR
STARTCHAR 00E8
ENCODING 232
SWIDTH 500 0
DWIDTH 36 0
BBX 28 57 5 1
BITMAP
01800000
03C00000
03F00000
07F80000
03FC0000
00FE0000
003F8000
001FC000
0007C000
0003C000
00008000
00000000
00000000
00000000
00000000
00000000
FFFFFFF0
FFFFFFF0
FFFFFFF0
FFFFFFF0
FFFFFFF0
FC000000
FC000000
FC000000
FC000000
FC000000
FC000000
FC000000
FC000000
FC000000
FC000000
FC000000
FC000000
FFFFFFE0
FFFFFFE0
FFFFFFE0
FFFFFFE0
FFFFFFE0
FC000000
FC000000
FC000000
FC000000
FC000000
FC000000
FC000000
FC000000
FC000000
FC000000
FC000000
FC000000
FC000000
FC000000
FFFFFFF0
FFFFFFF0
FFFFFFF0
FFFFFFF0
FFFFFFF0
ENDCHAR
STARTCHAR 00E9
ENCODING 233
SWIDTH 500 0
DWIDTH 36 0
BBX 28 57 5 1
BITMAP
00001800
00003C00
0000FC00
0001FE00
0003FC00
000FF000
001FC000
003F8000
003E0000
003C0000
00100000
00000000
00000000
00000000
00000000
00000000
FFFFFFF0
FFFFFFF0
FFFFFFF0
FFFFFFF0
FFFFFFF0
FC000000
FC000000
FC000000
FC000000
FC000000
FC000000
FC000000
FC000000
FC000000
FC000000
FC000000
FC000000
FFFFFFE0
FFFFFFE0
FFFFFFE0
FFFFFFE0
FFFFFFE0
FC000000
FC000000
FC000000
FC000000
FC000000
FC000000
FC000000
FC000000
FC000000
FC000000
FC000000
FC000000
FC000000
FC000000
FFFFFFF0
FFFFFFF0
FFFFFFF0
FFFFFFF0
FFFFFFF0
ENDCHAR
STARTCHAR 00EA
ENCODING 234
SWIDTH 500 0
DWIDTH 36 0
BBX 28 57 5 0
BITMAP
00060000
000F0000
001F8000
003FC000
00FFF000
01F9F800
03F0FC00
0FE03F00
0F801F00
0F000F00
04000200
00000000
00000000
00000000
00000000
00000000
FFFFFFF0
FFFFFFF0
FFFFFFF0
FFFFFFF0
FFFFFFF0
FC000000
FC000000
FC000000
FC000000
FC000000
FC000000
FC000000
FC000000
FC000000
FC000000
FC000000
FC000000
FFFFFFE0
FFFFFFE0
FFFFFFE0
FFFFFFE0
FFFFFFE0
FC000000
FC000000
FC000000
FC000000
FC000000
FC000000
FC000000
FC000000
FC000000
FC000000
FC000000
FC000000
FC000000
FC000000
FFFFFFF0
FFFFFFF0
FFFFFFF0
FFFFFFF0
FFFFFFF0
ENDCHAR
STARTCHAR 00EB
ENCODING 235
SWIDTH 500 0
DWIDTH 36 0
BBX 28 53 5 0
BITMAP
1FC03F80
1FC03F80
1FC03F80
1FC03F80
1FC03F80
00000000
00000000
00000000
00000000
00000000
00000000
00000000
FFFFFFF0
FFFFFFF0
FFFFFFF0
FFFFFFF0
FFFFFFF0
FC000000
FC000000
FC000000
FC000000
FC000000
FC000000
FC000000
FC000000
FC000000
FC000000
FC000000
FC000000
FFFFFFE0
FFFFFFE0
FFFFFFE0
FFFFFFE0
FFFFFFE0
FC000000
FC000000
FC000000
FC000000
FC000000
FC000000
FC000000
FC000000
FC000000
FC000000
FC000000
FC000000
FC000000
FC000000
FFFFFFF0
FFFFFFF0
FFFFFFF0
FFFFFFF0
FFFFFFF0
ENDCHAR
STARTCHAR 00EC
ENCODING 236
SWIDTH 222 0
DWIDTH 16 0
BBX 13 57 -1 1
BITMAP
3000
7800
7E00
FF00
7F80
1FC0
07F0
03F8
00F8
0078
0010
0000
0000
0000
0000
0000
03F0
03F0
03F0
03F0
03F0
03F0
03F0
03F0
03F0
03F0
03F0
03F0
03F0
03F0
03F0
03F0
03F0
03F0
03F0
03F0
03F0
03F0
03F0
03F0
03F0
03F0
03F0
03F0
03F0
03F0
03F0
03F0
03F0
03F0
03F0
03F0
03F0
03F0
03F0
03F0
03F0
ENDCHAR
STARTCHAR 00ED
ENCODING 237
SWIDTH 222 0
DWIDTH 16 0
BBX 13 57 4 1
BITMAP
0060
00F0
03F0
07F8
0FF0
3FC0
7F00
FE00
F800
F000
4000
0000
0000
0000
0000
0000
7E00
7E00
7E00
7E00
7E00
7E00
7E00
7E00
7E00
7E00
7E00
7E00
7E00
7E00
7E00
7E00
7E00
7E00
7E00
7E00
7E00
7E00
7E00
7E00
7E00
7E00
7E00
7E00
7E00
7E00
7E00
7E00
7E00
7E00
7E00
7E00
7E00
7E00
7E00
7E00
7E00
ENDCHAR
STARTCHAR 00EE
ENCODING 238
SWIDTH 222 0
DWIDTH 16 0
BBX 21 57 -3 0
BITMAP
002000
007800
00FC00
03FE00
07FF00
0FDFC0
1F87E0
7F03F0
FC01F8
780078
300030
000000
000000
000000
000000
000000
00FC00
00FC00
00FC00
00FC00
00FC00
00FC00
00FC00
00FC00
00FC00
00FC00
00FC00
00FC00
00FC00
00FC00
00FC00
00FC00
00FC00
00FC00
00FC00
00FC00
00FC00
00FC00
00FC00
00FC00
00FC00
00FC00
00FC00
00FC00
00FC00
00FC00
00FC00
00FC00
00FC00
00FC00
00FC00
00FC00
00FC00
00FC00
00FC00
00FC00
00FC00
ENDCHAR
STARTCHAR 00EF
ENCODING 239
SWIDTH 222 0
DWIDTH 16 0
BBX 16 53 0 0
BITMAP
FE7F
FE7F
FE7F
FE7F
FE7F
0000
0000
0000
0000
0000
0000
0000
07E0
07E0
07E0
07E0
07E0
07E0
07E0
07E0
07E0
07E0
07E0
07E0
07E0
07E0
07E0
07E0
07E0
07E0
07E0
07E0
07E0
07E0
07E0
07E0
07E0
07E0
07E0
07E0
07E0
07E0
07E0
07E0
07E0
07E0
07E0
07E0
07E0
07E0
07E0
07E0
07E0
ENDCHAR
STARTCHAR 00F0
ENCODING 240
SWIDTH 611 0
DWIDTH 44 0
BBX 39 41 2 0
BITMAP
0FFFFFFC00
0FFFFFFF80
0FFFFFFFC0
0FFFFFFFE0
0FFFFFFFF0
0FC0000FF8
0FC00003F8
0FC00001FC
0FC00000FC
0FC00000FC
0FC00000FC
0FC000007E
0FC000007E
0FC000007E
0FC000007E
0FC000007E
0FC000007E
0FC000007E
FFFFF0007E
FFFFF0007E
FFFFF0007E
FFFFF0007E
0FC000007E
0FC000007E
0FC000007E
0FC000007E
0FC000007E
0FC000007E
0FC000007E
0FC000007E
0FC00000FC
0FC00000FC
0FC00000FC
0FC00001FC
0FC00003F8
0FC0000FF8
0FFFFFFFF0
0FFFFFFFE0
0FFFFFFFC0
0FFFFFFF00
0FFFFFF800
ENDCHAR
STARTCHAR 00F1
ENCODING 241
SWIDTH 638 0
DWIDTH 46 0
BBX 36 54 5 1
BITMAP
001F002000
007FC07800
00FFF8F800
00FFFFF000
01F1FFE000
00E03FC000
00000F8000
0000000000
0000000000
0000000000
0000000000
0000000000
0000000000
FF800003F0
FF800003F0
FFC00003F0
FFE00003F0
FFE00003F0
FFF00003F0
FDF00003F0
FDF80003F0
FCFC0003F0
FC7C0003F0
FC7E0003F0
FC3E0003F0
FC3F0003F0
FC1F8003F0
FC0F8003F0
FC0FC003F0
FC07C003F0
FC07E003F0
FC03F003F0
FC01F003F0
FC01F803F0
FC00F803F0
FC00FC03F0
FC007E03F0
FC003E03F0
FC003F03F0
FC001F03F0
FC001F83F0
FC000FC3F0
FC0007C3F0
FC0007E3F0
FC0003E3F0
FC0003F3F0
FC0001FBF0
FC0000FBF0
FC0000FFF0
FC00007FF0
FC00007FF0
FC00003FF0
FC00001FF0
FC00001FF0
ENDCHAR
STARTCHAR 00F2
ENCODING 242
SWIDTH 597 0
DWIDTH 43 0
BBX 37 57 3 1
BITMAP
0018000000
003C000000
003F000000
007F800000
003FC00000
000FE00000
0003F80000
0001FC0000
00007C0000
00003C0000
0000080000
0000000000
0000000000
0000000000
0000000000
0000000000
003FFFE000
03FFFFFE00
07FFFFFF00
1FFFFFFFC0
1FFFFFFFC0
3FC0001FE0
7F000007E0
7E000003F0
7E000003F0
7C000001F0
FC000001F8
FC000001F8
FC000001F8
FC000001F8
FC000001F8
FC000001F8
FC000001F8
FC000001F8
FC000001F8
FC000001F8
FC000001F8
FC000001F8
FC000001F8
FC000001F8
FC000001F8
FC000001F8
FC000001F8
FC000001F8
FC000001F8
FC000001F8
FC000001F8
7C000001F0
7E000003F0
7E000003F0
7F000007F0
3FC0001FE0
3FFFFFFFE0
1FFFFFFFC0
0FFFFFFF80
03FFFFFE00
007FFFF000
ENDCHAR
STARTCHAR 00F3
ENCODING 243
SWIDTH 597 0
DWIDTH 43 0
BBX 37 57 3 1
BITMAP
0000018000
000003C000
00000FC000
00001FE000
00003FC000
0000FF0000
0001FC0000
0003F80000
0003E00000
0003C00000
0001000000
0000000000
0000000000
0000000000
0000000000
0000000000
003FFFE000
03FFFFFE00
07FFFFFF00
1FFFFFFFC0
1FFFFFFFC0
3FC0001FE0
7F000007E0
7E000003F0
7E000003F0
7C000001F0
FC000001F8
FC000001F8
FC000001F8
FC000001F8
FC000001F8
FC000001F8
FC000001F8
FC000001F8
FC000001F8
FC000001F8
FC000001F8
FC000001F8
FC000001F8
FC000001F8
FC000001F8
FC000001F8
FC000001F8
FC000001F8
FC000001F8
FC000001F8
FC000001F8
7C000001F0
7E000003F0
7E000003F0
7F000007F0
3FC0001FE0
3FFFFFFFE0
1FFFFFFFC0
0FFFFFFF80
03FFFFFE00
007FFFF000
ENDCHAR
STARTCHAR 00F4
ENCODING 244
SWIDTH 597 0
DWIDTH 43 0
BBX 37 57 3 0
BITMAP
0000600000
0000F00000
0001F80000
0003FC0000
000FFF0000
001F9F8000
003F0FC000
00FE03F000
00F801F000
00F000F000
0040002000
0000000000
0000000000
0000000000
0000000000
0000000000
003FFFE000
03FFFFFE00
07FFFFFF00
1FFFFFFFC0
1FFFFFFFC0
3FC0001FE0
7F000007E0
7E000003F0
7E000003F0
7C000001F0
FC000001F8
FC000001F8
FC000001F8
FC000001F8
FC000001F8
FC000001F8
FC000001F8
FC000001F8
FC000001F8
FC000001F8
FC000001F8
FC000001F8
FC000001F8
FC000001F8
FC000001F8
FC000001F8
FC000001F8
FC000001F8
FC000001F8
FC000001F8
FC000001F8
7C000001F0
7E000003F0
7E000003F0
7F000007F0
3FC0001FE0
3FFFFFFFE0
1FFFFFFFC0
0FFFFFFF80
03FFFFFE00
007FFFF000
ENDCHAR
STARTCHAR 00F5
ENCODING 245
SWIDTH 597 0
DWIDTH 43 0
BBX 37 54 3 1
BITMAP
001F002000
007FC07800
00FFF8F800
00FFFFF000
01F1FFE000
00E03FC000
00000F8000
0000000000
0000000000
0000000000
0000000000
0000000000
0000000000
003FFFE000
03FFFFFE00
07FFFFFF00
1FFFFFFFC0
1FFFFFFFC0
3FC0001FE0
7F000007E0
7E000003F0
7E000003F0
7C000001F0
FC000001F8
FC000001F8
FC000001F8
FC000001F8
FC000001F8
FC000001F8
FC000001F8
FC000001F8
FC000001F8
FC000001F8
FC000001F8
FC000001F8
FC000001F8
FC000001F8
FC000001F8
FC000001F8
FC000001F8
FC000001F8
FC000001F8
FC000001F8
FC000001F8
7C000001F0
7E000003F0
7E000003F0
7F000007F0
3FC0001FE0
3FFFFFFFE0
1FFFFFFFC0
0FFFFFFF80
03FFFFFE00
007FFFF000
ENDCHAR
STARTCHAR 00F6
ENCODING 246
SWIDTH 597 0
DWIDTH 43 0
BBX 37 53 3 0
BITMAP
01FC03F800
01FC03F800
01FC03F800
01FC03F800
01FC03F800
0000000000
0000000000
0000000000
0000000000
0000000000
0000000000
0000000000
003FFFE000
03FFFFFE00
07FFFFFF00
1FFFFFFFC0
1FFFFFFFC0
3FC0001FE0
7F000007E0
7E000003F0
7E000003F0
7C000001F0
FC000001F8
FC000001F8
FC000001F8
FC000001F8
FC000001F8
FC000001F8
FC000001F8
FC000001F8
FC000001F8
FC000001F8
FC000001F8
FC000001F8
FC000001F8
FC000001F8
FC000001F8
FC000001F8
FC000001F8
FC000001F8
FC000001F8
FC000001F8
FC000001F8
7C000001F0
7E000003F0
7E000003F0
7F000007F0
3FC0001FE0
3FFFFFFFE0
1FFFFFFFC0
0FFFFFFF80
03FFFFFE00
007FFFF000
ENDCHAR
STARTCHAR 00F7
ENCODING 247
SWIDTH 527 0
DWIDTH 38 0
BBX 34 31 2 4
BITMAP
0000E00000
0001F00000
0003F80000
0003F80000
0003F80000
0001F00000
0000E00000
0000000000
0000000000
0000000000
0000000000
0000000000
0000000000
FFFFFFFFC0
FFFFFFFFC0
FFFFFFFFC0
FFFFFFFFC0
FFFFFFFFC0
0000000000
0000000000
0000000000
0000000000
0000000000
0000000000
0000E00000
0001F00000
0003F80000
0003F80000
0003F80000
0001F00000
0000E00000
ENDCHAR
STARTCHAR 00F8
ENCODING 248
SWIDTH 555 0
DWIDTH 40 0
BBX 37 43 1 -1
BITMAP
0000000008
003FFFF018
03FFFFFE38
07FFFFFFF8
1FFFFFFFF8
1FFFFFFFF0
3FC0001FE0
3F000007E0
7E00000FF0
7E00001FF0
7E00003FF0
FC00007FF8
FC0000FDF8
FC0001F9F8
FC0003F1F8
FC0007E1F8
FC000FC1F8
FC000F81F8
FC001F01F8
FC003E01F8
FC007C01F8
FC00F801F8
FC01F001F8
FC03E001F8
FC07C001F8
FC0F8001F8
FC1F8001F8
FC3F0001F8
FC7E0001F8
FCFC0001F8
FDF80001F8
FFF00001F8
7FE00001F0
7FC00003F0
7F800003F0
7F000007F0
3FC0001FE0
7FFFFFFFE0
FFFFFFFFC0
FFFFFFFF80
E3FFFFFE00
C07FFFF000
8000000000
ENDCHAR
STARTCHAR 00F9
ENCODING 249
SWIDTH 611 0
DWIDTH 44 0
BBX 34 57 5 1
BITMAP
0030000000
0078000000
007E000000
00FF000000
007F800000
001FC00000
0007F00000
0003F80000
0000F80000
0000780000
0000100000
0000000000
0000000000
0000000000
0000000000
0000000000
FC00000FC0
FC00000FC0
FC00000FC0
FC00000FC0
FC00000FC0
FC00000FC0
FC00000FC0
FC00000FC0
FC00000FC0
FC00000FC0
FC00000FC0
FC00000FC0
FC00000FC0
FC00000FC0
FC00000FC0
FC00000FC0
FC00000FC0
FC00000FC0
FC00000FC0
FC00000FC0
FC00000FC0
FC00000FC0
FC00000FC0
FC00000FC0
FC00000FC0
FC00000FC0
FC00000FC0
FC00000FC0
FC00000FC0
FC00000FC0
FC00000FC0
FC00000FC0
FC00000FC0
FE00001FC0
7E00001F80
7F8000FF80
3FFFFFFF00
3FFFFFFF00
1FFFFFFE00
07FFFFF800
00FFFFC000
ENDCHAR
STARTCHAR 00FA
ENCODING 250
SWIDTH 611 0
DWIDTH 44 0
BBX 34 57 5 1
BITMAP
0000030000
0000078000
00001F8000
00003FC000
00007F8000
0001FE0000
0003F80000
0007F00000
0007C00000
0007800000
0002000000
0000000000
0000000000
0000000000
0000000000
0000000000
FC00000FC0
FC00000FC0
FC00000FC0
FC00000FC0
FC00000FC0
FC00000FC0
FC00000FC0
FC00000FC0
FC00000FC0
FC00000FC0
FC00000FC0
FC00000FC0
FC00000FC0
FC00000FC0
FC00000FC0
FC00000FC0
FC00000FC0
FC00000FC0
FC00000FC0
FC00000FC0
FC00000FC0
FC00000FC0
FC00000FC0
FC00000FC0
FC00000FC0
FC00000FC0
FC00000FC0
FC00000FC0
FC00000FC0
FC00000FC0
FC00000FC0
FC00000FC0
FC00000FC0
FE00001FC0
7E00001F80
7F8000FF80
3FFFFFFF00
3FFFFFFF00
1FFFFFFE00
07FFFFF800
00FFFFC000
ENDCHAR
STARTCHAR 00FB
ENCODING 251
SWIDTH 611 0
DWIDTH 44 0
BBX 34 57 5 0
BITMAP
0000C00000
0001E00000
0003F00000
0007F80000
001FFE0000
003F3F0000
007E1F8000
01FC07E000
01F003E000
01E001E000
0080004000
0000000000
0000000000
0000000000
0000000000
0000000000
FC00000FC0
FC00000FC0
FC00000FC0
FC00000FC0
FC00000FC0
FC00000FC0
FC00000FC0
FC00000FC0
FC00000FC0
FC00000FC0
FC00000FC0
FC00000FC0
FC00000FC0
FC00000FC0
FC00000FC0
FC00000FC0
FC00000FC0
FC00000FC0
FC00000FC0
FC00000FC0
FC00000FC0
FC00000FC0
FC00000FC0
FC00000FC0
FC00000FC0
FC00000FC0
FC00000FC0
FC00000FC0
FC00000FC0
FC00000FC0
FC00000FC0
FC00000FC0
FC00000FC0
FE00001FC0
7E00001F80
7F8000FF80
3FFFFFFF00
3FFFFFFF00
1FFFFFFE00
07FFFFF800
00FFFFC000
ENDCHAR
STARTCHAR 00FC
ENCODING 252
SWIDTH 611 0
DWIDTH 44 0
BBX 34 53 5 0
BITMAP
03F807F000
03F807F000
03F807F000
03F807F000
03F807F000
0000000000
0000000000
0000000000
0000000000
0000000000
0000000000
0000000000
FC00000FC0
FC00000FC0
FC00000FC0
FC00000FC0
FC00000FC0
FC00000FC0
FC00000FC0
FC00000FC0
FC00000FC0
FC00000FC0
FC00000FC0
FC00000FC0
FC00000FC0
FC00000FC0
FC00000FC0
FC00000FC0
FC00000FC0
FC00000FC0
FC00000FC0
FC00000FC0
FC00000FC0
FC00000FC0
FC00000FC0
FC00000FC0
FC00000FC0
FC00000FC0
FC00000FC0
FC00000FC0
FC00000FC0
FC00000FC0
FC00000FC0
FC00000FC0
FC00000FC0
FE00001FC0
7E00001F80
7F8000FF80
3FFFFFFF00
3FFFFFFF00
1FFFFFFE00
07FFFFF800
00FFFFC000
ENDCHAR
STARTCHAR 00FD
ENCODING 253
SWIDTH 527 0
DWIDTH 38 0
BBX 37 57 1 1
BITMAP
0000018000
000003C000
00000FC000
00001FE000
00003FC000
0000FF0000
0001FC0000
0003F80000
0003E00000
0003C00000
0001000000
0000000000
0000000000
0000000000
0000000000
0000000000
FC000003F8
FE000007F0
7F000007E0
3F00000FE0
3F80001FC0
1FC0001F80
0FC0003F80
0FE0007F00
07F0007E00
03F000FE00
03F801FC00
01FC01F800
01FC03F800
00FE07F000
007F07E000
007F0FE000
003F9FC000
001FDF8000
001FFF8000
000FFF0000
0007FE0000
0007FE0000
0003FC0000
0001F80000
0001F80000
0001F80000
0001F80000
0001F80000
0001F80000
0001F80000
0001F80000
0001F80000
0001F80000
0001F80000
0001F80000
0001F80000
0001F80000
0001F80000
0001F80000
0001F80000
0001F80000
ENDCHAR
STARTCHAR 00FE
ENCODING 254
SWIDTH 541 0
DWIDTH 39 0
BBX 33 41 5 0
BITMAP
FC00000000
FC00000000
FC00000000
FC00000000
FC00000000
FC00000000
FC00000000
FC00000000
FFFFFFC000
FFFFFFF800
FFFFFFFC00
FFFFFFFE00
FFFFFFFE00
FC00007F00
FC00003F00
FC00003F00
FC00001F80
FC00001F80
FC00001F80
FC00001F80
FC00001F80
FC00001F80
FC00001F80
FC00001F80
FC00001F80
FC00003F80
FC00003F00
FC0000FF00
FFFFFFFE00
FFFFFFFE00
FFFFFFFC00
FFFFFFF800
FFFFFFC000
FC00000000
FC00000000
FC00000000
FC00000000
FC00000000
FC00000000
FC00000000
FC00000000
ENDCHAR
STARTCHAR 00FF
ENCODING 255
SWIDTH 527 0
DWIDTH 38 0
BBX 37 53 1 0
BITMAP
01FC03F800
01FC03F800
01FC03F800
01FC03F800
01FC03F800
0000000000
0000000000
0000000000
0000000000
0000000000
0000000000
0000000000
FC000003F8
FE000007F0
7F000007E0
3F00000FE0
3F80001FC0
1FC0001F80
0FC0003F80
0FE0007F00
07F0007E00
03F000FE00
03F801FC00
01FC01F800
01FC03F800
00FE07F000
007F07E000
007F0FE000
003F9FC000
001FDF8000
001FFF8000
000FFF0000
0007FE0000
0007FE0000
0003FC0000
0001F80000
0001F80000
0001F80000
0001F80000
0001F80000
0001F80000
0001F80000
0001F80000
0001F80000
0001F80000
0001F80000
0001F80000
0001F80000
0001F80000
0001F80000
0001F80000
0001F80000
0001F80000
ENDCHAR
STARTCHAR 0106
ENCODING 262
SWIDTH 555 0
DWIDTH 40 0
BBX 35 57 3 1
BITMAP
0000018000
000003C000
00000FC000
00001FE000
00003FC000
0000FF0000
0001FC0000
0003F80000
0003E00000
0003C00000
0001000000
0000000000
0000000000
0000000000
0000000000
0000000000
003FFFF000
03FFFFFE00
07FFFFFF00
1FFFFFFF80
3FFFFFFFC0
3FC0003FC0
7F00000FC0
7E00000FE0
7E000007E0
FC000007E0
FC000007E0
FC000007E0
FC000007E0
FC00000000
FC00000000
FC00000000
FC00000000
FC00000000
FC00000000
FC00000000
FC00000000
FC00000000
FC00000000
FC00000000
FC00000000
FC00000000
FC00000000
FC000007E0
FC000007E0
FC000007E0
FE000007E0
7E000007E0
7E000007E0
7E00000FE0
7F00000FC0
3FC0003FC0
1FFFFFFFC0
1FFFFFFF80
0FFFFFFF00
03FFFFFE00
007FFFF000
ENDCHAR
STARTCHAR 0107
ENCODING 263
SWIDTH 555 0
DWIDTH 40 0
BBX 35 57 3 1
BITMAP
0000018000
000003C000
00000FC000
00001FE000
00003FC000
0000FF0000
0001FC0000
0003F80000
0003E00000
0003C00000
0001000000
0000000000
0000000000
0000000000
0000000000
0000000000
003FFFF000
03FFFFFE00
07FFFFFF00
1FFFFFFF80
3FFFFFFFC0
3FC0003FC0
7F00000FC0
7E00000FE0
7E000007E0
FC000007E0
FC000007E0
FC000007E0
FC000007E0
FC00000000
FC00000000
FC00000000
FC00000000
FC00000000
FC00000000
FC00000000
FC00000000
FC00000000
FC00000000
FC00000000
FC00000000
FC00000000
FC00000000
FC000007E0
FC000007E0
FC000007E0
FE000007E0
7E000007E0
7E000007E0
7E00000FE0
7F00000FC0
3FC0003FC0
1FFFFFFFC0
1FFFFFFF80
0FFFFFFF00
03FFFFFE00
007FFFF000
ENDCHAR
STARTCHAR 010C
ENCODING 268
SWIDTH 555 0
DWIDTH 40 0
BBX 35 57 3 0
BITMAP
0040004000
00E001E000
01F003F000
00FC07E000
007E1FC000
003F3F0000
000FFE0000
0007FC0000
0003F00000
0001E00000
0000400000
0000000000
0000000000
0000000000
0000000000
0000000000
003FFFF000
03FFFFFE00
07FFFFFF00
1FFFFFFF80
3FFFFFFFC0
3FC0003FC0
7F00000FC0
7E00000FE0
7E000007E0
FC000007E0
FC000007E0
FC000007E0
FC000007E0
FC00000000
FC00000000
FC00000000
FC00000000
FC00000000
FC00000000
FC00000000
FC00000000
FC00000000
FC00000000
FC00000000
FC00000000
FC00000000
FC00000000
FC000007E0
FC000007E0
FC000007E0
FE000007E0
7E000007E0
7E000007E0
7E00000FE0
7F00000FC0
3FC0003FC0
1FFFFFFFC0
1FFFFFFF80
0FFFFFFF00
03FFFFFE00
007FFFF000
ENDCHAR
STARTCHAR 010D
ENCODING 269
SWIDTH 555 0
DWIDTH 40 0
BBX 35 57 3 0
BITMAP
0040004000
00E001E000
01F003F000
00FC07E000
007E1FC000
003F3F0000
000FFE0000
0007FC0000
0003F00000
0001E00000
0000400000
0000000000
0000000000
0000000000
0000000000
0000000000
003FFFF000
03FFFFFE00
07FFFFFF00
1FFFFFFF80
3FFFFFFFC0
3FC0003FC0
7F00000FC0
7E00000FE0
7E000007E0
FC000007E0
FC000007E0
FC000007E0
FC000007E0
FC00000000
FC00000000
FC00000000
FC00000000
FC00000000
FC00000000
FC00000000
FC00000000
FC00000000
FC00000000
FC00000000
FC00000000
FC00000000
FC00000000
FC000007E0
FC000007E0
FC000007E0
FE000007E0
7E000007E0
7E000007E0
7E00000FE0
7F00000FC0
3FC0003FC0
1FFFFFFFC0
1FFFFFFF80
0FFFFFFF00
03FFFFFE00
007FFFF000
ENDCHAR
STARTCHAR 0111
ENCODING 273
SWIDTH 611 0
DWIDTH 44 0
BBX 40 41 1 0
BITMAP
07FFFFFE00
07FFFFFFC0
07FFFFFFE0
07FFFFFFF0
07FFFFFFF8
07E00007FC
07E00001FC
07E00000FE
07E000007E
07E000007E
07E000007E
07E000003F
07E000003F
07E000003F
07E000003F
07E000003F
07E000003F
07E000003F
FFFFF8003F
FFFFF8003F
FFFFF8003F
FFFFF8003F
07E000003F
07E000003F
07E000003F
07E000003F
07E000003F
07E000003F
07E000003F
07E000003F
07E000007E
07E000007E
07E000007E
07E00000FE
07E00001FC
07E00007FC
07FFFFFFF8
07FFFFFFF0
07FFFFFFE0
07FFFFFF80
07FFFFFC00
ENDCHAR
STARTCHAR 011E
ENCODING 286
SWIDTH 583 0
DWIDTH 42 0
BBX 35 56 3 0
BITMAP
01E0007800
00F000F000
00F000F000
00F801F000
007C03E000
007F0FE000
003FFFC000
001FFF8000
0007FE0000
0001F80000
0000000000
0000000000
0000000000
0000000000
0000000000
007FFFF000
03FFFFFE00
0FFFFFFF00
1FFFFFFF80
3FFFFFFFC0
3FC0001FC0
7F000007E0
7E000007E0
7E000007E0
7E000003E0
FC000003E0
FC000003E0
FC000003E0
FC00000000
FC00000000
FC00000000
FC00000000
FC00000000
FC00000000
FC00000000
FC007FFFE0
FC007FFFE0
FC007FFFE0
FC007FFFE0
FC007FFFE0
FC000007E0
FC000007E0
FC000007E0
FC000007E0
FC000007E0
FC000007E0
FC000007E0
7E000007E0
7E00000FC0
7F00000FC0
3FE0003FC0
3FFFFFFF80
1FFFFFFF80
0FFFFFFF00
03FFFFFC00
007FFFE000
ENDCHAR
STARTCHAR 011F
ENCODING 287
SWIDTH 583 0
DWIDTH 42 0
BBX 35 56 3 0
BITMAP
01E0007800
00F000F000
00F000F000
00F801F000
007C03E000
007F0FE000
003FFFC000
001FFF8000
0007FE0000
0001F80000
0000000000
0000000000
0000000000
0000000000
0000000000
007FFFF000
03FFFFFE00
0FFFFFFF00
1FFFFFFF80
3FFFFFFFC0
3FC0001FC0
7F000007E0
7E000007E0
7E000007E0
7E000003E0
FC000003E0
FC000003E0
FC000003E0
FC00000000
FC00000000
FC00000000
FC00000000
FC00000000
FC00000000
FC00000000
FC007FFFE0
FC007FFFE0
FC007FFFE0
FC007FFFE0
FC007FFFE0
FC000007E0
FC000007E0
FC000007E0
FC000007E0
FC000007E0
FC000007E0
FC000007E0
7E000007E0
7E00000FC0
7F00000FC0
3FE0003FC0
3FFFFFFF80
1FFFFFFF80
0FFFFFFF00
03FFFFFC00
007FFFE000
ENDCHAR
STARTCHAR 0130
ENCODING 304
SWIDTH 236 0
DWIDTH 17 0
BBX 6 51 6 1
BITMAP
FC
FC
FC
FC
FC
00
00
00
00
00
FC
FC
FC
FC
FC
FC
FC
FC
FC
FC
FC
FC
FC
FC
FC
FC
FC
FC
FC
FC
FC
FC
FC
FC
FC
FC
FC
FC
FC
FC
FC
FC
FC
FC
FC
FC
FC
FC
FC
FC
FC
ENDCHAR
STARTCHAR 0131
ENCODING 305
SWIDTH 222 0
DWIDTH 16 0
BBX 6 41 5 0
BITMAP
FC
FC
FC
FC
FC
FC
FC
FC
FC
FC
FC
FC
FC
FC
FC
FC
FC
FC
FC
FC
FC
FC
FC
FC
FC
FC
FC
FC
FC
FC
FC
FC
FC
FC
FC
FC
FC
FC
FC
FC
FC
ENDCHAR
STARTCHAR 0141
ENCODING 321
SWIDTH 486 0
DWIDTH 35 0
BBX 32 41 2 0
BITMAP
0FC00000
0FC00000
0FC00000
0FC00000
0FC00000
0FC00000
0FC00000
0FC00000
0FC00000
0FC00000
0FC00000
0FC00000
0FC20000
0FCE0000
0FDE0000
0FFE0000
0FFE0000
0FFC0000
0FF80000
0FF00000
0FC00000
1FC00000
3FC00000
7FC00000
FFC00000
FFC00000
EFC00000
CFC00000
CFC00000
8FC00000
0FC00000
0FC00000
0FC00000
0FC00000
0FC00000
0FC00000
0FFFFFFF
0FFFFFFF
0FFFFFFF
0FFFFFFF
0FFFFFFF
ENDCHAR
STARTCHAR 0142
ENCODING 322
SWIDTH 486 0
DWIDTH 35 0
BBX 32 41 2 0
BITMAP
0FC00000
0FC00000
0FC00000
0FC00000
0FC00000
0FC00000
0FC00000
0FC00000
0FC00000
0FC00000
0FC00000
0FC00000
0FC20000
0FCE0000
0FDE0000
0FFE0000
0FFE0000
0FFC0000
0FF80000
0FF00000
0FC00000
1FC00000
3FC00000
7FC00000
7FC00000
FFC00000
FFC00000
EFC00000
CFC00000
8FC00000
0FC00000
0FC00000
0FC00000
0FC00000
0FC00000
0FC00000
0FFFFFFF
0FFFFFFF
0FFFFFFF
0FFFFFFF
0FFFFFFF
ENDCHAR
STARTCHAR 0152
ENCODING 338
SWIDTH 888 0
DWIDTH 64 0
BBX 58 43 3 -1
BITMAP
001FFE0000000000
00FFFFE3FFFFFFC0
03FFFFF3FFFFFFC0
0FFFFFFBFFFFFFC0
1FFFFFFFFFFFFFC0
3FFFFFFFFFFFFFC0
3F80001FF0000000
7F00000FF0000000
7E000007F0000000
7E000007F0000000
FE000003F0000000
FC000003F0000000
FC000003F0000000
FC000003F0000000
FC000003F0000000
FC000003F0000000
FC000003F0000000
FC000003F0000000
FC000003FFFFFF80
FC000003FFFFFF80
FC000003FFFFFF80
FC000003FFFFFF80
FC000003FFFFFF80
FC000003F0000000
FC000003F0000000
FC000003F0000000
FC000003F0000000
FC000003F0000000
FC000003F0000000
FC000003F0000000
FC000003F0000000
FC000003F0000000
FC000003F0000000
FE000007F0000000
FE000007F0000000
7F00000FF0000000
7FC0003FF0000000
3FFFFFFFFFFFFFC0
3FFFFFFFFFFFFFC0
1FFFFFFFFFFFFFC0
07FFFFFBFFFFFFC0
01FFFFE3FFFFFFC0
001FFF8000000000
ENDCHAR
STARTCHAR 0153
ENCODING 339
SWIDTH 888 0
DWIDTH 64 0
BBX 58 41 3 0
BITMAP
003FFF83FFFFFFC0
03FFFFF3FFFFFFC0
07FFFFFBFFFFFFC0
1FFFFFFFFFFFFFC0
1FFFFFFFFFFFFFC0
3FC0003FF0000000
7F00000FF0000000
7E000007F0000000
7E000007F0000000
FE000003F0000000
FC000003F0000000
FC000003F0000000
FC000003F0000000
FC000003F0000000
FC000003F0000000
FC000003F0000000
FC000003F0000000
FC000003FFFFFF80
FC000003FFFFFF80
FC000003FFFFFF80
FC000003FFFFFF80
FC000003FFFFFF80
FC000003F0000000
FC000003F0000000
FC000003F0000000
FC000003F0000000
FC000003F0000000
FC000003F0000000
FC000003F0000000
FC000003F0000000
FC000003F0000000
FE000003F0000000
7E000007F0000000
7E000007F0000000
7F00000FF0000000
3FC0003FF0000000
3FFFFFFFFFFFFFC0
1FFFFFFFFFFFFFC0
0FFFFFFBFFFFFFC0
03FFFFF3FFFFFFC0
007FFF83FFFFFFC0
ENDCHAR
STARTCHAR 015E
ENCODING 350
SWIDTH 541 0
DWIDTH 39 0
BBX 32 55 3 -14
BITMAP
00FFFF00
07FFFFE0
1FFFFFF8
3FFFFFFC
7FFFFFFC
7F8001FE
7E00007E
FE00003F
FC00003F
FC00003F
FC00003F
FC00003F
FC000000
FC000000
FC000000
FE000000
7F000000
7FF80000
3FFFFFC0
3FFFFFF0
0FFFFFF8
03FFFFFC
0007FFFE
000000FE
0000007F
0000003F
0000003F
0000003F
FC00003F
FC00003F
FC00003F
FC00003F
FC00003F
FC00007F
7E00007E
7F0001FE
7FFFFFFE
3FFFFFFC
1FFFFFF8
0FFFFFF0
01FFFF80
00000000
00003C00
00003C00
00003C00
00003C00
00003C00
00007C00
00007C00
0001F800
001FF800
001FF000
001FF000
001FC000
001F0000
ENDCHAR
STARTCHAR 015F
ENCODING 351
SWIDTH 541 0
DWIDTH 39 0
BBX 32 55 3 -14
BITMAP
00FFFF00
07FFFFE0
1FFFFFF8
3FFFFFFC
7FFFFFFC
7F8001FE
7E00007E
FE00003F
FC00003F
FC00003F
FC00003F
FC00003F
FC000000
FC000000
FC000000
FE000000
7F000000
7FF80000
3FFFFFC0
3FFFFFF0
0FFFFFF8
03FFFFFC
0007FFFE
000000FE
0000007F
0000003F
0000003F
0000003F
FC00003F
FC00003F
FC00003F
FC00003F
FC00003F
FC00007F
7E00007E
7F0001FE
7FFFFFFE
3FFFFFFC
1FFFFFF8
0FFFFFF0
01FFFF80
00000000
00003C00
00003C00
00003C00
00003C00
00003C00
00007C00
00007C00
0001F800
001FF800
001FF000
001FF000
001FC000
001F0000
ENDCHAR
STARTCHAR 0160
ENCODING 352
SWIDTH 541 0
DWIDTH 39 0
BBX 32 57 3 0
BITMAP
00800080
01C001C0
03E007E0
01F80FC0
00FC3F80
007F7E00
001FFC00
000FF800
0007F000
0003C000
00008000
00000000
00000000
00000000
00000000
00000000
00FFFF00
07FFFFE0
1FFFFFF8
3FFFFFFC
7FFFFFFC
7F8001FE
7E00007E
FE00003F
FC00003F
FC00003F
FC00003F
FC00003F
FC000000
FC000000
FC000000
FE000000
7F000000
7FF80000
3FFFFFC0
3FFFFFF0
0FFFFFF8
03FFFFFC
0007FFFE
000000FE
0000007F
0000003F
0000003F
0000003F
FC00003F
FC00003F
FC00003F
FC00003F
FC00003F
FC00007F
7E00007E
7F0001FE
7FFFFFFE
3FFFFFFC
1FFFFFF8
0FFFFFF0
01FFFF80
ENDCHAR
STARTCHAR 0161
ENCODING 353
SWIDTH 541 0
DWIDTH 39 0
BBX 32 57 3 0
BITMAP
00800080
01C001C0
03E007E0
01F80FC0
00FC3F80
007F7E00
001FFC00
000FF800
0007F000
0003C000
00008000
00000000
00000000
00000000
00000000
00000000
00FFFF00
07FFFFE0
1FFFFFF8
3FFFFFFC
7FFFFFFC
7F8001FE
7E00007E
FE00003F
FC00003F
FC00003F
FC00003F
FC00003F
FC000000
FC000000
FC000000
FE000000
7F000000
7FF80000
3FFFFFC0
3FFFFFF0
0FFFFFF8
03FFFFFC
0007FFFE
000000FE
0000007F
0000003F
0000003F
0000003F
FC00003F
FC00003F
FC00003F
FC00003F
FC00003F
FC00007F
7E00007E
7F0001FE
7FFFFFFE
3FFFFFFC
1FFFFFF8
0FFFFFF0
01FFFF80
ENDCHAR
STARTCHAR 0178
ENCODING 376
SWIDTH 527 0
DWIDTH 38 0
BBX 37 53 1 0
BITMAP
01FC03F800
01FC03F800
01FC03F800
01FC03F800
01FC03F800
0000000000
0000000000
0000000000
0000000000
0000000000
0000000000
0000000000
FC000003F8
FE000007F0
7F000007E0
3F00000FE0
3F80001FC0
1FC0001F80
0FC0003F80
0FE0007F00
07F0007E00
03F000FE00
03F801FC00
01FC01F800
01FC03F800
00FE07F000
007F07E000
007F0FE000
003F9FC000
001FDF8000
001FFF8000
000FFF0000
0007FE0000
0007FE0000
0003FC0000
0001F80000
0001F80000
0001F80000
0001F80000
0001F80000
0001F80000
0001F80000
0001F80000
0001F80000
0001F80000
0001F80000
0001F80000
0001F80000
0001F80000
0001F80000
0001F80000
0001F80000
0001F80000
ENDCHAR
STARTCHAR 017D
ENCODING 381
SWIDTH 527 0
DWIDTH 38 0
BBX 34 57 2 0
BITMAP
0080004000
01E001C000
01F003E000
01F80FE000
007E1F8000
003F3F0000
001FFE0000
000FF80000
0003F00000
0001E00000
0000C00000
0000000000
0000000000
0000000000
0000000000
0000000000
7FFFFFFF80
7FFFFFFF80
7FFFFFFF80
7FFFFFFF80
7FFFFFFF80
0000007F00
0000007E00
000000FE00
000001FC00
000003F800
000007F000
00000FE000
00000FE000
00001FC000
00003F8000
00007F0000
0000FE0000
0000FC0000
0001FC0000
0003F80000
0007F00000
000FE00000
001FC00000
001FC00000
003F800000
007F000000
00FE000000
01FC000000
03F8000000
03F8000000
07F0000000
0FE0000000
1FC0000000
3F80000000
7F80000000
7F00000000
FFFFFFFFC0
FFFFFFFFC0
FFFFFFFFC0
FFFFFFFFC0
FFFFFFFFC0
ENDCHAR
STARTCHAR 017E
ENCODING 382
SWIDTH 527 0
DWIDTH 38 0
BBX 34 57 2 0
BITMAP
0080004000
01E001C000
01F003E000
01F80FE000
007E1F8000
003F3F0000
001FFE0000
000FF80000
0003F00000
0001E00000
0000C00000
0000000000
0000000000
0000000000
0000000000
0000000000
7FFFFFFF80
7FFFFFFF80
7FFFFFFF80
7FFFFFFF80
7FFFFFFF80
0000007F00
0000007E00
000000FE00
000001FC00
000003F800
000007F000
00000FE000
00000FE000
00001FC000
00003F8000
00007F0000
0000FE0000
0000FC0000
0001FC0000
0003F80000
0007F00000
000FE00000
001FC00000
001FC00000
003F800000
007F000000
00FE000000
01FC000000
03F8000000
03F8000000
07F0000000
0FE0000000
1FC0000000
3F80000000
7F80000000
7F00000000
FFFFFFFFC0
FFFFFFFFC0
FFFFFFFFC0
FFFFFFFFC0
FFFFFFFFC0
ENDCHAR
STARTCHAR 0192
ENCODING 402
SWIDTH 375 0
DWIDTH 27 0
BBX 30 54 -3 -8
BITMAP
000003FC
00001FFC
00003FFC
00007FF8
00007E00
0000FC00
0000F800
0000F800
0000F800
0001F800
0001F800
0001F000
0001F000
0001F000
007FFFE0
007FFFE0
007FFFE0
00FFFFE0
00FFFFE0
0003E000
0003E000
0007E000
0007E000
0007C000
0007C000
0007C000
000FC000
000FC000
000F8000
000F8000
000F8000
000F8000
001F8000
001F8000
001F0000
001F0000
001F0000
001F0000
003F0000
003F0000
003E0000
003E0000
003E0000
003E0000
007E0000
007C0000
007C0000
007C0000
00FC0000
01F80000
7FF80000
7FF00000
FFE00000
FF800000
ENDCHAR
STARTCHAR 02C6
ENCODING 710
SWIDTH 500 0
DWIDTH 36 0
BBX 20 11 8 46
BITMAP
006000
00F000
01F800
03FC00
0FFF00
1F9F80
3F0FC0
FE03F0
F801F0
F000F0
400020
ENDCHAR
STARTCHAR 02C7
ENCODING 711
SWIDTH 500 0
DWIDTH 36 0
BBX 20 11 8 46
BITMAP
400020
F000F0
F801F0
FE07F0
3F0FC0
1F9F80
0FFF00
03FC00
01F800
00F000
006000
ENDCHAR
STARTCHAR 02C9
ENCODING 713
SWIDTH 500 0
DWIDTH 36 0
BBX 20 5 8 48
BITMAP
FFFFF0
FFFFF0
FFFFF0
FFFFF0
FFFFF0
ENDCHAR
STARTCHAR 02D8
ENCODING 728
SWIDTH 500 0
DWIDTH 36 0
BBX 22 10 7 46
BITMAP
F0003C
780078
780078
7C00F8
3E01F0
3F87F0
1FFFE0
0FFFC0
03FF00
00FC00
ENDCHAR
STARTCHAR 02D9
ENCODING 729
SWIDTH 500 0
DWIDTH 36 0
BBX 7 5 15 48
BITMAP
FE
FE
FE
FE
FE
ENDCHAR
STARTCHAR 02DA
ENCODING 730
SWIDTH 500 0
DWIDTH 36 0
BBX 12 13 12 45
BITMAP
0F00
3FC0
7FE0
70E0
F0F0
E070
E070
E070
F0F0
70E0
7FE0
3FC0
0F00
ENDCHAR
STARTCHAR 02DB
ENCODING 731
SWIDTH 500 0
DWIDTH 36 0
BBX 12 14 22 -14
BITMAP
0780
0F00
3C00
7800
7800
F000
F000
F000
F800
FC00
7FF0
7FF0
1FF0
07F0
ENDCHAR
STARTCHAR 02DC
ENCODING 732
SWIDTH 500 0
DWIDTH 36 0
BBX 22 7 7 48
BITMAP
0F8010
3FE03C
7FFC7C
7FFFF8
F8FFF0
701FE0
0007C0
ENDCHAR
STARTCHAR 02DD
ENCODING 733
SWIDTH 500 0
DWIDTH 36 0
BBX 23 11 9 46
BITMAP
004018
00E03C
01F07E
07F0FE
0FE1FC
1FC3F0
3F07E0
7E0FC0
FC1F00
700E00
200400
ENDCHAR
STARTCHAR 03C0
ENCODING 960
SWIDTH 555 0
DWIDTH 40 0
BBX 38 34 1 0
BITMAP
FFFFFFFFFC
FFFFFFFFFC
FFFFFFFFFC
FFFFFFFFFC
03E0001F00
03E0001F00
03E0001F00
03E0001F00
03E0001F00
03E0001F00
03E0001F00
03E0001F00
03E0001F00
03E0001F00
03E0001F00
03E0001F00
03E0001F00
03E0001F00
03E0001F00
03E0001F00
03E0001F00
03E0001F00
03E0001F00
03E0001F00
03E0001F00
03E0001F00
03E0001F00
03E0001F00
03E0001F00
03E0001F00
03E0001F00
03E0001F00
03E0001F00
03E0001F00
ENDCHAR
STARTCHAR 2013
ENCODING 8211
SWIDTH 541 0
DWIDTH 39 0
BBX 33 5 3 18
BITMAP
FFFFFFFF80
FFFFFFFF80
FFFFFFFF80
FFFFFFFF80
FFFFFFFF80
ENDCHAR
STARTCHAR 2014
ENCODING 8212
SWIDTH 805 0
DWIDTH 58 0
BBX 57 5 0 18
BITMAP
FFFFFFFFFFFFFF80
FFFFFFFFFFFFFF80
FFFFFFFFFFFFFF80
FFFFFFFFFFFFFF80
FFFFFFFFFFFFFF80
ENDCHAR
STARTCHAR 2018
ENCODING 8216
SWIDTH 222 0
DWIDTH 16 0
BBX 8 15 4 35
BITMAP
1F
3F
7F
FC
F0
F0
F0
F0
FE
FE
FE
FE
FE
FE
FE
ENDCHAR
STARTCHAR 2019
ENCODING 8217
SWIDTH 222 0
DWIDTH 16 0
BBX 8 15 4 32
BITMAP
7F
7F
7F
7F
7F
7F
7F
0F
0F
0F
0F
3F
FE
FC
F8
ENDCHAR
STARTCHAR 201A
ENCODING 8218
SWIDTH 222 0
DWIDTH 16 0
BBX 8 15 4 -9
BITMAP
7F
7F
7F
7F
7F
7F
7F
0F
0F
0F
0F
3F
FE
FC
F8
ENDCHAR
STARTCHAR 201C
ENCODING 8220
SWIDTH 388 0
DWIDTH 28 0
BBX 19 15 4 35
BITMAP
1F01E0
3F07E0
7F07E0
FC0F80
F00E00
F00E00
F00E00
F00E00
FE0FC0
FE0FC0
FE0FC0
FE0FC0
FE0FC0
FE0FC0
FE0FC0
ENDCHAR
STARTCHAR 201D
ENCODING 8221
SWIDTH 388 0
DWIDTH 28 0
BBX 19 15 4 32
BITMAP
7F07E0
7F07E0
7F07E0
7F07E0
7F07E0
7F07E0
7F07E0
0F00E0
0F00E0
0F00E0
0F00E0
3F03E0
FE0FC0
FC0FC0
F80F00
ENDCHAR
STARTCHAR 201E
ENCODING 8222
SWIDTH 388 0
DWIDTH 28 0
BBX 19 15 4 -9
BITMAP
7F07E0
7F07E0
7F07E0
7F07E0
7F07E0
7F07E0
7F07E0
0F00E0
0F00E0
0F00E0
0F00E0
3F03E0
FE0FC0
FC0FC0
F80F00
ENDCHAR
STARTCHAR 2020
ENCODING 8224
SWIDTH 444 0
DWIDTH 32 0
BBX 27 55 2 -7
BITMAP
001F0000
001F0000
001F0000
001F0000
001F0000
001F0000
001F0000
001F0000
001F0000
001F0000
001F0000
FFFFFFE0
FFFFFFE0
FFFFFFE0
FFFFFFE0
FFFFFFE0
001F0000
001F0000
001F0000
001F0000
001F0000
001F0000
001F0000
001F0000
001F0000
001F0000
001F0000
001F0000
001F0000
001F0000
001F0000
001F0000
001F0000
001F0000
001F0000
001F0000
001F0000
001F0000
001F0000
001F0000
001F0000
001F0000
001F0000
001F0000
001F0000
001F0000
001F0000
001F0000
001F0000
001F0000
001F0000
001F0000
001F0000
001F0000
001F0000
ENDCHAR
STARTCHAR 2021
ENCODING 8225
SWIDTH 444 0
DWIDTH 32 0
BBX 27 55 2 -7
BITMAP
001F0000
001F0000
001F0000
001F0000
001F0000
001F0000
001F0000
001F0000
001F0000
001F0000
001F0000
FFFFFFE0
FFFFFFE0
FFFFFFE0
FFFFFFE0
FFFFFFE0
001F0000
001F0000
001F0000
001F0000
001F0000
001F0000
001F0000
001F0000
001F0000
001F0000
001F0000
001F0000
001F0000
001F0000
001F0000
001F0000
001F0000
001F0000
001F0000
001F0000
001F0000
001F0000
001F0000
FFFFFFE0
FFFFFFE0
FFFFFFE0
FFFFFFE0
FFFFFFE0
001F0000
001F0000
001F0000
001F0000
001F0000
001F0000
001F0000
001F0000
001F0000
001F0000
001F0000
ENDCHAR
STARTCHAR 2022
ENCODING 8226
SWIDTH 666 0
DWIDTH 48 0
BBX 20 20 14 10
BITMAP
01F800
07FE00
1FFF80
3FFFC0
3FFFC0
7FFFE0
7FFFE0
FFFFF0
FFFFF0
FFFFF0
FFFFF0
FFFFF0
FFFFF0
7FFFE0
7FFFE0
3FFFC0
3FFFC0
1FFF80
07FE00
01F800
ENDCHAR
STARTCHAR 2026
ENCODING 8230
SWIDTH 625 0
DWIDTH 45 0
BBX 37 7 4 0
BITMAP
FE01FC03F8
FE01FC03F8
FE01FC03F8
FE01FC03F8
FE01FC03F8
FE01FC03F8
FE01FC03F8
ENDCHAR
STARTCHAR 2030
ENCODING 8240
SWIDTH 1291 0
DWIDTH 93 0
BBX 88 42 2 0
BITMAP
03FFF00001E00000000000
1FFFFE0003E00000000000
3FFFFF0003C00000000000
7FFFFF8007C00000000000
7E001F800F800000000000
FC000FC00F800000000000
F80007C01F000000000000
F80007C01F000000000000
F80007C03E000000000000
F80007C03C000000000000
F80007C07C000000000000
F80007C078000000000000
F80007C0F8000000000000
F80007C0F0000000000000
F80007C1F0000000000000
F80007C3E0000000000000
F80007C3E0000000000000
F80007C7C1FFFC000FFFE0
F80007C7C7FFFF003FFFF8
F80007CF8FFFFF807FFFFC
FC000FCF1FFFFFC0FFFFFE
7E001F9F3F800FC1FC007E
7FFFFF9E3F0007E1F8003F
3FFFFF3E3E0003E1F0001F
1FFFFE3C3E0003E1F0001F
03FFF07C3E0003E1F0001F
000000F83E0003E1F0001F
000000F83E0003E1F0001F
000001F03E0003E1F0001F
000001F03E0003E1F0001F
000003E03E0003E1F0001F
000003C03E0003E1F0001F
000007C03E0003E1F0001F
000007803E0003E1F0001F
00000F803E0003E1F0001F
00000F003E0003E1F0001F
00001F003F0007E1F8003F
00001E001F800FE0FC007F
00003E001FFFFFC0FFFFFE
00007C000FFFFF807FFFFC
00007C0007FFFF003FFFF8
0000F80001FFFC000FFFE0
ENDCHAR
STARTCHAR 2039
ENCODING 8249
SWIDTH 291 0
DWIDTH 21 0
BBX 12 32 4 5
BITMAP
01C0
01E0
03F0
03E0
07E0
07C0
0FC0
0F80
1F80
1F00
3F00
3E00
7E00
7C00
FC00
FC00
FC00
7C00
7E00
3E00
3F00
1F00
1F80
0F80
0FC0
07C0
07E0
03E0
03F0
01F0
01F0
00E0
ENDCHAR
STARTCHAR 203A
ENCODING 8250
SWIDTH 291 0
DWIDTH 21 0
BBX 12 32 5 4
BITMAP
3800
F800
FC00
7C00
7E00
3E00
3F00
1F00
1F80
0F80
0FC0
07C0
07E0
03E0
03F0
01F0
03F0
03E0
07E0
07C0
0FC0
0F80
1F80
1F00
3F00
3E00
7E00
7C00
F800
F800
F000
3000
ENDCHAR
STARTCHAR 20A3
ENCODING 8355
SWIDTH 652 0
DWIDTH 47 0
BBX 40 42 5 0
BITMAP
FFFFFC0000
FFFFFC0000
FFFFFC0000
FFFFFC0000
FFFFFC0000
FC00000000
FC00000000
FC00000000
FC00000000
FC00000000
FC00000000
FC00000000
FC00000000
FC00000000
FC00000000
FC00000000
FC000007F0
FC0007DFF8
FFFF87FFFC
FFFF87FFFE
FFFF87F83E
FFFF87E01F
FFFF87E01F
FC0007C01F
FC0007C01F
FC0007C01F
FC0007C01F
FC0007C000
FC0007C000
FC0007C000
FC0007C000
FC0007C000
FC0007C000
FC0007C000
FC0007C000
FC0007C000
FC0007C000
FC0007C000
FC0007C000
FC0007C000
FC0007C000
FC0007C000
ENDCHAR
STARTCHAR 20AC
ENCODING 8364
SWIDTH 500 0
DWIDTH 36 0
BBX 29 45 3 -1
BITMAP
0007FF00
003FFFE0
007FFFE0
00FFFFC0
01FF1FC0
03F80080
03F00000
07E00000
07E00000
07E00000
0FC00000
0FC00000
0FC00000
0FC00000
0FC00000
0FC00000
0FC00000
7FFFFF00
7FFFFE00
7FFFFE00
FFFFFE00
0FC00000
0FC00000
0FC00000
7FFFF800
7FFFF800
FFFFF000
FFFFF000
0FC00000
0FC00000
0FC00000
0FC00000
07C00000
07C00000
07E00000
07E00000
03E00000
03F00000
03F00000
01F80040
01FE01E0
00FFFFF0
007FFFF8
003FFFF0
000FFFC0
ENDCHAR
STARTCHAR 2122
ENCODING 8482
SWIDTH 861 0
DWIDTH 62 0
BBX 53 27 4 21
BITMAP
FFFFF07E0001F8
FFFFF07E0003F8
FFFFF07F0003F8
FFFFF07F0003F8
00F0007F8007F8
00F0007F8007F8
00F0007F800FF8
00F0007FC00FF8
00F0007BC00F78
00F0007BC01F78
00F00079E01E78
00F00079E03E78
00F00079F03E78
00F00078F03C78
00F00078F07C78
00F00078787878
00F00078787878
00F0007878F878
00F000783CF078
00F000783DF078
00F000781FF078
00F000781FE078
00F000781FE078
00F000780FC078
00F000780FC078
00F000780FC078
00F00078078078
ENDCHAR
STARTCHAR 2126
ENCODING 8486
SWIDTH 666 0
DWIDTH 48 0
BBX 44 49 2 0
BITMAP
00007FE00000
0003FFFC0000
000FFFFF0000
003FFFFFC000
007FFFFFE000
01FFC03FF800
03FF000FFC00
03FC0003FC00
07F80001FE00
0FE00000FF00
1FE000007F80
1FC000003F80
3F8000001FC0
3F0000001FC0
7F0000000FE0
7E0000000FE0
7E00000007E0
7E00000007E0
FE00000007F0
FC00000003F0
FC00000003F0
FC00000003F0
FC00000003F0
FC00000003F0
FC00000003F0
FC00000003F0
FC00000003F0
FC00000003F0
7C00000007E0
7E00000007E0
7E00000007E0
3E00000007C0
3F0000000FC0
3F0000000F80
1F8000001F80
0F8000001F00
0FC000003F00
07E000007E00
03E00000FC00
01F00001F800
00F80003F000
007E0007C000
001F000F8000
000FC03F0000
FFFFE07FFFF0
FFFFE07FFFF0
FFFFE07FFFF0
FFFFE07FFFF0
FFFFE07FFFF0
ENDCHAR
STARTCHAR 2202
ENCODING 8706
SWIDTH 500 0
DWIDTH 36 0
BBX 32 49 2 0
BITMAP
07800000
07F80000
0FFE0000
0FFF8000
03FFE000
003FF000
000FFC00
0003FE00
0000FF00
00007F80
00001FC0
00000FC0
000007E0
000003F0
000003F0
000001F8
000000F8
000FE0FC
007FFC7C
01FFFE7C
07FFFF7E
0FF80FBE
0FE003FE
1F8001FE
3F0000FE
3E00007F
7E00003F
7C00003F
FC00003F
F800001F
F800001F
F800001F
F800001F
F800001F
F800001F
F800001F
F800001E
7C00003E
7C00003E
7E00007C
3E00007C
3F0000F8
1F8001F8
0FE007F0
07F81FE0
03FFFFC0
01FFFF80
007FFE00
000FF000
ENDCHAR
STARTCHAR 2206
ENCODING 8710
SWIDTH 625 0
DWIDTH 45 0
BBX 43 48 1 0
BITMAP
00003F000000
00003F800000
00003F800000
00007FC00000
00007FC00000
0000FFC00000
0000FBE00000
0000FBE00000
0001F3F00000
0001F1F00000
0003F1F00000
0003E0F80000
0003E0F80000
0007C0FC0000
0007C07C0000
000FC07C0000
000F803E0000
000F803E0000
001F003F0000
001F001F0000
003F001F0000
003E000F8000
003E000F8000
007C000FC000
007C0007C000
00FC0007C000
00F80003E000
00F80003E000
01F00003F000
01F00001F000
03F00001F000
03E00000F800
03E00000F800
07C00000FC00
07C000007C00
0FC000007C00
0F8000003E00
0F8000003E00
1F0000003F00
1F0000001F00
3F0000001F00
3E0000000F80
3E0000000F80
7FFFFFFFFFC0
7FFFFFFFFFC0
FFFFFFFFFFC0
FFFFFFFFFFE0
FFFFFFFFFFE0
ENDCHAR
STARTCHAR 220F
ENCODING 8719
SWIDTH 666 0
DWIDTH 48 0
BBX 44 72 2 -18
BITMAP
FFFFFFFFFFF0
FFFFFFFFFFF0
FFFFFFFFFFF0
FFFFFFFFFFF0
FFFFFFFFFFF0
07C000003E00
07C000003E00
07C000003E00
07C000003E00
07C000003E00
07C000003E00
07C000003E00
07C000003E00
07C000003E00
07C000003E00
07C000003E00
07C000003E00
07C000003E00
07C000003E00
07C000003E00
07C000003E00
07C000003E00
07C000003E00
07C000003E00
07C000003E00
07C000003E00
07C000003E00
07C000003E00
07C000003E00
07C000003E00
07C000003E00
07C000003E00
07C000003E00
07C000003E00
07C000003E00
07C000003E00
07C000003E00
07C000003E00
07C000003E00
07C000003E00
07C000003E00
07C000003E00
07C000003E00
07C000003E00
07C000003E00
07C000003E00
07C000003E00
07C000003E00
07C000003E00
07C000003E00
07C000003E00
07C000003E00
07C000003E00
07C000003E00
07C000003E00
07C000003E00
07C000003E00
07C000003E00
07C000003E00
07C000003E00
07C000003E00
07C000003E00
07C000003E00
07C000003E00
07C000003E00
07C000003E00
07C000003E00
FFFF000FFFF0
FFFF000FFFF0
FFFF000FFFF0
FFFF000FFFF0
FFFF000FFFF0
ENDCHAR
STARTCHAR 2211
ENCODING 8721
SWIDTH 666 0
DWIDTH 48 0
BBX 42 72 2 -18
BITMAP
FFFFFFFFFF80
FFFFFFFFFF80
FFFFFFFFFF80
FFFFFFFFFF80
FFFFFFFFFF80
FC0000001F80
7E0000000F80
7F0000000F80
3F0000000F80
3F8000000F80
1FC000000F80
0FC000000F80
0FE000000F80
07E000000F80
03F000000F80
03F800000F80
01F800000000
01FC00000000
00FE00000000
007E00000000
007F00000000
003F00000000
001F80000000
001FC0000000
000FC0000000
000FE0000000
0007F0000000
0003F0000000
0003F8000000
0001F8000000
0000FC000000
0000FE000000
00007E000000
00007F000000
00003F000000
00007F000000
0000FE000000
0000FC000000
0001FC000000
0001F8000000
0003F8000000
0003F0000000
0007F0000000
0007E0000000
000FE0000000
001FC0000000
001F80000000
003F80000000
003F00000000
007F00000000
007E00000000
00FE00000000
00FC00000000
01FC00000000
03F800000000
03F800000FC0
07F000000FC0
07E000000FC0
0FE000000FC0
0FC000000FC0
1FC000000FC0
1F8000000FC0
3F8000000FC0
7F0000000FC0
7F0000000FC0
FE0000000FC0
FC0000000FC0
FFFFFFFFFFC0
FFFFFFFFFFC0
FFFFFFFFFFC0
FFFFFFFFFFC0
FFFFFFFFFFC0
ENDCHAR
STARTCHAR 2212
ENCODING 8722
SWIDTH 527 0
DWIDTH 38 0
BBX 34 5 2 17
BITMAP
FFFFFFFFC0
FFFFFFFFC0
FFFFFFFFC0
FFFFFFFFC0
FFFFFFFFC0
ENDCHAR
STARTCHAR 2215
ENCODING 8725
SWIDTH 152 0
DWIDTH 11 0
BBX 27 42 -8 0
BITMAP
000003E0
000003E0
000007C0
000007C0
00000F80
00000F00
00001F00
00001E00
00003E00
00007C00
00007C00
0000F800
0000F800
0001F000
0001F000
0003E000
0003C000
0007C000
00078000
000F8000
000F0000
001F0000
003E0000
003E0000
007C0000
00780000
00F80000
00F00000
01F00000
01E00000
03E00000
03C00000
07C00000
0F800000
0F800000
1F000000
1E000000
3E000000
3C000000
7C000000
78000000
F8000000
ENDCHAR
STARTCHAR 2219
ENCODING 8729
SWIDTH 208 0
DWIDTH 15 0
BBX 7 7 4 17
BITMAP
FE
FE
FE
FE
FE
FE
FE
ENDCHAR
STARTCHAR 221A
ENCODING 8730
SWIDTH 666 0
DWIDTH 48 0
BBX 48 60 0 0
BITMAP
00000003FFFF
00000003FFFF
00000007FFFF
00000007FFFF
00000007FFFF
0000000FC000
0000000FC000
0000000F8000
0000000F8000
0000001F8000
0000001F8000
0000001F0000
0000003F0000
0000003F0000
0000003E0000
0000003E0000
0000007E0000
0000007C0000
0000007C0000
000000FC0000
000000FC0000
000000F80000
000000F80000
000001F80000
000001F00000
000001F00000
000003F00000
000003E00000
000003E00000
000003E00000
000007E00000
000007C00000
000007C00000
00000FC00000
FF800F800000
FFC00F800000
FFC00F800000
FFC01F000000
FFC01F000000
03E01F000000
03E03F000000
03E03E000000
01F03E000000
01F07E000000
01F07C000000
00F07C000000
00F87C000000
00F8FC000000
0078F8000000
007CF8000000
007DF8000000
007DF0000000
003FF0000000
003FF0000000
003FE0000000
001FE0000000
001FE0000000
001FE0000000
001FC0000000
000FC0000000
ENDCHAR
STARTCHAR 221E
ENCODING 8734
SWIDTH 666 0
DWIDTH 48 0
BBX 46 22 1 9
BITMAP
01FC0000FE00
07FF0007FF80
0FFFC00FFFC0
1FFFE01FFFE0
3F03F03F03F0
7C00F87C01F8
7C007CF800F8
F8003DF0007C
F0001FE0003C
F0000FC0003C
F0000780003C
F0000780003C
F0000FC0003C
F0001FE0003C
F8003CF0007C
78007CF800F8
7E00F87C01F8
3F03F03F03F0
1FFFE01FFFE0
0FFFC00FFFC0
07FF0003FF80
01FC0000FE00
ENDCHAR
STARTCHAR 222B
ENCODING 8747
SWIDTH 500 0
DWIDTH 36 0
BBX 22 72 7 -18
BITMAP
0003F8
000FFC
003FFC
003FFC
007FF8
007F08
00FE00
00FC00
00FC00
00FC00
00FC00
00FC00
00FC00
00FC00
00FC00
00FC00
00FC00
00FC00
00FC00
00FC00
00FC00
00FC00
00FC00
00FC00
00FC00
00FC00
00FC00
00FC00
00FC00
00FC00
00FC00
00FC00
00FC00
00FC00
00FC00
00FC00
00FC00
00FC00
00FC00
00FC00
00FC00
00FC00
00FC00
00FC00
00FC00
00FC00
00FC00
00FC00
00FC00
00FC00
00FC00
00FC00
00FC00
00FC00
00FC00
00FC00
00FC00
00FC00
00FC00
00FC00
00FC00
00FC00
00FC00
00FC00
00FC00
01FC00
43F800
7FF800
7FF000
FFE000
FFC000
7E0000
ENDCHAR
STARTCHAR 2248
ENCODING 8776
SWIDTH 500 0
DWIDTH 36 0
BBX 34 23 1 9
BITMAP
01F0000000
07FC000100
0FFF0003C0
1FFFC007C0
3FFFF00F80
7E0FFC1F80
7C03FFFF00
F800FFFE00
F0003FFC00
60000FF800
000003E000
0000000000
0000000000
01F0000100
07FE000380
1FFF8007C0
1FFFE00FC0
3FFFFC1F80
7E0FFFFF00
7C01FFFE00
F8007FFE00
70001FF800
200003E000
ENDCHAR
STARTCHAR 2260
ENCODING 8800
SWIDTH 527 0
DWIDTH 38 0
BBX 34 28 2 6
BITMAP
000000E000
000001F000
000001F000
000003F000
000007E000
00000FC000
FFFFFFFFC0
FFFFFFFFC0
FFFFFFFFC0
FFFFFFFFC0
FFFFFFFFC0
0000FC0000
0001F80000
0001F00000
0003E00000
0007E00000
000FC00000
FFFFFFFFC0
FFFFFFFFC0
FFFFFFFFC0
FFFFFFFFC0
FFFFFFFFC0
00FC000000
01F8000000
03F0000000
03E0000000
03E0000000
01C0000000
ENDCHAR
STARTCHAR 2264
ENCODING 8804
SWIDTH 500 0
DWIDTH 36 0
BBX 32 37 2 2
BITMAP
00000003
0000001F
0000007F
000003FF
00000FFF
00007FFE
0001FFF0
000FFFC0
003FFE00
01FFF000
07FFC000
3FFE0000
FFF00000
FFC00000
FE000000
FF000000
FFE00000
7FFC0000
1FFF0000
03FFE000
00FFF800
001FFF00
0007FFE0
0000FFF8
00003FFF
000007FF
000001FF
0000003F
0000000F
00000001
00000000
00000000
FFFFFFFF
FFFFFFFF
FFFFFFFF
FFFFFFFF
FFFFFFFF
ENDCHAR
STARTCHAR 2265
ENCODING 8805
SWIDTH 500 0
DWIDTH 36 0
BBX 32 37 2 2
BITMAP
C0000000
F8000000
FE000000
FFC00000
FFF00000
7FFE0000
0FFF8000
03FFF000
007FFC00
000FFF80
0003FFE0
00007FFC
00000FFF
000003FF
0000007F
000000FF
000007FF
00003FFE
0000FFF8
0007FFC0
001FFF00
00FFF800
07FFE000
1FFF0000
FFFC0000
FFE00000
FF800000
FC000000
F0000000
80000000
00000000
00000000
FFFFFFFF
FFFFFFFF
FFFFFFFF
FFFFFFFF
FFFFFFFF
ENDCHAR
STARTCHAR 25CA
ENCODING 9674
SWIDTH 666 0
DWIDTH 48 0
BBX 36 50 6 -1
BITMAP
0000600000
0000F00000
0000F00000
0001F80000
0003FC0000
0007FE0000
00079E0000
000F9F0000
001F0F8000
003E07C000
003C03C000
007C03E000
00F801F000
00F000F000
01E0007800
03E0007C00
07C0003E00
0780001E00
0F80001F00
1F00000F80
1E00000780
3C000003C0
7C000003E0
F8000001F0
F0000000F0
F0000000F0
F8000001F0
7C000003E0
3C000003C0
1E00000780
1F00000F80
0F80001F00
0780001E00
07C0003E00
03E0007C00
01E0007800
00F000F000
00F801F000
007C03E000
003C03C000
001E07C000
001F0F8000
000F9F0000
00079E0000
0007FE0000
0003FC0000
0001F80000
0000F00000
0000F00000
0000600000
ENDCHAR
STARTCHAR F000
ENCODING 61440
SWIDTH 666 0
DWIDTH 48 0
BBX 44 52 2 -2
BITMAP
000000018000
0000000F8000
0000001F0000
0000003F0000
0000007F0000
000000FF0000
000001FE0000
000001FE0000
000003FC0000
000003F80000
000003F00000
000003C00000
003F8207F000
01FFF07FFE00
03FFFFFFFF00
07FFFFFFFF80
0FFFFFFFFFC0
1FFFFFFFFFC0
3FFFFFFFFF80
3FFFFFFFFF00
7FFFFFFFFE00
7FFFFFFFFE00
7FFFFFFFFC00
FFFFFFFFFC00
FFFFFFFFF800
FFFFFFFFF800
FFFFFFFFF800
FFFFFFFFF800
FFFFFFFFF800
FFFFFFFFF800
FFFFFFFFF800
FFFFFFFFFC00
FFFFFFFFFC00
7FFFFFFFFE00
7FFFFFFFFF00
7FFFFFFFFF80
7FFFFFFFFFC0
3FFFFFFFFFE0
3FFFFFFFFFF0
3FFFFFFFFFF0
1FFFFFFFFFE0
1FFFFFFFFFE0
0FFFFFFFFFC0
0FFFFFFFFFC0
07FFFFFFFF80
03FFFFFFFF00
03FFFFFFFF00
01FFFFFFFE00
00FFFFFFFC00
007FFFFFF800
003FF01FF000
000F8007C000
ENDCHAR
STARTCHAR F001
ENCODING 61441
SWIDTH 680 0
DWIDTH 49 0
BBX 39 41 5 0
BITMAP
FFFFFFE07E
FFFFFFE07E
FFFFFFE07E
FFFFFFE07E
FFFFFFE07E
FC0000007E
FC0000007E
FC0000007E
FC0000007E
FC0000007E
FC0000007E
FC0000007E
FC0000007E
FC0000007E
FC0000007E
FC0000007E
FC0000007E
FC0000007E
FFFFFFC07E
FFFFFFC07E
FFFFFFC07E
FFFFFFC07E
FFFFFFC07E
FC0000007E
FC0000007E
FC0000007E
FC0000007E
FC0000007E
FC0000007E
FC0000007E
FC0000007E
FC0000007E
FC0000007E
FC0000007E
FC0000007E
FC0000007E
FC0000007E
FC0000007E
FC0000007E
FC0000007E
FC0000007E
ENDCHAR
STARTCHAR F002
ENCODING 61442
SWIDTH 930 0
DWIDTH 67 0
BBX 61 41 5 0
BITMAP
FFFFFFE07E000000
FFFFFFE07E000000
FFFFFFE07E000000
FFFFFFE07E000000
FFFFFFE07E000000
FC0000007E000000
FC0000007E000000
FC0000007E000000
FC0000007E000000
FC0000007E000000
FC0000007E000000
FC0000007E000000
FC0000007E000000
FC0000007E000000
FC0000007E000000
FC0000007E000000
FC0000007E000000
FC0000007E000000
FFFFFFC07E000000
FFFFFFC07E000000
FFFFFFC07E000000
FFFFFFC07E000000
FFFFFFC07E000000
FC0000007E000000
FC0000007E000000
FC0000007E000000
FC0000007E000000
FC0000007E000000
FC0000007E000000
FC0000007E000000
FC0000007E000000
FC0000007E000000
FC0000007E000000
FC0000007E000000
FC0000007E000000
FC0000007E000000
FC0000007FFFFFF8
FC0000007FFFFFF8
FC0000007FFFFFF8
FC0000007FFFFFF8
FC0000007FFFFFF8
ENDCHAR
ENDFONT
